<?xml version="1.0" encoding="UTF-8"?>
<svg id="Layer_1" xmlns="http://www.w3.org/2000/svg" version="1.1" viewBox="0 0 390 297">
  <!-- Generator: Adobe Illustrator 30.6.0, SVG Export Plug-In . SVG Version: 2.1.4 Build 109)  -->
  <defs>
    <style>
      .st0 {
        fill: #a00000;
      }

      .st1 {
        fill: #231f20;
      }

      .st2 {
        fill: #fff;
      }
    </style>
  </defs>
  <path class="st2" d="M0,0h390v81h-30c-17.94,72-35.88,144-53.83,216H83L29,81H0V0Z"/>
  <g>
    <path class="st2" d="M181.54,280.3s11.89,6.21,29.05,7.6,81.46-13.07,81.46-13.07l53.98-212.81,25.31-1.03-1.55-43.39-104.59.77-10.09,4.9s-2.05-6.19-5.4-6.97-9.52,1.03-18.71,7.1c-9.7-2.97-51.8-4.78-51.8-4.78l-19.33,9.96s-18.61,7.28-24.05,3.7-14.99-13.92-14.99-13.92l-99.95-.26-.52,44.42,21.95.52,40.29,153.92,15.24,61.98,83.7,1.33Z"/>
    <g>
      <path class="st0" d="M244.12,101.82c.54,1.29.13,3.37.94,4.71-.06,1.82.81,3.43.48,5.2-1.28-2.23,0-4.99-2.89-6.33-1.01-1.23.54-2.16.46-3.37l.2-2.77c1.08.21.34,1.76.81,2.56h0Z"/>
      <path class="st1" d="M242.49,25.72c-.46,2.28-3.02,2.33-4.57,3.55-3.24,3.18-9.71,4.05-9.71,9.5-.27.75-1.61,1.29-.94,2.29.81.27.47,1.29.33,1.74-.47.48-1.08.88-.81,1.63,1.41,1.55-1.01,3.04-.47,5.06-1.35,1.07-2.1,2.62-3.91,2.7-.88-.4-1.82-.28-2.43.66.13.95-1.01,2.24.33,2.89.35.15,1.01-.26.95.35-.35,1.01-1.89,1.73-1.76,3.09l.14,3.23h1.15c2.56-1.69,4.98-3.78,7.27-6,1.35-.27,3.03-.47,3.9.95.07.86,1.14,1.74.27,2.63-1.21-.48-2.22-1.83-3.71-1.17-2.02.96-2.62,3.38-4.65,4.39-2.89,2.7-5.99,4.99-8.89,7.73-.4-.12-.6.35-1,.15-.68-1.22.13-3.1-1.29-3.85-1.07-.67-2.02-1.88-1.61-3.09,2.43-2.15-2.02-4.12.68-6.14-.94-2.49-4.18-4.16-3.43-7.13-.75-2.15-3.57-3.42-3.85-5.8-.33-1.48-2.96-2.42-1.95-4.03-.6-1.95-2.69-.94-3.7-2.09-1.35-1.33-3.16-2.35-3.57-4.23-.41-.28-.61-.6-.46-1.16,1.54.35,1.81,3.24,3.7,2.16.14-1.09-.74-1.77-1.15-2.63.88-.55,3.03,2.08,2.56-.59,1.28-.82,2.82.12,4.04-.22,1.21.34,2.42,2.84,3.43,1.28.4-1.06,2.02-.53,2.9-.47.55.47.95,1.14,1.76,1.02,1.15-.6,2.82-.4,3.76.46.6,1.02.6,2.36,1.29,3.37.94-.4.2-1.34.13-1.95-.73-.26,0-.87,0-1.27,1.15-.8,2.09.81,3.44.45,5.12,1.76,8.62-3.35,13.06-4.84,2.49-2.15,5.52-3.02,8.21-4.63h.53Z"/>
      <path class="st1" d="M174.88,35.55c1.41.26,1.28,2.01,2.15,2.9,3.04.06,1.96,3.7,4.31,4.71.95,2.02.81,4.36,1.96,6.33.8-.34.4-1.21.8-1.61.6,2.01.74,4.23,1.62,6.12,3.23,1.41,4.31,4.43,4.84,7.61.62,1.13.28,2.75.35,4.17-2.09.67-3.37-1.82-4.71-3.09-2.02-1.96-2.63-4.52-4.31-6.6-1.01-.4-.95.81-1.62,1.13-2.69-.87-4.05-4.37-7-4.83-.6.2-.14.73-.14,1.13-2.42-.4-4.84-1.68-6.93-3.22-2.76-2.7-5.86-5.32-9.36-6.47-1.48-.14-3.97.81-4.71-1.14,0-.6-.75-.94-.6-1.61.74-2.22,3.97.4,3.51-2.29,1.01-1.21,2.02.48,2.96-.93.67-.16,1.41.46,2.22.46,1.01-2.96,4.45-1.07,6.67-1.62.48-.32.2-1.13.94-1.27,2.22-1.15,4.11.6,6.13.95l.95-.8Z"/>
      <path class="st1" d="M241.02,35.2c.74,1.36,1.88,2.65,1.75,4.06-.82.12-1.49-2.1-2.43-.6-.27.72.88,1.33,0,1.93-2.02.28-4.31.21-6.12-.66-.14-2.03,2.29-.14,3.43-.95,1.82-.8.81-3.98,3.37-3.78h0Z"/>
      <path class="st1" d="M145.3,41.67c.81.14,1.01.94,1.49,1.49-1.21,1.21-3.71-.41-5.2.93-4.03-1.28-7.13-4.83-11.44-5.44-.14-.49-1.15-.4-.68-1.01,5.19,1.61,10.31,3.42,15.83,4.03h0Z"/>
      <path class="st1" d="M133.51,46.87c-.8.25-1.55.93-2.55.65-.55-1.14-3.11.21-2.42-1.62.61-.46,1.14-1.01,1.95-1.01.81,1.09,2.42.75,3.02,1.98h0Z"/>
      <path class="st1" d="M239.99,46.67c.17.33-.17.6-.42.76-.27-.08-.6.16-.77-.16-.25-.52.34-.6.59-.84.18.24.42.24.59.24h0Z"/>
      <path class="st1" d="M244.12,49.49c.27.47-.67,1.28.13,1.74,1.49.27,3.57-.73,4.18,1.16-.61,1.41-2.15,2.62-3.5,3.22-.74.13-1.34-.4-1.62-1-.74-1.82-3.16-3.22-2.42-5.46.81-1.21,2.63-.6,3.24.34h0Z"/>
      <path class="st1" d="M254.76,55.74c-.34.47-.55,1.48.33,1.63,1.28-.27,1.95,1.06,3.03,1.26-1.21,1.49,1.76,2.7,0,3.44-.34.34-1.14.41-1.08,1.15.74.6,2.49.53,2.23,1.89-1.42,1.27-3.71.73-4.86,2.42.55.4,1.56.47,1.16,1.34-1.69,2.57-4.92,1.56-7.28,2.69-1.09-.32-2.15.76-2.9-.26-.14-.81.14-1.48.8-1.96,1.36-.47,3.17-.32,4.18-1.28-.8-.87-3.09.4-3.7-1.13.33-1.09,1.74-1.01,1.74-2.1-2.02-.4-.47-2.21-1.74-3.22.53-2.22-3.57-2.77-1.62-4.71,2.7-1.56,5.93-2.57,9.23-1.61l.47.45Z"/>
      <path class="st1" d="M177.17,60.01c3.76,1.73,5.86,6.45,9.69,8.06,1.21,1.36,3.16,1.41,4.85,1.08,1.55-.06,2.3-2.56,3.57-2.42.07,2.55-2.22,4.03-4.24,5.52-.74.6-1.69.74-2.56,1.14-2.69-1.88-3.7-5.32-6.8-6.66-3.04-4.59-7.96-4.65-11.46-8.09-1.88-1.33-3.9.48-5.65.35-.33-.27-.13-.75-.13-1.16,1.61-1.41,3.77-2.22,6.13-1.61,2.29,1.09,4.1,3.11,6.6,3.79h0Z"/>
      <path class="st1" d="M149.55,60.01c-.74,1.21-.27,3.91-2.63,3.71-1.41.8.74,1.27,0,2.42-.33.66-1.62.52-1.28,1.61.27.48,1.28.33,1,1.14-.6.47-1.95.21-1.61,1.42.8.74,2.21,1.55,1.76,2.89-.21.35-.75.55-.68,1.01,3.24,1.41.2,6.19,3.9,7.61.54,2.08,2.97,1.76,4.04,3.5,1.08.28,2.76-.32,3.1,1.37,1.48.25,2.76,1.27,4.31,1.41,1.75,2.15,4.98,1.13,6.93,2.1.48.67,1.42.12,1.96.52,1.08.48,2.7.8,2.9,2.21-1.61.41-2.97,2.03-4.86,1.29-2.55.8-2.95-3.16-5.58-1.89-1.08.41-2.36,1.16-3.44.6.4-.6,0-1.41-.6-1.61-1.81-.46-3.51-1.61-5.52-.93-2.43,1.26-2.9-2.3-5.19-1.82-.53-2.43-3.77-.2-4.04-2.69-.41.12-.54-.36-.81-.56.4-.93-.54-1.47-1.14-1.87-1.29,0-3.04.14-3.24-1.47-.94-1.21-2.56-.96-3.83-1.49.53-1.21.2-2.5.33-3.7-.67-.54-1.68-.8-1.95-1.61.53-.34,1.75-.76,1.28-1.61-.2-.35-.75-.48-.67-.95.33-.45,1.28-.21,1.14-1.02-.06-.32-.47-.53-.33-.93.47-.2,1.21-.14,1.34-.81.07-1.09-1.48-1.09-1.14-2.29,1.14,0,2.08-.48,2.89-1.29.28-.72.08-1.68.82-2.21,1.08.33,2.28,0,3.22-.32.14-.69-.95-.77-.67-1.49,1.28-.6,4.98.8,3.77-1.96,1.21-.81,3.63-1.87,4.51-.25h0Z"/>
      <path class="st1" d="M229.36,68.07c.48,1.61-.05,3.18-.8,4.52-1.14,1.36-2.96,1.62-4.51,1.42-.87-.55-2.09-.61-2.55-1.75-.14-.94-.6-1.89.14-2.77.87-.53,1.81-1.41,2.89-.81.2.41.61.36,1.01.36,1.55-1.02,0-4.19,2.56-3.91.94.8.87,1.94,1.27,2.95h0Z"/>
      <path class="st1" d="M175.21,68.34c.6-.88,1.81-1.41,2.9-.94,1.47,1.14,1.95,3.24,1.47,5.18-.87,2.03-2.69,3.49-4.98,3.57-1.34-.33-3.1-.88-3.9-2.41-.88-1.69-.88-3.65-.14-5.4.47-.54.67-1.28,1.41-1.61,1.28.06,1.89,1.74,3.24,1.61h0Z"/>
      <path class="st1" d="M209.5,71.45c2.09.27.54,3.02,2.56,3.56,2.62.34,4.44,2.84,6.8,3.71.94.54.13,1.42.2,2.08-.54,1.02-.94,2.02-1.35,3.1-.74-.21-1.01-2.28-2.1-1.13-1,1.13-2.96.53-4.37.46-.81-.6-1.22-1.21-2.23-1.41-.41.35-.41,1.16-1.14,1.08-.94-1.61-1.22-3.51-2.89-4.84-.4.05-.81-.08-1.01.32.74,1.41,2.22,2.7,2.15,4.25-.27.94-1.42.87-2.15.6-.28-.4-.61-.6-1.09-.46-.4.2-.33.61-.33.93-1.21.81-2.42,1.49-3.9,1.62-2.29-.6-4.78-1.33-7.07-1.41-1.75-2.69-5.59-.21-7.61-2.08.61-.26,1.47-.74,1.62-1.48,2.69.22,4.64-1.61,6.46-3.24,2.16.76,3.57-1.21,5.45-1.48.61-.6.74-1.67,1.95-1.26.88-.34.27-1.41,1.15-1.63,1.54.67,3.37.13,4.85-.35.68-.32.54-1.61,1.62-1.26.48,1.02,1.89,1.14,2.43.33h0Z"/>
      <path class="st1" d="M251.52,72.59c-.06.67-.94,1.01-1.15,1.62-.81,1.01-.53,2.69-1.95,3.37-1.34.48-3.23.8-3.83,2.29.6.47,1.47.27,1.96,1.13.26,1.36-1.01,1.42-1.96,1.63-1.55.06-2.7-.21-3.91-.67.14-1.29,1.69-1.49,2.1-2.58-.13-2.33,0-4.77,1.82-6.19,1.61-.53,3.5-.47,5.18-.94.68-.12,1.15.2,1.75.33h0Z"/>
      <path class="st1" d="M225.27,79.62c0,.37-.08.69-.38.93-.31-.08-1.01.24-.93-.32-.09-.37.08-.69.38-.93.38-.08.7,0,.93.32h0Z"/>
      <path class="st1" d="M221.57,80.15c.08.47-.15.85-.39,1.25-.85.39-.62-.56-.93-.93-.16-.63,1.16-1.49,1.31-.32h0Z"/>
      <path class="st1" d="M238.96,84.38c-.84.08-1.43,1.59-2.35.83-.34-.75.59-1.19,1.01-1.44.42-.42,1.51-.24,1.35.6h0Z"/>
      <path class="st1" d="M212.26,86.79c1.28.55.2,2.3.33,3.39.33.6,1.08.87,1.62.53,1.96-.81.07-3.22,1.61-4.03.55,1.13.35,2.89.14,4.17-.81,1.61-2.43,2.48-4.05,2.76-3.36-.08-7.27-.14-8.75-3.42-.2-.89-.88-1.62-.61-2.7,1.01-.6,2.43,3.02,2.9.11-.27-1,.4-1.69,1.15-2.09,1.75.36,3.7,4.39,5.66,1.28h0Z"/>
      <path class="st1" d="M209.5,97.64c4.18.6,8.14,2.29,10.99,5.48-1.56,1.06-3.25-.48-4.66-1.09-2.01-.55-3.63-2.1-5.65-2.62-5.58-2.23-10.84,1.06-15.55,3.22-.55.28-.88-.4-.95-.81.27-2.02,2.5-2.82,4.05-3.58,3.63-.86,8.01-2.34,11.79-.6h0Z"/>
      <path class="st1" d="M170.04,227.94c-.43.09-.85.76-.35,1.01.18,0,.43.09.59-.18-.08-.25.17-.84-.24-.84h0Z"/>
      <path class="st1" d="M197.71,259.11c1.14-.29,1.55,1.06,2.56,1.13.27-.72-.41-1.08-.6-1.61-1.89-.14-2.9-2.3-4.72-2.42-1.22,1.61,1.48,2.21,1.48,3.9.74.06.88-.55,1.28-1h0Z"/>
      <path class="st1" d="M167.74,220.91c-.39.23-.16.68.16.92.32-.04,1.01-.16.77-.75-.23-.33-.62-.09-.93-.17h0Z"/>
      <path class="st1" d="M175.56,248.96s-.49,1.01,0,1.07c.48.05.45-.32.45-.32.15-.3-.04-.76-.45-.75h0Z"/>
      <path class="st1" d="M176.36,244.2s-.83.54-.27.88c.57.35.51,0,.51,0,0-.37.13-.78-.24-.88h0Z"/>
      <path class="st1" d="M176.02,220.77c-.34-.4-.8-.65-1.28-.81-1.15.96-2.76-.6-3.7.81.27,1.01-.61,1.82.13,2.63,1.35-.21.28-1.62,1.01-2.29,1.01-.14.94,1.08,1.41,1.61.33.08.54-.08.81-.13,1.07.05,1.88-.6,1.61-1.82h0Z"/>
      <path class="st1" d="M178.44,225.48c.68-.94,1.08-2.63,2.44-2.55,1.41,1.48-1.15,2.55-1.29,4.03-.2.27-.34.95.14,1.08,1.21.13,1.56-1.21,2.29-1.89.33-.13.47.14.67.27-.61,2.63-4.38,4.03-3.24,7.14.33.19.81-.13,1.08.48.4,1.73-1.15,2.74-2.22,3.7-.6,1.08.94.82,1.41,1.14.81-.32.6-1.14.81-1.74.2-.35.47-.88,1-.68.48.73,1.01,1.4.8,2.42,1.63.89,1.76-1.82,3.25-2.22.86-.19,1.21.81,1.95,1.09.06-1.01-.27-2.63.27-3.7,1.61-.76,1.21,1.61,2.3,1.8-.2-1.61,1.35-2.5,1.48-3.9-1.02-.88-2.02-2.1-2.29-3.38-.48-1.02.13-1.94.46-2.74,1.15.66.41,2.41,1.29,3.35,2.83-1.63-1.34-3.65.54-5.99l-5.99-.14c-2.16.75,1,2.16.8,3.58-.41.32-.68.8-1.15.92-1.41-.11-.6-1.81-1.27-2.53-1.35-1.09-1.63-3.65-3.71-3.24-3.78-.14-2.02,4.24-4.05,5.98-.8.61-1-1.13-1.94-.66.2,1.74-.95,3.3.14,4.85.47-.54.4-1.35,1.14-1.75,1.07-.26.73,1.06,1.48,1.27l.47-.46c-.68-1.87.41-3.78.94-5.53h0ZM187.67,227.76l.34.28c-.4,1.35-1.56,2.36-1.82,3.77-.4.14-.55-.34-.81-.55.4-1.26.81-3.01,2.28-3.5h0ZM184.1,227.56c-.13,1.09-.94,2.17-1.14,3.45-.4.06-.4-.55-.61-.81.21-1.02.89-2.16,1.76-2.64h0Z"/>
      <path class="st1" d="M165.77,221.84c.16.08.24.24.39.16.61.08,1.24-.76.78-1.32-.55,0-1.17.63-1.17,1.16h0Z"/>
      <path class="st1" d="M106.71,158.53c-.67-.2-1.21.34-1.48.82-.48,2.02-2.5,4.43-.81,6.32.61-.08,1.14-.28,1.61-.68,2.49-1,.6,1.75,1.61,2.62.68.61,1.21,1.57,2.3,1.29,1.21.08,1.27-1.08,2.09-1.74,1.62-1.88-.81-3.29-1.75-4.71-2.36-.27-1.68-2.89-3.57-3.91h0Z"/>
      <path class="st1" d="M158.1,123.98c-.54.27-1.01.74-.81,1.49,4.1,4.31,6.34,9.43,8.9,14.34,2.21,2.9.06,8.02,3.7,9.83,2.36.2,4.38,1.61,6.6,1.61v-1.75c-1.68-5.98-3.3-11.99-7.53-16.98-3.5-2.74-5.86-8.42-10.85-8.55h0Z"/>
      <path class="st1" d="M114.59,165.68c-.74.52-.88,1.28-1.28,1.94,0,1.08-.8,2.84.67,3.58,2.03.27,2.69-2.36,3.58-3.78.06-.53-.28-.87-.69-1.27-.66-.41-1.41-.55-2.28-.47h0Z"/>
      <path class="st1" d="M177.53,242.35c.21.29.38.24.54.32.54,0,1.08.15,1.15-.56-.3-.37-.69-.54-1.15-.54-.16.24-.78.24-.54.77h0Z"/>
      <path class="st1" d="M166.47,225.51c-.32.27.17,1,.17,1,.37.12.5-.57.43-1,0,0-.28-.28-.59,0h0Z"/>
      <path class="st1" d="M162.82,148.36c-3.04.48-6.34-.12-9.57,0-1.34.75-3.36-.06-4.71.68.07.26-.14.6.21.8l12.12.12c1.34-.05,3.3.35,3.7-.93-.54-.4-1.08-.8-1.75-.68h0Z"/>
      <path class="st1" d="M165.24,222.23c-.88-.23-.65-.03-.65-.03,0,0-.22.14,0,.5.22.36.5,0,.5,0,0,0,.46-.41.15-.47h0Z"/>
      <path class="st1" d="M133.38,198.14c1.95.13,2.22-1.82,2.76-3.24-.2-1.63.54-4.45-1.35-5.12-.88.4-1.82.55-2.9.47-.88-.33-2.02-1.49-2.9-.33-.06,2.54,1.62,4.43,2.43,6.6.27.86,1.14,1.41,1.96,1.61h0Z"/>
      <path class="st1" d="M120.58,167.41c-1.68.35-2.02,2.44-2.22,3.91.4,1.08,1.68.68,2.56.96,1.95-.21,2.02-2.3,2.56-3.71-.47-1.17-1.89-.82-2.9-1.17h0Z"/>
      <path class="st1" d="M148.37,252.91c-.46-.23.15-1.16-.54-1.08-.62,1.08.23,2.09.7,2.94.47.23.62-.38.93-.55.16-.76-.93-.76-1.08-1.32h0Z"/>
      <path class="st1" d="M223.91,204.94c-.67-.06-1.08-.87-1.82-.8-1.76,1.06-2.62,3.03-3.23,4.85-.54,1.48-1.01,3.01-.34,4.37.67,0,1.41.06,1.61-.67.55-.35,1.08,0,1.49.32,1.68-.21,1.55-2.09,2.42-3.03.47-2.42,1.62-4.52,2.56-6.67-1.08-.94-1.81,1.07-2.7,1.62h0Z"/>
      <path class="st1" d="M216.09,204.94c-.88,1.15-1.75,2.48-1.89,4.05-.54,2.29-2.35,4.43-1.62,6.8,3.5-.67,3.1-4.7,4.65-7.15.4-.8-.13-2.08.47-2.9-.4-.39-.81-1.08-1.62-.8h0Z"/>
      <path class="st1" d="M212.39,205.28c-1.62-.62-3.1.27-4.39,1.13-.86-2.34-2.82-.6-4.03.15-1.75,1.07-2.96-1.16-4.85-.95-1.76.61-2.97.21-4.86.48-1.75.4-1.21,2.55-1.75,3.57-.27,2.43-1.27,4.51-1.61,6.94.61.73,1.61,1.21,2.56,1.48,1.15.45,2.3-.06,3.1-.81.54-1,1.01-1.95.8-3.24.21-1.47.14-3.01,1.28-4.03.33-.14.47.13.68.28-.27,2.35-1.09,5.18.13,7.26,1.96.74,3.5-.41,4.85-1.61,1.21-1.08,1.55.67,2.43,1.14,4.1.4,3.9-4.51,5.32-6.94.4-1.48,2.22-3.56.33-4.83h0Z"/>
      <path class="st1" d="M188.35,206.56c-2.83,1.14-3.57-4.25-6.81-2.08-1.75,1.34-3.1-1.02-4.51-1.77-1.68-.25-2.89,1.08-4.37.81-1.82-.06-2.03,1.95-2.77,3.04-.47,1.95-2.49,4.31-.81,6.14,1.14.46,2.48.67,3.57-.15,1.14-2.43.74-5.46,2.89-7.4.47-.16.87.05,1.15.45-.07,3.18-2.42,5.6-1.82,8.9.6.8,1.61,1.28,2.63,1.28,2.22-1.08,2.83-3.38,3.23-5.52.61-.88,0-2.69,1.61-2.69l.15,1.42c-.4,1.28-.55,2.75-.95,4.03-.46,1.21.61,2.16,1.15,3.09,1.21,1.15,3.1,1.69,4.65.95.54-.65,1.08-1.27,1.28-2.08.8-3.09,1.82-6.07,2.29-9.24-.88-.8-1.56,1.02-2.56.81h0Z"/>
      <path class="st1" d="M301.98,190.39c.06-5.58-4.59-9.43-7.48-13.74-1.74-3.83-1.21-8.01-2.69-11.91-1.69-3.97-5.52-5.93-9.56-6.2l-11.19-9.7v-2.9c-.54-4.79-2.35-9.02-4.65-13.07-3.57-9.83-14.14-14.55-22.5-18.72-2.08-1.69-1.01-4.99-3.37-6.67-2.9-2.49.8-5.45-.67-8.42-.14-.67-1.35-.86-.94-1.75.2-.6.88-.2,1.28-.33,4.18-1.68,8.89-1.83,13.4-2.57,2.36-1.41-.88-2.41-1.14-3.7.34-1.41,1.88-1.95,2.76-2.96,5.6-3.36,11.18-8.88,14.42-14.55,1.01-2.03,3.97-.6,5.32-2.43.95-1.28-1.28-2.62,0-3.83-.74-1.76.54-3.11,1.28-4.4.53-1.67-.13-3.22-1.28-4.37.67-1.75-.27-3.65-1.49-4.98.14-2.57-3.09-4.31-4.98-5.67-.88-2.55-3.65-3.5-5.66-4.72-.94-2.27-4.11-1-6.33-1.13-1.34-1-2.1-2.62-3.37-3.83-2.23-5.13,1.07-10.91-1.48-15.71-.75-1.33-2.09-1.82-3.37-2.3-8.02-.61-13.54,5.94-20.35,8.62-2.15,2.23-5.72,1.57-8.62,1.42-3.44-.45-7.02-1.62-10.64-2.08-5.73-1.48-12.2-1.28-18.13-.82-3.56.41-6.99,1.02-10.29,2.08-3.65,0-7,.56-10.51.81-.88.4-2.16-.13-2.9.47-6.87.4-12.59,3.59-19.12,4.71-4.31,1.41-10.38.88-14.68-.12-4.18-1.16-7.36-4.79-12.27-4.05-3.22.87-5.05,4.3-6.46,6.95-2.49,5.93-.06,12.32,3.51,16.96,1.48,4.25-3.51,5.2-5.47,7.89-.73,1.48-1.2,3.04-1.81,4.57,2.02,1.62-1.34,4.51,1.61,5.68.48.87-.05,1.94-.8,2.42-.87,1.21,1,.8,1.35,1.61,1.48,1.49.54,3.42.14,5.12l3.7,4.59c1.35,3.63,5.39,2.22,7.94,3.7,1.76,2.75,5.12,2.34,6.61,5.17,1.61.88,3.37,1.48,5.18,1.88,1.41.2.27,1.77,1.28,2.3,3.7.08,6.8,1.69,10.5,1.75.81.55,1.95.34,2.76.82.54,2.23,3.44.53,4.52,1.47.27,1.83,1.82,2.89,3.09,4.06-2.28,3.55-.87,8.67-4.71,11.65-3.02,2.35-6.27-1.77-9.69-.34-2.43,2.49-5.4,3.71-8.55,4.51-5.19.53-10.51.6-14.89,3.09-6.73,1.95-8.96,9.23-11.44,14.69,0,3.16-3.37.68-4.85,2.1-1.69.86-2.7,2.62-2.9,4.37,0,3.9-2.36,6.79-3.91,10.03-.94,1.68-.27,3.65.81,4.98-1.55,1.83-1.14,4.86-.94,6.95.88,2.08,1.88,4.11,2.43,6.34.05,7.2,3.02,13.19,4.65,19.73,2.48,5.77,2.56,12.59,7.61,17.29,2.29,1.9,4.84.95,7.61.61,4.59.08,8.62-2.15,11.92-5.45,2.22-1.55,1.35-5.4,4.59-5.51,2.83-1.29,2.97-4.66,3.24-7.41-.88-1.89.2-3.71.27-5.52-.07-3.38-3.24-5.48-4.31-8.42-3.04-5.28-9.24-4.67-14.07-4.87-.34-.46-1.49.36-1.28-.61,2.5-.66,5.06-1.27,7.27-2.62.48-2.96,2.03-6.2,5.12-7.41,2.83-1.74.61-4.71,1.35-6.93,2.43-2.56,3.16-8.02,7.88-7.82,2.16,1.75,4.65,2.5,7.15,3.23.67.61,1.48-.46,2.08.35,3.9.73,8.22.66,12.46.66,2.56,1.96,4.11,4.58,6.47,6.8,1.55,1.69,3.84,3.38,4.51,5.68.88,3.43-1.08,6.05-3.44,8.34-2.84,3.91-7.41.53-10.78,3.1-1.41,2.75-2.56,5.64-3.9,8.42-3.57,3.83-7.15,8.13-5.65,13.74-.95,1.08-2.3,2.01-2.9,3.22-.67,1.56.34,2.9,1.61,3.71-.27,1.61-1.07,2.98-1.48,4.51-.2.54-.74.95-1.28,1-.87.21-1.82.15-2.56.62-1.08.6-2.63,1.36-2.3,2.89-2.35,4.25-1.54,10.18-1.94,15.36-2.02,3.37-3.57,8.09-1.76,11.86,1.89,5.04,1.89,11.05,4.99,15.48,3.7,1.77,7.81,3.1,11.64,3.9,4.04,1.15,8.62.89,12.33,2.71,1.01.4,1.21-.54,1.75-1.09.95,0,2.16-1.47,2.9,0,.67,1.98.47,4.32,1.96,5.93,5.66,5.33,12.59,7.49,19.4,10.05,4.78.26,8.82,1.61,13.07,2.76,1.01-.53.87-2.09,1.01-3.22.67-1.62,2.22.06,3.36,0,1.15.52,2.5,1.21,3.71,1.13.4-1.08.6-1.61.47-2.9.14-.8-.87-1.61-.13-2.28,2.69.54,5.18,1.56,7.94,1.96.47-.95.47-2.1.47-3.24-.13-.47-.6-.95.14-1.28,2.22.19,3.57.87,5.86.92.68-4.71-3.03-8.01-5.86-11.44-.14-2.21-2.02-4.11-3.84-5.19-5.05-1.61-10.04-3.15-14.75-5.53-2.76-2.13-6.53-2.69-8.68-5.64-.8-1.88.06-3.84.47-5.66,2.49-2.08,3.17-4.97,4.85-7.41,5.45-1.68,10.92-3.24,15.69-6.67,3.1-2.9,3.77-6.87,5-10.64,1.95.13,3.57-.75,4.71-2.29,1.27-3.11,2.56-6.2,3.83-9.36,1.35-1.88,3.04-1.96,4.39-3.85,1.61-1.33-.41-2.95.47-4.57.54-.88,1.41-1.47,2.42-1.41,11.45-4.66,21.15-15.57,28.16-25.87.54,1.22-.21,2.69-.81,3.85-3.44,3.35-3.64,8.48-2.9,13.13,1.34,6.19,1.95,12.85,6.94,17.44,1.28.67,2.83,1.08,4.38.67,1.82,3.15,4.98,5.12,8.68,4.84,7.36-2.15,13.48-7.33,18.6-13.73.68-1.89,1.62-3.65,1.49-5.87h0ZM270.79,151.94h.47c2.36,2.02,4.86,3.62,7.28,5.52-.8.6-2.01.06-2.9.47-1.41-.06-3.09.94-4.23-.34-1.69-1.68-.89-3.56-.61-5.64h0ZM271.6,161.63c4.44-2.36,10.1-1.83,14.55.14,1.14,1.01,2.69,1.69,3.22,3.1-1.48-.68-2.97-1.29-4.38-1.97-3.5-1.21-8.48-1.27-11.64.68l-4.99,4.64h-.81c-1-2.74,2.02-4.91,4.05-6.59h0ZM248.63,129.63c0,.96-1.08,1.36-1.82,1.63-1.81-3.25-5.32-5.47-7.87-8.42l.14-.82c3.98,1.35,6.19,4.77,9.56,7.61h0ZM231.45,163.58c-2.63.4-2.15,3.57-2.9,5.45-.14,1.56-.94,2.77-1.14,4.26-.6,1.27-.87,2.68-1.41,4.03-1,1.81-1.68,4.59-4.37,4.39-2.77.33-5.6.46-7.95,1.74-1.21.08-.95-1.61-1.41-2.42-.34-1.74-1.35-3.22-1.62-4.99-.94-4.35-4.51-7.65-5.65-11.96-1.15-2.9-2.23-5.88-3.57-8.77-.41-3.71-3.44-6.54-3.24-10.3,3.1-1.63,7.21-.82,10.51-1.97,2.42-.93,1.95,2.37,2.77,3.59,1.34,5.64,2.28,11.36,4.97,16.48.6.48,1.09,1.28,1.96.97,2.15-2.1,1.69-5.27,2.43-7.96.73-5.17,1.75-10.29,2.76-15.49,2.89-1.69,7-1.41,10.5-2.09.6-.12,1.08-.47,1.75-.32,2.7,4.31,3.37,9.34,5.05,14.06.4,1.09,1.01,2.42,2.22,2.9,1.08.28,1.35-1.01,1.62-1.61.47-6.21,1.88-11.99,1.27-18.6,2.43-1.88,5.12-3.3,7.61-4.97,1.81-.6,1.21,1.48,1.81,2.21.28,2.55-.46,4.99-.66,7.13-.81,7.29-3.5,13.88-4.51,20.83-1.69,5.57-1.89,11.11-4.72,16.15-4.59,1.09-8.83,3.1-13.54,3.91.81-4.92.87-9.51,1.28-14.55-.13-.88-.94-1.76-1.81-2.1h0ZM219.53,198.46c5.52-4.38,7.34-10.3,10.98-15.49.47-.13.88.07,1.15.47-2.7,6.14-6.94,11.6-11.65,16.84-.27.27-.74.08-1.14.14-.54-.54.27-1.35.67-1.96h0ZM218.25,192.21c-.81,1.21-1.62,2.76-2.97,3.5.74-3.04,2.7-5.93,4.25-8.88.87-.95.06-3.38,2.22-2.9-.33,2.9-2.49,5.44-3.5,8.28h0ZM213.4,186.35c-1.95,3.91-3.16,8.22-5.86,11.65h-.14c.88-3.91,2.7-7.74,4.05-11.65.4-.93,1.41-.2,1.95,0h0ZM187.54,125.27c-.34.52-1.37.34-1.77.14-1.21-4.71-.99-9.04-.52-14.03.68-.21.85.32.95.88l.11,10.16c.54.95,1.5,1.49,1.24,2.85h0ZM196.09,149.85c.4.8.54,1.74.94,2.56,1.89,6.74,5.65,12.73,4.85,20.54,0,.56-.54.88-.8,1.28l-.34-.32c1.95-9.23-4.25-16.38-6.47-24.53-1.41-2.29-1.68-5.04-2.89-7.47-2.42-4.58-4.78-9.17-7.61-13.54l.34-.47c6.61,5.8,8.15,14.55,11.99,21.96h0ZM195.76,123.5c.87.55.94,1.89.67,2.89-.74.34-1.61.69-2.42.34-3.71-3.56.4-9.36-2.3-13.39.6-.28,1.55-.2,1.75.6,1.49,2.9-1.15,7.46,2.3,9.55h0ZM204.65,127.89c-2.29,0-2.09-2.21-2.77-3.78.34-2.08-.67-4.31-.8-6.25,2.16.26,1.21,2.95,2.09,4.37.81.74,2.02.95,2.43,2.22.27,1.14.46,2.69-.94,3.44h0ZM209.83,139.94c-.41.28-.88.95-1.62.68-.46-.6-.4-1.41-.66-2.09-.89-2.35-2.5-4.63-2.76-7.13h.67c1.55,2.82,3.5,5.52,4.38,8.54h0ZM201.28,141.29c-.54.13-1.01.4-1.61.27-.54-3.76-2.76-7.14-3.1-10.77.87-.14,1.15.86,1.48,1.41,1.34,2.9,2.5,5.92,3.24,9.09h0ZM200.13,195.25c1.41-3.19,1.75-6.74,2.55-10.19.47-2.22.27-4.71,1.49-6.59,1.55-2.24,1.14-4.92.94-7.61l.34-.47c1.14,2.01.54,4.92.47,7.26-2.69,3.78-1.28,9.23-3.04,13.4-.6,1.35-1.25,2.66-1.5,4.15-.69,1.21-1.01,2.55-1.76,3.7-.14.6-.5,1.1-1.11,1.51h-.34c-.34-1.96,1.76-3.24,1.95-5.17h0ZM217.44,116.71c1.82,1.07,1.41,3.9,3.85,4.71.4.21,1-.2,1.14-.66.07-1.22-.14-2.58.13-3.7.88.93,1.34,2.28,1.83,3.56.46,1.42,0,2.83-1.49,3.37-2.5.67-4.98-3.1-6.27.8-1.14,1.34-3.02,1.49-4.71,1.14-1.35-.65-1.61-2.02-1.48-3.44,1.62,1.09,3.43,1.61,5.18.69,2.36-1.61.2-4.51,1.82-6.47h0ZM231.32,113.81c1.55-.26,3.04,3.37,3.91.82.2-2.23-2.29-3.5-1.96-5.54,1.76,2.37,5.6,4.26,3.37,7.62-.87,1.75-3.09-.26-3.57,1.95.35,1.54-1.21,2.5-2.21,3.37-.74.06-1.42.61-2.1.2-.67-1.95-1.88-3.71-2.76-5.52.67-.41,1.41.55,1.75,1.15.06,1.01.95,1.81,1.82,2.42.88.28,1.49-.54,1.89-1.14.87-2.23-3.44-3.77-.14-5.33h0ZM243.58,138.53c-2.35-4.59-5.45-9.23-9.5-13.25.88-1.42,1.95,1,3.04,1.27l1.35,1.62,5.32,5.86c-.81,1.41.13,3.1-.21,4.51h0ZM235.36,134.95c-.2.21-.14.88-.68.67-1.07-.2-1.27-1.69-2.08-2.42l-5.46-5.86c0-.67.94-.67,1.41-.26,2.83,1.94,5.12,5.12,6.81,7.87h0ZM227.61,136.71c-.53.6-1.75.27-2.28.33-1.3-2.1-2.38-3.8-3.24-6.25,2.35,1.48,3.44,4.16,5.52,5.92h0ZM220.48,142.56c0,1.89-.55,2.98-.61,4.87-.54.12-.4-.55-.54-.8-.34-2.24-1.89-3.99-2.1-6.34-.46-.61-.4-1.47-.61-2.23-.94-2.63-1.95-5.18-3.76-7.46,0-.28.06-.81.54-.6,3.22,3.82,5.72,7.93,7.08,12.57h0ZM251.66,128.49c-2.42-1.95-5.26-3.58-7.07-6.26,3.03.74,5.38,3.04,7.74,5.32-.06.4-.2.86-.67.94h0ZM238.93,107.01c.27,1.88,1.28,3.44,1.61,5.33-.34.2-.54.81-1.01.66.27-2.69-2.42-4.17-3.84-6.14,0-.61-.13-1.22.47-1.47,1.36-.47,2.3.66,2.76,1.61h0ZM156.48,99.73c-.61.28-1.41.08-2.08.14-.54-.66-1.22-.87-1.95-1.06-.95.72-2.1-.22-3.24.12-.47-.34-.21-1.01-.81-1.29-.95.2-1.55.35-2.43.35-2.15-1.08-3.16-5.26-6.46-4.25-1.42-1.82-3.77-2.22-5.66-3.35-1.89-.82-5.46.47-5.66-2.3-1.41-.55-3.24-.2-4.51-.95-.07-.74.8-.66,1.15-1.27-1.29-2.03-3.65-1.97-5.53-2.78-.07-.27-.2-.52-.14-.8.47-.93,1.96-.12,2.1-1.29-.89-1.41-3.91-1.01-2.77-3.55-.33-.4-.74-1.02-.33-1.49,1.82-1.29-.68-2.56.2-4.03.13-1.29-2.35-1.89-1.01-3.26-.13-1.21-2.03-1.13-2.09-2.54.88-.4,2.5.2,2.77-1.15-.34-.41-.95-.66-.34-1.15,1.89-1.01,3.98,1.41,5.32-.81.67-2.21-1.62-3.22-1.28-5.32-2.63-3.38-5.39-6.61-5.19-11.2-1.89-3.83.74-7.4,1.95-10.76,5.05-4.04,10.38,1.13,15.49,1.74,1.68.68,3.5-.4,5.04.68,2.9.2,6.14.33,8.7-.68,2.42.2,3.83-1.82,6.33-1.47,2.09-1.62,5.12-.82,7.41-1.88,4.64-1.36,9.02-2.09,13.94-2.29,8.89-.54,16.97-4.31,26.47-2.42,2.5.8,5.52.45,8.29.65,1.01.55,2.43.15,3.37.95,2.56.81,5.25,1.08,7.95,1.61,4.45.61,7.74-2.7,11.45-4.39,4.39-2.42,8.35-6.39,13.87-5.44l2.76,2.1c.88,3.34,1.21,6.85.34,10.28-.06,2.97-1.14,5.59-.94,8.42.4,1.96,2.02-.74,2.42,1.28,1.08.95,3.51,0,3.71,2.18,1.68.52,2.49-1.09,4.18-.56.26.62.05,2.38,1.27,1.49.48-.4,1.01-.6,1.61-.47.41.21.34.62.34.95-.34.27-.54.67-.47,1.13.67.95,1.82-1.13,2.29.48.47.73-.34,1.94.6,2.42,1.15.08,2.36-.12,3.43.2.55.6-2.96,2.83.14,2.7.54,1.35-.6,2.76.46,4.04,0,.27.08.95.48,1.16,1.21-.29,2.76-.81,3.9-.35.33,1.56-1.42.75-1.95,1.61-.82-.06-1.49.14-2.1.55.2,1.01,1.08,1.9-.14,2.7-.06.32,0,.6.28.8h1.95c.53.93-.89.87-1.29,1.33-1.07.35-2.09.68-2.9,1.62-.27,1.01,1.15.67,1.15,1.42-1.48.62-3.3.47-4.57,1.64-.14.65.4,1.26.2,1.81-.81,1.13-2.16.93-2.9,2.21.88.89,2.42-1.15,2.9.47-1.29,1.22-3.24,1.54-4.71,2.75.05.35.67.75,1,.35.87-.75,2.35-.55,3.23-.81.08,1.95-2.69,1.47-4.03,2.27-1.56,1.36-4.99,1.63-4.59,4.19-2.22,1.82-4.71,2.97-6.94,5,.14,1.01,1.48,1.13,1.61,2.13-1.07,1.21-2.15-.4-3.57.14-1,2.84-4.04,1.28-6.12,1.95-1.49.4-3.91-.32-4.51,1.29.33.26.47.52.47.93-2.36,1.36-5.18,1.57-7.61,2.78-1.21.52-1.01-.95-1.61-1.42-.34-2.16-.93-4.41-2.3-6.15-.74-1.1-1.74-1.73-2.55-2.14-.67,1.35,1.75,1.89,2.15,3.1,1.34,3.1,1.55,7.01-.2,10.03-.33,1.49,1.29,2.57,1.49,4.04.2,1.49-.2,2.89-1.49,3.7-5.05,1.29-7.61-4.71-12.25-4.83-1.56-.48-2.97-1.29-4.51-1.61-.61-.15-1.15.06-1.35.61,2.09,3.51,6.87,1.89,9.69,4.03.54.48,1.22.69,1.49,1.35.46.66-.27,1.27-.48,1.88-2.76,2.63-6.8,1.96-10.51,2.16-2.22-.6-4.04-2.01-6-3.1-1.88-1.75-3.63-4.39-6.33-3.71-.94,1.01-2.35.08-3.51.14-1.47-.82-1.54-2.63-2.15-3.71.21-.62.14-1.14-.26-1.62l-2.63,2.44c-2.02.46-3.98.26-5.46-1.27-2.28.73-3.9-1.42-6.19-.68-1.61.61-3.5.74-5.32,1.14-.28-.2-.89-.26-.61-.82.66-.53,1.27-1.33.94-2.07-.28-.75-1.08-.67-1.75-.67-.54.67-1.54.8-2.28.46-1.36-1.26-2.63.55-4.18.21-1.48-.06-1.88-2.16-3.57-1.15h0ZM178.78,110.36c1.95,2.64.4,6.49.67,9.43.27.16.74.56,1.08.16,2.42-1.57,1.41-3.98,2.29-6.14,1.41.62.67,2.69.67,3.85-.94,1.61.07,4.57-2.15,5.64-.46.95-1.61.95-2.42.68-1.01-1.34-2.1-3.17-1.42-5.2,1.68-2.41.47-5.78,1.28-8.42h0ZM168.95,109.56c.2-.4.6-.27.94-.27.74,1.88.33,4.37,1.15,6.26.41.48.67,1.41,1.42.81.26-.89.86-1.61.66-2.76.14-1.83-.4-4.05,1.15-5.12.26.15.6.15.8.47v9.02c-.67,1.21-.47,3.1-2.29,3.44-1.69-.33-3.24.15-4.18-1.62-1.01-3.49.55-6.65.34-10.23h0ZM162.82,108.96c.21.13.61.13.81.48.6,2.29-.68,4.37.6,6.33.06.53.13,1.21.81,1.41.6-.2,1.54-.52,1.61.48l-.13,2.95c-1.54,0-3.03.55-4.51.15-.88-2.58-.95-5.4-.21-7.97.07-1.34-.33-3.23,1.01-3.84h0ZM157.43,117.86c.94-1.82,1.21-3.84,1.35-6.01.34-.73.95,0,1.28.34-.33,2.43-.67,4.86-1.01,7.28l-2.42.12c-.47-.67.8-1.08.8-1.74h0ZM124.15,128.36c6.86-1.8,14.35-.67,19.27-6.67.87-.93,2.36-.88,3.5-.6.88.89,2.35.48,3.43.8.41.48,1.62-.32,1.62.6-1.88,1.42-4.11.69-6.33,1.36-3.57,1.14-7.21,2.08-10.64,3.5-1.29.74-3.1.26-4.25,1.35-1.81.33-3.23,1.69-4.85,2.57-1.96,1.14-3.97,2.15-5.79,3.69h-.95c.75-2.68,1.96-5.65,4.98-6.59h0ZM116.62,135.85l.4.87v1.01c-.92,1.77-3.24,5.72-4.39,7.28-.96-2.47,2.43-7.33,3.99-9.16h0ZM110.93,148.12c-.14,1.15-.59,3.34-.99,4.29-.34.14-.68-.26-.88-.46-.06-1.16.51-3.76,1.87-3.83h0ZM98.97,160.82c-.08-1.54,1.06-2.83,2.41-3.56.14,1.28-1.41,2.5-1.82,3.91-.27.06-.47-.14-.6-.35h0ZM101.39,173.75c-1.07-.66-.8-2.07-1.48-3.09-.41-1.43-1.29-3.1-.48-4.66l.61.14c3.37,4.37,7.88,7.82,12.8,9.37-3.1.6-6.2,1.33-8.42-1.61-1.02,0-2.23-1.61-3.04-.15h0ZM117.35,210.47c-1.29.33-2.76.13-3.84-.48-4.72-7.12-6.61-15.42-9.43-23.31-1.62-1.46-.81-4.04-1.76-5.78,0-1.56-.21-3.24.8-4.38,2.09-.14.6,2.35,1.29,3.37,1.81,9.48,5.86,18.05,9.09,27,1.34,2.5,4.38.74,6.26,1.95.6.07,1.41-.26,1.82.34-.95,1.21-2.83.88-4.24,1.28h0ZM128.67,207.23h-.61c.28-1.75,1.35-3.3,2.56-4.52l.47.47c-.47,1.49-.74,3.17-2.43,4.04h0ZM122.68,177.81c3.1.2,6.32,0,8.75,1.73,2.49,4.31,8.22,7.76,5.99,13.62-.4,2.36.95,5.6-1.14,7.13-2.02.14-4.72.67-5.66-1.82-1.95-2.9-1.62-7.89-6.13-8.53-.47.46-.66,1.21-.34,1.74,1.49,1,2.7,2.62,2.29,4.38-.6,1.49-2.21.93-3.23.8-.27-.27-.68-.08-1.02-.13l-.6.82c.6,1.72,1.62,3.29,2.43,4.96,1.01-.33,1.47-1.47,1.75-2.43.67-.52,1.35-1.74,2.29-1.27,1.09,2.02-.87,4.06-1.82,5.78-.95,1.5-3.03.69-4.37.69-.54-.34-.61-.95-.82-1.5-.68-1.41-2.22-2.5-2.09-4.31-.54-.94-1.41-1.69-2.55-1.49-.55-.2-.27-.74-.35-1.14,1.16-2.57,3.78-2.97,6.34-2.89,1.28-1.29-.53-3.02.27-4.72.14-2.21,2.56-2.62,3.57-4.03-3.1-1.89-5.87,1.53-9.02.8-.61-1.49,1.21-1.89,2.09-2.7,1.82-1.21,4.77-.2,5.98-2.16.15-1.01-1.06-.94-1.61-1.42-3.16-.32-5.92.35-8.28,1.97h-.48c.2-1.97,2.63-2.17,3.91-3.24,1.28-.27,2.7-.21,3.84-.67h0ZM126.58,167.97c-.81,2.34-1.75,5.52-4.51,6.25-5.4.8-10.17-.87-14.08-4.17-2.7-1.83-5.46-3.71-7.61-6.47v-.68c1.61-1.94,4.85-3.76,4.24-6.59-.28-1.22-1.69-1.15-2.15-2.29-.14-2.23.2-4.78,1.47-6.47.75-.47,2.23-1.29,2.76.2-1.68,4.91,1.08,9.22,4.65,12.61,5.19,3.76,12.19,6.38,18.12,3.36l.68.2c-.47,1.76-2.9,2.16-3.57,4.05h0ZM174.24,162.26c-.74-1.61-2.63-5.12-2.13-5.86,1.08.21,1.92,2.39,2.46,3.19.47,1.28,2.32,3.04,1.71,4.51-.6,0-1.71-1.25-2.03-1.85h0ZM175.55,180.55c-1.02-1.94.33-3.71,1.14-5.32.47-1.82-.41-4.17.81-5.64,2.22-.68,5.32,2.21,6.8-.68.68-5.85-2.22-10.24-5.66-14.42-3.63-3.63-9.29-3.84-14.21-2.9-8.97,1.48-18.6.75-25.4-4.84-2.08-1.14-4.17-2.76-5.65-4.51-3.3-1.08-3.91,3.59-6.47,4.85,1.48,2.84,4.38,4.26,7.28,4.87,1.22.66.53,1.93.13,2.9-1.88,2.14-3.36,5.12-6.13,6.13-.47-.55.34-.95.47-1.41,1.35-2.17,3.9-4.05,3.57-6.69-.54-.52-1.42-.81-2.09-.47-2.5,1.56-2.6,4.86-4.99,6.51-.6-.47.08-1.25.28-1.79,1-2.03,2.26-3.29,3.1-5.66-1.15-1.01-2.23-2.7-3.9-2.75-3.11,2.75-3.37,6.94-5.2,10.36-.94.81-.67,3.1-2.42,2.7-.8-.55-.06-1.16-.27-1.89,2.63-4.18,4.04-8.74,6.6-12.94,2.35-2.56,5.73-3.42,7.62-6.66.74-.81,1.74-.55,2.55-.15,6.47,4.25,14.41-.56,21.7,1.16.13.13.4.33.33.6-5.04,1.07-11.32-.14-16.16,1.62-.61-.08-1.21-.2-1.82-.15-.34.27-.68.75-.34,1.16,1.01,1.54,3.04,1.41,4.38,2.41h22.3c1.28-.4,1.01-1.74,1.49-2.62-1.55-2.43-4.45-2.7-7.15-2.22l-.27-.36c1.48-1.54,4.24.48,5.67-1.82.33-1.81-.55-3.1-1.15-4.51-2.96-1.82-7.27-2.28-10.72-1.08-1.87-.06-3.49.6-5.45.6-3.57,1.23-8.29.55-11.79-.6-6.67-.86-10.57,4.98-15.55,8.21-1.69,1.28-2.35,2.98-3.03,4.67-1.48,3.16-2.77,6.33-3.58,9.68h-.66c.41-1.81.41-4.24,1.27-6.13,1.49-7.06,8.42-12.66,14.42-16.76,2.36-.08,4.85-1.34,7.13-.21,4.99,0,9.91.21,14.69-.8,2.83-.53,6-.88,8.89-.8.81-.33.74-1.29.47-1.89-1.75-3.16-5.12-2.7-8.07-2.42-6.07,1.34-11.79,4.04-18.6,3.22.06-.8,1.08-.6,1.61-.8,5.26-.47,10.04-2.15,14.89-3.57,2.35-.54,4.05.14,6.13-1.01.41-.86-.81-1.21-.33-1.88,1.75-1.42,4.44-.67,6.47-1.36,6.46,5.07,14.14,10.59,15.69,18.8.53,1.54.81,3.24,1.61,4.64.74,6.53,5.99,11.12,7.74,17.17,1.89,3.38.07,8.62,3.43,11.12,1.41.34,2.43-1.08,3.04-2.09,3.5-10.36-6.34-17.24-8.22-26.31-1.22-6.89-5.19-12.74-9.7-18.13-.47-.4-.88-.81-.81-1.41,2.15-.28,3.43,2.54,5.18,3.83,2.96,3.3,3.44,7.69,5.66,11.32.81,4.84,2.63,9.22,5.45,13.26,3.51,5.53,6.21,12.2,4.51,19.07-.54,1.76-2.28,3.71-.94,5.67,0,.67.48,1.13.94,1.61,1.62.61,2.22-1.08,3.44-1.29-.34,4.05-1.75,8.1-3.1,11.93-.95,2.09-2.23,4.05-3.37,5.99-.34.34-.88.13-1.29.21.6-2.02,1.76-4.31,2.9-6.33.67-2.58,2.7-5.2,1.41-7.96-1.07-1.27-1.81-2.88-3.36-3.85-5.39,2.7-2.7,9.63-6.6,13.41-.54,1.29-.95,2.76-2.16,3.57-.26-.15-.06-.41-.13-.68.73-1.2.54-2.83,1.28-4.04.8-2.43,3.1-4.25,2.9-7.07.2-2.36.67-4.59,2.29-6.32.47-2.58-1.82-4.26-3.37-5.67-.61-.46-1.28-.2-1.82.15-2.22,2.42-2.5,6.2-1.61,9.23-1.08,3.34-3.65,6.12-4.51,9.55-.75,1.69-.35,4.05-2.09,5.2-.54-.61-.34-1.76-.2-2.42,1.94-3.59,2.63-7.7,5.05-11.06-.2-3.77,1-7.48.8-11.3-.6-.48-1.01-1.22-1.95-.96-1.49,1.61-.47,4.31-1.49,6.13.2,5.73-5.65,9.29-7.41,14.41-.34.4-.8.68-1.28.8-.46-1,.48-2.22.95-3.22,1.82-3.02,4.85-5.6,6-8.9h0ZM166.52,184.13c1.55-1.81,3.7-2.9,5.66-4.24h.61c-.81,3.03-4.11,3.35-6.14,5.17-.27-.2-.06-.66-.13-.93h0ZM158.43,262.81c-2.21.19-4.23-1.02-6.46-1.29-1.75-.95-3.77-1.29-5.52-2.22-2.15-1.01-3.43-3.24-3.56-5.52-1.21-2.97-1.49-6.34-2.22-9.58-1.89-6.13,3.16-10.92,2.56-16.97.73-1.88-.74-3.71,0-5.45,1.41-1.35,2.15-4.11,4.72-2.89.33.25.94.4,1.14.93.2,2.31-2.23.33-3.1,1.61l1.15,1.29c-.28.88-1.15.68-1.62,1.28-.13,1.42.28,3.04-.33,4.24.26.68,1.07.4,1.27.94-.33,1.01-1.41,2.28-.33,3.24.27.74-.33,1.14-.81,1.62-.87,0-1.21,1-1.61,1.61.14.72-.27,1.74.34,2.29,1.15.32.74-1.61,1.81-1,.8.86-.34,2.61.95,3.08,1.21.06,2.08-.66,3.22-.8.28,1.35-2.56,3.64.34,4.36.07.15.35.21.35.49-.95.53-1.76-.19-2.43-.68-.47-.67-1.01-1.53-1.96-.93-.47.61-1.68.06-1.61,1.12.68,1.17,2.5.35,2.76,1.98.2,1.06-.74,2.07-.2,2.88.4-.62,1.22-.87,1.96-1.01.68.39,1.82-.2,2.29.66.21,1.09-1.08,2.38.26,3.11,1.09.19,1.76-.72,2.3-1.49-.06-.8.88-.67,1.28-1.14,2.09,0,3.5,1.75,4.84,3.11,1.01-.29.61-2.03,1.83-1.83.61,1.21,2.63.81,2.08,2.63l.6,1.94c-.2,1.02-.66,1.89-1.41,2.69-1.48-.06-3.63-1.33-4.71.55-.54,1.87,1.15,3.5-.14,5.14h0ZM164.57,263.61c-1.22,0-2.29-.55-3.37-.79-.74-.97-1.55-2.1-1.01-3.39.2-.68,1.01-1.08,1.62-.68,1.48.47,2.16,2.08,3.24,3.1.4.61.06,1.48-.47,1.76h0ZM169.76,263.14c-1.69.27-3.31-.13-3.91-1.75-.14-1.01-1.01-1.95-.47-3.09.87-1.76,3.09-.2,3.83,1.14.61,1.08,1.29,2.5.55,3.71h0ZM203.7,282.53c-2.35-.34-4.11-1.81-6.33-2.43-1.55-.93-1.14-2.89-.94-4.36.68-1.02,1.69-.67,2.56-.27,2.22,1.4,4.38,3.71,5.32,6.12,0,.41-.13.89-.61.94h0ZM211.45,280.45c-2.03-.68-4.19-1.49-5.66-3.24-.8-1.42-1.35-3.7-.34-4.98,1.69-.47,2.43,1.74,3.57,2.22,1.34,1.49,2.23,3.16,3.04,4.83.13.56-.14,1.02-.6,1.16h0ZM219.06,266.57c3.57-.67,6.13,3.24,7.54,5.79.21.7-.26,1.21-.8,1.5-2.43-.88-5.66-.75-6.94-3.23.07-1.36-.88-2.89.2-4.05h0ZM219.87,276.54l-.68.53-5.78-2.63c-1.09-1.69-1.42-4.03-1.01-6,2.69-.13,4.58,2.5,6.13,4.38.81,1.07,1.21,2.35,1.35,3.71h0ZM216.1,225.35c-2.56,2.41-5.46,4.24-8.9,4.85-1.27.6-2.69,2.48-4.16,1.27-1.36.41-2.1-.61-2.43-1.61-.47-1.49.94-1.95,1.75-2.63,1.14-1.21,5.12.21,3.77-2.69h-9.43c-.81.4-.4,1.48-.27,2.1.74,5.72-3.16,9.9-3.23,15.48-.4,3.65.21,7.68,3.5,9.58,6.06,3.76,11.91,7.86,18.92,9.22,1.49.07,2.1,1.61,2.63,2.69-.4.53-1.68.67-1.14,1.48.27.39.06.95.13,1.48-1.67,1.82-3.97.28-5.98.14-.68,1.42-.61,3.15-.61,4.84-.14.4-.27.95-.67,1.15-1.96-1.74-4.31-2.55-6.8-3.1-.88,1.48,1.34,2.56.33,4.25-2.42,1.93-5.12-.34-7.73-.34-.48.59-.41,1.47-.68,2.22-.4,1.02-1.01,1.61-1.88,2.29-4.04,1.02-6.54-3.51-10.24-4.17-2.42-1.41-5.25-2.38-7.41-4.25-.34-2.09-1.22-3.97-1.75-5.99-1.01-2.38-1.29-5.06-2.63-7.28-2.56,1.09-2.16-1.54-3.02-2.69-3.85-2.34-2.43-6.85-5.53-9.56-.14-.88-.27-1.96-1.15-2.42-.54.06-1.09-.08-1.42-.48.07-.67-.07-1.29-.47-1.81-.54.11-1.01-.08-1.35-.48.61-3.77.68-7.62-1.88-10.31-.54-.2-.81.35-1.34.16-1.29-1.37.6-3.38-.81-4.52.61-3.29-1.01-5.93-.47-9.09-.27-.61-1.01-1.01-1.61-1.29,1.35-2.02-1.96-3.76.34-5.18l.46.2c2.02,2.03,3.57,5.8,6.81,6.14,5.26,1.74,10.63,3.03,15.96,4.51,3.64,1.21,6.94,1.68,10.85,2.09,7.88,1.47,16.16.65,24.44.65,1.29-.6,2.77-.72,4.19-1.13.73.06,1.47-.14,2.08.2-.61,1.21-1.47,2.34-1.14,4.03h0ZM231.99,201.1c-3.09,3.3-7.4,6.13-7.14,10.99-.4.88-.8,1.89-1.75,2.42-1.15-.07-1.89.68-2.76,1.15-2.55-.54-4.44.6-6.13,2.07-1.95-.73-4.18-.19-5.86.8-2.02.48-4.05-1-5.8.61-3.9-1.02-7.94,1.56-11.51-.93-2.76.48-5.8,1.42-8.09-.8-2.83-.09-5.93.4-8.08-1.62-2.63.14-4.71-.88-6.73-2.09-3.16.8-4.92-2.69-8.09-2.42-1.34-1.37-2.76-3.39-4.51-4.72-.47-2.22-2.36-3.9-2.96-6.13-.82-3.29,1.62-5.78,4.05-7.76h.54c-.74,1.17-1.75,2.18-2.63,3.25-.27.4-.81,1.01-.13,1.41,1.55-.14,2.62-1.28,3.83-2.22.08.27.48,0,.34.35-.47,1.61-2.22,2.69-3.03,4.16-.33.54-.53,1.22-.53,1.96,2.55,1.41,3.83-2.5,5.52-3.92.87-1.4,1.48-3.01,2.76-4.38,0-.52-.54-1.21-1.15-1.27-.47-.06-1.14.26-1.47-.34-.34-1.28,2.21-3.3-.28-3.51l-.2.15c-1.07-1.68.61-2.97.48-4.72.6-.75,1.07-2.15,2.28-2.07.48.25,1.14.12,1.29.8,0,2.08-1.42,3.76-.6,5.99,2.62,6.06,9.02,9.29,14.68,11.17,4.18,1.61,9.49.48,13.54,2.21,9.9.42,18.92,1.29,28.63.48,1.21-.4,2.62-.32,3.7-1.08,2.63-.26,4.72-2.23,7.27-1.94.8.41.74,1.32.54,1.94h0ZM261.69,170.19c-2.7,4.98-7.61,8.74-11.44,13.13-4.45,7.01-11.87,9.75-18.6,12.59-.14-2.23,2.56-3.77,3.37-5.87,1.61-2.82,3.84-5.45,4.04-8.89.74-.94,1.95-.82,2.89-1.07-1.21,3.56-3.57,6.66-5.12,10.17.49.54,1.09,1.08,1.75.6,3.7-3.62,6.54-7.88,8.09-12.59.27-.06.53-.21.81-.14-.48,2.58-1.49,4.92-2.29,7.41.14.34.47.12.67.2,7.21-6.6,9.63-16.5,6.94-25.73,0-1.68.67-3.1,1-4.71.47.6.27,1.76.81,2.43.27,3.5.07,7.15.14,10.7-.34,2.29-.88,4.59-.68,7.08.34.4.68.6,1.15.52,2.5-2.13,2.5-5.32,3.44-8.06,1.42-4.47.66-10.05,0-14.56-.81-2.36-1.41-4.86-2.76-7l.6-2.58c2.42,4.87,3.9,10.18,4.38,15.84.4,2.5-.67,4.71-.34,6.81.14.32.4.6.81.47,2.03-1.63,1.01-4.51,1.95-6.59.6-4.46-.27-8.42-1.15-12.61-.4-4.11-2.55-7.41-4.51-10.84.07-.95-.13-1.97.2-2.77,1.68,1.48,2.63,3.5,3.37,5.53,1.68,4.17,2.49,8.16,3.23,12.73.2.2.34.47.68.34,1.08-1.29.81-3.38.61-4.99-.48-6.53-2.9-12.39-7.28-17.16-1.82-.75-1.69-3.11-3.7-3.39-3.65-3.22-8.36-5.18-11.32-8.74,6.06,2.42,12.18,5.12,16.97,10.23,2.09,3.37,4.38,6.67,5.53,10.44,1.35,4.04,2.76,8.9,1.27,13.27-.4,1.88-.47,3.85-1.27,5.52-.94,4.32-2.55,8.28-4.25,12.27h0ZM291.94,199.61c-3.37,2.49-7,4.31-10.5,6.47-2.76.74-4.71-1.61-6.13-3.58-.27-2.69-.94-5.84-.2-8.42.27-.24.67-.05,1.02-.12,1.41,1.6-.14,3.83,1.27,5.52.27,2.29,2.5,4.11,4.51,4.85,1.76.06,2.23-1.76,3.58-2.44,2.43-2.28,5.53-3.29,7.61-5.98.48-.67-.13-1.35-.67-1.83-1.69.48-2.96,2.17-4.51,2.98-1.61,1.08-3.1,2.09-4.51,3.36-2.5-.27-2.55-3.17-3.57-4.86-.47-1.69-1.89-4.17-.14-5.64,1.56.73,1.35,2.74,1.76,4.16.53,1.42.81,3.1,2.28,3.78.54-1.02.61-3.1,2.43-2.77,2.15-1.01,5.58-.53,6.26-3.44-.67-.81-1.55-.52-2.22,0-2.15-.07-4.92,1.96-5.99-1.28-1.61-2.43-3.97-4.56-3.91-7.75-.27-.47-.87-.6-1.28-.32-2.28,1.61-4.84,3.22-6.46,5.64-1.88-.2-1.28-2.3-2.43-3.22-.4.12-.88.4-.95.8.28,4.31-1.07,7.53-.81,11.65-.74-.12-1.27-.87-1.61-1.48-1.08-4.97-2.7-10.25-1.82-15.62.47-.55.47-1.22.67-1.82,4.04-3.04,3.56-8.83,8.55-10.65,3.5-.93,7.53-.93,11.31-.66l.81.66c2.36,1.22,5.12,3.38,4.71,6.49,2.28,5.44,6.13,10.23,8.35,15.69,0,4.3-4.52,7.28-7.41,9.83h0Z"/>
      <path class="st1" d="M289.51,181.36c.4-.47.6-1.01.47-1.62-.74-2.54-1.82-4.92-2.09-7.61l-.94-1.62c-2.63-1.81-6.2-3.36-9.43-1.73-1.69,1.27-4.46,1.81-4.99,4.31.68.81,1.42-.15,2.09-.15.94-.47,2.7-.53,3.1.81-1.35,2.56-4.11,4.72-3.71,7.76,1.21-.2,2.09-1.36,3.03-2.23,4.84-4.93,7.61,3.56,12.46,2.08h0Z"/>
      <path class="st1" d="M162.14,207.23c-.26,1.28-.74,3.04.81,3.85,2.43,1,2.5-2.24,3.7-3.38.2-1.21.88-2.31,1.29-3.37-.08-1.83,2.01-2.97,1.94-4.58-4.79-1.21-6.6,4.11-7.75,7.47h0Z"/>
      <path class="st1" d="M282.7,184.6c1.02,1.83,2.64,3.44,3.45,5.33,3.02,1.01,6.32-.28,8.88-1.97,0-1.82-2.08-2.08-3.23-2.9-3.16-.41-5.8-1.94-8.76-2.74-.8.32-.47,1.61-.34,2.28h0Z"/>
      <path class="st1" d="M192.68,257.55s-.63.7-.25.88c.37.18.51,0,.51,0,0-.37.13-.75-.25-.88h0Z"/>
      <path class="st1" d="M164.9,196.53c-.54-.41-1.22-.56-1.95-.48-2.42,2.9-4.04,6.2-5.79,9.35-.47.77,0,1.43.47,1.98.74.19,1.21-.29,1.75-.61,1.29-2.43,2.63-4.79,3.71-7.28.34-1.14,2.02-1.61,1.82-2.95h0Z"/>
      <path class="st1" d="M188.15,256.86c-.27.34.2.96.47,1.08.47.2.94,1.01,1.49.55,0,0,.3-.87,0-1.48-.32-.63-1.96-.15-1.96-.15h0Z"/>
      <path class="st1" d="M189.62,250.53v-.66c-1.95-1.41-1.01-3.44-1.48-5.48-.81.29-1.15,1.58-2.1,1.99-.33-1.22-1.27-2.18-1.14-3.6.41-.92.94.08,1.49-.47-.07-.8.14-1.74-.2-2.43-.15-.24-.6-.91-.95-.51.47,1.61-1.68,1.72-1.48,3.22-.41.33-.67,1-1.28,1-.55-.32-.88-1-.95-1.61-.94.4-.2,1.82-.66,2.58-2.7,1.42-1.82,4.57-3.37,6.66-.27,1.41-.4,3.23.62,4.3,1.67-.46,1.07-2.5,2.62-3.35,2.36.8.88,3.76,1.28,5.66.21.19.21.67.67.47.2-.82.2-1.97,0-2.78-.47-1.8,1.48-3.09,2.22-4.62.68-.36,1.29.45,1.82.91.74-.51,1.76-1.73,2.9-1.28h0ZM182.6,250.43s-.01.22-.58-.02c-.57-.24,0-1.61,0-1.61.4-.14.74.13.81.47.13.47-.02.82-.23,1.17h0Z"/>
      <path class="st1" d="M191.31,255.75c.24.23.32.78.78.54.3-.16.08-.46.15-.78.39-1.24-1.24-.55-.94.24h0Z"/>
      <path class="st0" d="M112.4,58.84c-3.16,1.82-3.4,5.73-5.09,8.42-.53,1.28,1.42,1.57.81,2.9-.41.75-1.49,1.41-1.28,2.22.47.81,2.02.76,1.61,1.83-1.01.19-1.55,1.48-2.76,1.27-1.35-5.73-3.02-10.91-4.18-16.49-.06-.14,10.88.02,10.88-.14h0Z"/>
      <path class="st0" d="M36.18,72.37l-26.16-.04V9h125.79v23.3c-4.58,0-8.31-4.37-13.23-4.37-.07-.11.12-5.36.12-5.36l-99.21-.1v36.36h23.92l54.22,215.31,66.97-.04c1.09-.6.48-2.27,1.28-3.24,1.96,5.12,7.34,7.29,11.65,9.44-.26,2.36-.93,5.31-1.53,7.6h-88.8L36.18,72.37Z"/>
      <path class="st0" d="M297.99,287.91h-87.41c-1.29-.6-1.49-2.13-1.22-3.29.8-.52,2.09.28,3.03.68.88-.13,1.34.6,2.08.67,1.34-1.36,3.04-2.58,2.76-4.59.88-.81,1.69.35,2.63.21.94.68,2.29.49,3.37.94,1.35-1.21,2.09-2.76,2.56-4.37,1.95-.19,3.3,1.08,5.19.8,1.01-1.21,1.14-3.3,1.14-4.92l55.86.1,55.45-215.3h24.14l-.06-36.36h-99v19.88l-.35.33c-1.54-1.01-2.89-1.82-4.03-3.42-2.36-1.97-7.69,1.61-8.42-3.04-1.21-3.09-.4-6.33,0-9.57.27-1.33-.09-2.33-.61-3.36-.07-.15-.07-14.29-.07-14.29l126.3.08v63.26h-27.28l-56.04,215.57Z"/>
      <path class="st0" d="M230.98,23.42c-2.23,1.21-4.44,2.62-6.8,3.71-2.15-.14-4.59.4-6.47-.48-.4-.67.27-1.55-.68-2.02,0,0-8.8.44-12.39-.74-6.07-.2-12.67-.4-18.12.81h-12.26c-.88.33-.27,1.54-1.15,1.94-4.71,0-8.95,1.41-13.26,1.96l2.29-17.44h66.76l2.08,12.26Z"/>
      <path class="st0" d="M269.65,131.92c-1.09-.66-1.55-2.22-2.3-3.23-1.41-3.97-5.25-6.72-8.42-9.43l10.51-39.28c.8-1.53,1-3.3,2.28-4.64.48-.68,1.42-.14,1.96-.54,1.95-.67,4.04-2.15,4.51-4.31-.74-2.27-.81-5.46.94-7.27.6-1.35-.47-3.02.34-4.25-.2-.14,9.74.01,9.57,0l-19.4,72.94Z"/>
      <path class="st0" d="M131.9,120.76c-1.89.73-4.11.52-6.13.93-2.29.75-4.64,1.36-6.8,2.42l-12.46-46.66c1.41.32,2.76.93,4.04,1.61.2,1.33-2.5,1.94-1.28,3.36,2.63,2.83,5.05,5.93,7.61,8.89,1.89.61,3.71,1.21,5.8,1.29,3.57,1.21,2.36,4.98,3.77,7.27l5.46,20.89Z"/>
      <path class="st0" d="M153.12,106.34c3.44,2.01.27,5.4.6,8.08-.54,1.06-.74,2.55-2.09,2.95-2.43-.66-4.79-2.09-7.61-1.33.2-3.91,1.41-7.49,1.95-11.32.67-1.15,1.75.12,2.76,0,1.15,1.28,2.69,1.54,4.37,1.61h0Z"/>
      <path class="st0" d="M150.83,158.06c-2.69,17.17-6.33,34.21-8.75,51.25l-.28.34c-.94-.47-.27-1.87-1.01-2.63.14-1.42-.8-2.63-.6-3.84,1.08-1.21.74-3.11,1.75-4.38-.34-6.14,2.02-13.07-3.57-17.44-.8-2.35-3.1-4.44-5.31-5.53-1.29-1.69-2.16-4.15-1.29-6.13,2.83-1.08,4.92-3.98,5.19-6.93-.08-.8-.54-1.41-.68-2.1,1.82-1.94,2.3-4.57,4.38-6.33,2.89,2.36,6.87,2.5,10.16,3.71h0Z"/>
      <path class="st0" d="M251.39,198.81c-.6,2.02-1.08,4.06-1.82,5.99-.6,1.69-.67,3.64-1.27,5.32h-.34c-.34-2.08-.6-4.51-.95-6.8-.41-2.76-1.14-5.66-1.27-8.42,2.89-1.83,5.65-4.32,8.22-6.59-.41,3.5-2.09,6.86-2.57,10.5h0Z"/>
      <path class="st0" d="M216.63,255.05c-.8-.47-1.81-.27-2.62-.81-4.18-1.54-8.36-3.16-12.26-5.45-1.07-2.16-1.28-4.72-1.61-7.14,1.41-1.35,1.68-3.24,2.9-4.7,3.22-.88,6.39-1.98,9.56-3.26l4.03,21.36Z"/>
    </g>
  </g>
</svg>