<?xml version="1.0" encoding="UTF-8"?>
<svg xmlns="http://www.w3.org/2000/svg" xmlns:xlink="http://www.w3.org/1999/xlink" width="1024pt" height="1024pt" viewBox="0 0 1024 1024">
<path fill-rule="nonzero" fill="rgb(62.745667%, 0%, 0%)" fill-opacity="1" d="M 622.988281 406.515625 C 624.203125 409.4375 623.289062 414.128906 625.113281 417.171875 C 624.972656 421.273438 626.945312 424.914062 626.191406 428.910156 C 623.289062 423.867188 626.191406 417.621094 619.652344 414.601562 C 617.363281 411.828125 620.871094 409.710938 620.699219 406.980469 L 621.152344 400.722656 C 623.601562 401.195312 621.917969 404.695312 622.988281 406.515625 "/>
<path fill-rule="nonzero" fill="rgb(62.745667%, 0%, 0%)" fill-opacity="1" d="M 325.34375 309.386719 C 318.203125 313.503906 317.648438 322.324219 313.847656 328.414062 C 312.644531 331.316406 317.058594 331.953125 315.6875 334.964844 C 314.765625 336.667969 312.316406 338.15625 312.78125 339.972656 C 313.847656 341.8125 317.335938 341.699219 316.425781 344.109375 C 314.148438 344.546875 312.929688 347.445312 310.191406 346.984375 C 307.148438 334.046875 303.359375 322.324219 300.757812 309.710938 C 300.609375 309.386719 325.34375 309.765625 325.34375 309.386719 "/>
<path fill-rule="nonzero" fill="rgb(62.745667%, 0%, 0%)" fill-opacity="1" d="M 153.089844 339.964844 L 93.980469 339.878906 L 93.980469 196.757812 L 378.234375 196.757812 L 378.234375 249.421875 C 367.878906 249.421875 359.457031 239.546875 348.34375 239.546875 C 348.1875 239.285156 348.617188 227.429688 348.617188 227.429688 L 124.414062 227.210938 L 124.414062 309.386719 L 178.460938 309.386719 L 300.996094 795.941406 L 452.347656 795.847656 C 454.804688 794.503906 453.429688 790.71875 455.25 788.53125 C 459.675781 800.109375 471.832031 804.996094 481.574219 809.851562 C 480.996094 815.191406 479.480469 821.859375 478.117188 827.027344 L 277.441406 827.027344 Z M 153.089844 339.964844 "/>
<path fill-rule="nonzero" fill="rgb(62.745667%, 0%, 0%)" fill-opacity="1" d="M 744.738281 827.03125 L 547.214844 827.03125 C 544.296875 825.683594 543.84375 822.214844 544.449219 819.589844 C 546.269531 818.40625 549.179688 820.222656 551.304688 821.136719 C 553.28125 820.835938 554.339844 822.480469 556.011719 822.660156 C 559.046875 819.589844 562.878906 816.835938 562.242188 812.28125 C 564.242188 810.457031 566.058594 813.078125 568.199219 812.746094 C 570.328125 814.285156 573.363281 813.84375 575.808594 814.871094 C 578.859375 812.144531 580.53125 808.636719 581.589844 805 C 586 804.5625 589.054688 807.445312 593.308594 806.820312 C 595.585938 804.089844 595.886719 799.355469 595.886719 795.710938 L 722.125 795.9375 L 847.425781 309.390625 L 901.96875 309.390625 L 901.824219 227.214844 L 678.09375 227.214844 L 678.09375 272.132812 L 677.308594 272.871094 C 673.820312 270.585938 670.777344 268.769531 668.199219 265.132812 C 662.871094 260.679688 650.832031 268.769531 649.167969 258.253906 C 646.425781 251.261719 648.261719 243.941406 649.167969 236.632812 C 649.78125 233.628906 648.960938 231.371094 647.796875 229.046875 C 647.628906 228.707031 647.628906 196.757812 647.628906 196.757812 L 933.042969 196.9375 L 933.042969 339.882812 L 871.382812 339.882812 Z M 744.738281 827.03125 "/>
<path fill-rule="nonzero" fill="rgb(62.745667%, 0%, 0%)" fill-opacity="1" d="M 593.308594 229.347656 C 588.273438 232.078125 583.265625 235.265625 577.9375 237.722656 C 573.070312 237.410156 567.578125 238.636719 563.320312 236.632812 C 562.410156 235.121094 563.929688 233.128906 561.785156 232.078125 C 561.785156 232.078125 541.90625 233.082031 533.796875 230.414062 C 520.082031 229.960938 505.171875 229.507812 492.855469 232.242188 L 465.152344 232.242188 C 463.175781 232.996094 464.546875 235.726562 462.546875 236.632812 C 451.894531 236.632812 442.316406 239.8125 432.574219 241.066406 L 437.742188 201.644531 L 588.601562 201.644531 Z M 593.308594 229.347656 "/>
<path fill-rule="nonzero" fill="rgb(62.745667%, 0%, 0%)" fill-opacity="1" d="M 680.683594 474.542969 C 678.226562 473.046875 677.1875 469.523438 675.492188 467.238281 C 672.308594 458.261719 663.625 452.042969 656.472656 445.933594 L 680.230469 357.175781 C 682.050781 353.710938 682.503906 349.714844 685.386719 346.699219 C 686.472656 345.15625 688.59375 346.386719 689.808594 345.476562 C 694.210938 343.96875 698.945312 340.605469 700.003906 335.730469 C 698.335938 330.589844 698.164062 323.398438 702.132812 319.304688 C 703.5 316.246094 701.074219 312.472656 702.894531 309.707031 C 702.441406 309.386719 724.894531 309.742188 724.515625 309.707031 Z M 680.683594 474.542969 "/>
<path fill-rule="nonzero" fill="rgb(62.745667%, 0%, 0%)" fill-opacity="1" d="M 369.410156 449.308594 C 365.140625 450.949219 360.117188 450.488281 355.558594 451.402344 C 350.375 453.085938 345.070312 454.476562 340.179688 456.875 L 312.027344 351.441406 C 315.214844 352.167969 318.257812 353.539062 321.15625 355.082031 C 321.609375 358.09375 315.515625 359.457031 318.257812 362.675781 C 324.210938 369.074219 329.679688 376.078125 335.453125 382.757812 C 339.726562 384.128906 343.832031 385.480469 348.558594 385.675781 C 356.628906 388.40625 353.890625 396.929688 357.074219 402.101562 Z M 369.410156 449.308594 "/>
<path fill-rule="nonzero" fill="rgb(62.745667%, 0%, 0%)" fill-opacity="1" d="M 417.351562 416.71875 C 425.125 421.269531 417.964844 428.914062 418.71875 434.988281 C 417.5 437.390625 417.046875 440.753906 414.003906 441.660156 C 408.523438 440.160156 403.1875 436.9375 396.808594 438.65625 C 397.261719 429.824219 399.992188 421.722656 401.222656 413.070312 C 402.726562 410.46875 405.183594 413.34375 407.46875 413.070312 C 410.058594 415.953125 413.554688 416.546875 417.351562 416.71875 "/>
<path fill-rule="nonzero" fill="rgb(62.745667%, 0%, 0%)" fill-opacity="1" d="M 412.171875 533.613281 C 406.097656 572.410156 397.867188 610.914062 392.40625 649.421875 L 391.78125 650.203125 C 389.648438 649.136719 391.167969 645.964844 389.488281 644.261719 C 389.800781 641.046875 387.671875 638.316406 388.125 635.578125 C 390.5625 632.847656 389.800781 628.558594 392.078125 625.6875 C 391.3125 611.820312 396.640625 596.15625 384.019531 586.265625 C 382.203125 580.960938 377.015625 576.226562 372.015625 573.773438 C 369.097656 569.964844 367.128906 564.382812 369.097656 559.929688 C 375.503906 557.5 380.210938 550.941406 380.832031 544.265625 C 380.660156 542.449219 379.605469 541.085938 379.300781 539.53125 C 383.410156 535.136719 384.488281 529.199219 389.203125 525.234375 C 395.734375 530.5625 404.730469 530.882812 412.171875 533.613281 "/>
<path fill-rule="nonzero" fill="rgb(62.745667%, 0%, 0%)" fill-opacity="1" d="M 639.421875 625.6875 C 638.054688 630.265625 636.984375 634.859375 635.304688 639.226562 C 633.945312 643.054688 633.800781 647.445312 632.433594 651.242188 L 631.664062 651.242188 C 630.898438 646.539062 630.304688 641.046875 629.523438 635.882812 C 628.605469 629.652344 626.941406 623.09375 626.65625 616.859375 C 633.1875 612.730469 639.421875 607.089844 645.222656 601.960938 C 644.300781 609.859375 640.5 617.472656 639.421875 625.6875 "/>
<path fill-rule="nonzero" fill="rgb(62.745667%, 0%, 0%)" fill-opacity="1" d="M 560.871094 752.789062 C 559.050781 751.726562 556.773438 752.1875 554.957031 750.949219 C 545.515625 747.460938 536.070312 743.8125 527.242188 738.644531 C 524.824219 733.753906 524.359375 727.976562 523.597656 722.5 C 526.78125 719.445312 527.402344 715.183594 530.160156 711.875 C 537.445312 709.875 544.59375 707.40625 551.753906 704.515625 Z M 560.871094 752.789062 "/>
</svg>
