<?xml version="1.0" encoding="UTF-8"?>
<svg xmlns="http://www.w3.org/2000/svg" xmlns:xlink="http://www.w3.org/1999/xlink" width="1024pt" height="1024pt" viewBox="0 0 1024 1024">
<path fill-rule="nonzero" fill="rgb(100%, 100%, 100%)" fill-opacity="1" d="M 481.574219 809.851562 C 481.574219 809.851562 508.453125 823.875 547.214844 827.027344 C 585.976562 830.183594 731.296875 797.5 731.296875 797.5 L 853.273438 316.601562 L 910.46875 314.265625 L 906.964844 216.21875 L 670.601562 217.96875 L 647.796875 229.046875 C 647.796875 229.046875 643.171875 215.050781 635.585938 213.300781 C 627.996094 211.550781 614.0625 215.628906 593.308594 229.347656 C 571.386719 222.640625 476.257812 218.554688 476.257812 218.554688 L 432.574219 241.066406 C 432.574219 241.066406 390.519531 257.527344 378.234375 249.421875 C 365.953125 241.316406 344.359375 217.96875 344.359375 217.96875 L 118.5 217.386719 L 117.332031 317.769531 L 166.941406 318.9375 L 257.984375 666.769531 L 292.417969 806.839844 Z M 481.574219 809.851562 "/>
</svg>
