<?xml version="1.0" encoding="UTF-8"?>
<svg xmlns="http://www.w3.org/2000/svg" xmlns:xlink="http://www.w3.org/1999/xlink" width="1024pt" height="1024pt" viewBox="0 0 1024 1024">
<path fill-rule="nonzero" fill="rgb(13.725281%, 12.156677%, 12.548828%)" fill-opacity="1" d="M 619.316406 234.542969 C 618.285156 239.703125 612.5 239.816406 608.996094 242.566406 C 601.671875 249.75 587.058594 251.714844 587.058594 264.042969 C 586.453125 265.726562 583.410156 266.949219 584.941406 269.222656 C 586.765625 269.835938 586 272.132812 585.695312 273.152344 C 584.636719 274.238281 583.265625 275.136719 583.871094 276.835938 C 587.058594 280.332031 581.59375 283.707031 582.820312 288.261719 C 579.777344 290.683594 578.078125 294.175781 573.980469 294.355469 C 571.984375 293.449219 569.867188 293.722656 568.496094 295.851562 C 568.792969 298.003906 566.203125 300.90625 569.246094 302.390625 C 570.03125 302.730469 571.539062 301.8125 571.398438 303.183594 C 570.613281 305.460938 567.121094 307.101562 567.429688 310.175781 L 567.742188 317.476562 L 570.332031 317.476562 C 576.113281 313.660156 581.59375 308.925781 586.765625 303.917969 C 589.808594 303.304688 593.605469 302.851562 595.589844 306.074219 C 595.742188 308.019531 598.175781 310.011719 596.195312 312.019531 C 593.464844 310.929688 591.1875 307.878906 587.820312 309.382812 C 583.265625 311.554688 581.90625 317.023438 577.316406 319.304688 C 570.785156 325.398438 563.78125 330.59375 557.226562 336.78125 C 556.320312 336.507812 555.867188 337.570312 554.957031 337.121094 C 553.417969 334.363281 555.253906 330.105469 552.046875 328.410156 C 549.628906 326.902344 547.492188 324.167969 548.394531 321.425781 C 553.890625 316.570312 543.84375 312.121094 549.929688 307.558594 C 547.808594 301.9375 540.480469 298.148438 542.171875 291.445312 C 540.480469 286.589844 534.097656 283.707031 533.480469 278.339844 C 532.734375 274.988281 526.78125 272.871094 529.066406 269.222656 C 527.699219 264.808594 522.984375 267.105469 520.695312 264.492188 C 517.652344 261.484375 513.542969 259.1875 512.628906 254.933594 C 511.703125 254.300781 511.25 253.566406 511.585938 252.320312 C 515.074219 253.113281 515.671875 259.640625 519.941406 257.210938 C 520.25 254.753906 518.265625 253.214844 517.351562 251.261719 C 519.328125 250.03125 524.203125 255.957031 523.144531 249.925781 C 526.027344 248.078125 529.523438 250.195312 532.277344 249.425781 C 535.019531 250.195312 537.75 255.84375 540.019531 252.320312 C 540.929688 249.925781 544.59375 251.117188 546.578125 251.261719 C 547.808594 252.320312 548.722656 253.839844 550.546875 253.566406 C 553.136719 252.207031 556.925781 252.660156 559.050781 254.597656 C 560.417969 256.894531 560.417969 259.9375 561.960938 262.21875 C 564.078125 261.3125 562.414062 259.1875 562.25 257.800781 C 560.589844 257.210938 562.25 255.84375 562.25 254.933594 C 564.839844 253.113281 566.976562 256.757812 570.03125 255.957031 C 581.59375 259.9375 589.515625 248.378906 599.550781 245.007812 C 605.171875 240.15625 612.03125 238.191406 618.113281 234.542969 Z M 619.316406 234.542969 "/>
<path fill-rule="nonzero" fill="rgb(13.725281%, 12.156677%, 12.548828%)" fill-opacity="1" d="M 466.519531 256.757812 C 469.703125 257.34375 469.410156 261.308594 471.371094 263.304688 C 478.25 263.429688 475.800781 271.65625 481.121094 273.960938 C 483.273438 278.515625 482.945312 283.820312 485.542969 288.257812 C 487.363281 287.484375 486.457031 285.527344 487.363281 284.613281 C 488.726562 289.164062 489.039062 294.175781 491.019531 298.453125 C 498.324219 301.632812 500.761719 308.472656 501.957031 315.660156 C 503.351562 318.210938 502.597656 321.878906 502.746094 325.082031 C 498.015625 326.585938 495.140625 320.964844 492.097656 318.089844 C 487.527344 313.652344 486.15625 307.882812 482.355469 303.179688 C 480.078125 302.28125 480.203125 305.011719 478.699219 305.738281 C 472.613281 303.777344 469.546875 295.855469 462.871094 294.816406 C 461.503906 295.269531 462.550781 296.453125 462.550781 297.359375 C 457.082031 296.453125 451.609375 293.5625 446.886719 290.074219 C 440.648438 283.972656 433.640625 278.0625 425.726562 275.445312 C 422.382812 275.136719 416.746094 277.28125 415.070312 272.867188 C 415.070312 271.503906 413.386719 270.75 413.703125 269.222656 C 415.382812 264.21875 422.667969 270.136719 421.628906 264.042969 C 423.90625 261.308594 426.183594 265.136719 428.308594 261.9375 C 429.832031 261.585938 431.503906 262.972656 433.324219 262.972656 C 435.613281 256.292969 443.386719 260.554688 448.398438 259.300781 C 449.484375 258.578125 448.851562 256.757812 450.53125 256.433594 C 455.550781 253.835938 459.8125 257.796875 464.375 258.578125 Z M 466.519531 256.757812 "/>
<path fill-rule="nonzero" fill="rgb(13.725281%, 12.156677%, 12.548828%)" fill-opacity="1" d="M 615.992188 255.957031 C 617.65625 259.027344 620.234375 261.941406 619.953125 265.132812 C 618.109375 265.40625 616.585938 260.398438 614.460938 263.765625 C 613.859375 265.40625 616.449219 266.777344 614.460938 268.128906 C 609.90625 268.769531 604.710938 268.601562 600.621094 266.636719 C 600.296875 262.042969 605.796875 266.3125 608.375 264.492188 C 612.496094 262.675781 610.210938 255.503906 615.992188 255.957031 "/>
<path fill-rule="nonzero" fill="rgb(13.725281%, 12.156677%, 12.548828%)" fill-opacity="1" d="M 399.6875 270.589844 C 401.523438 270.894531 401.96875 272.714844 403.0625 273.964844 C 400.320312 276.695312 394.683594 273.046875 391.308594 276.058594 C 382.199219 273.152344 375.199219 265.132812 365.453125 263.769531 C 365.136719 262.671875 362.855469 262.859375 363.917969 261.484375 C 375.652344 265.132812 387.21875 269.222656 399.6875 270.589844 "/>
<path fill-rule="nonzero" fill="rgb(13.725281%, 12.156677%, 12.548828%)" fill-opacity="1" d="M 373.046875 282.339844 C 371.226562 282.910156 369.550781 284.429688 367.285156 283.816406 C 366.054688 281.246094 360.265625 284.296875 361.8125 280.160156 C 363.183594 279.121094 364.386719 277.871094 366.214844 277.871094 C 368.042969 280.328125 371.679688 279.574219 373.046875 282.339844 "/>
<path fill-rule="nonzero" fill="rgb(13.725281%, 12.156677%, 12.548828%)" fill-opacity="1" d="M 613.671875 281.886719 C 614.046875 282.640625 613.285156 283.246094 612.734375 283.613281 C 612.128906 283.433594 611.382812 283.980469 611.003906 283.246094 C 610.441406 282.066406 611.761719 281.886719 612.332031 281.34375 C 612.734375 281.886719 613.285156 281.886719 613.671875 281.886719 "/>
<path fill-rule="nonzero" fill="rgb(13.725281%, 12.156677%, 12.548828%)" fill-opacity="1" d="M 622.988281 288.257812 C 623.601562 289.324219 621.472656 291.140625 623.289062 292.1875 C 626.652344 292.808594 631.351562 290.527344 632.726562 294.8125 C 631.351562 298 627.855469 300.730469 624.8125 302.089844 C 623.140625 302.390625 621.777344 301.183594 621.152344 299.816406 C 619.480469 295.714844 614.007812 292.53125 615.675781 287.480469 C 617.503906 284.75 621.617188 286.113281 622.988281 288.257812 "/>
<path fill-rule="nonzero" fill="rgb(13.725281%, 12.156677%, 12.548828%)" fill-opacity="1" d="M 647.042969 302.390625 C 646.265625 303.453125 645.8125 305.730469 647.796875 306.070312 C 650.691406 305.460938 652.203125 308.476562 654.640625 308.929688 C 651.917969 312.292969 658.617188 315.027344 654.640625 316.707031 C 653.875 317.480469 652.058594 317.632812 652.203125 319.304688 C 653.875 320.667969 657.835938 320.496094 657.25 323.578125 C 654.042969 326.449219 648.875 325.21875 646.265625 329.046875 C 647.507812 329.953125 649.78125 330.109375 648.875 332.070312 C 645.058594 337.875 637.769531 335.597656 632.433594 338.15625 C 629.976562 337.421875 627.570312 339.878906 625.875 337.570312 C 625.566406 335.730469 626.195312 334.226562 627.691406 333.136719 C 630.753906 332.070312 634.859375 332.410156 637.128906 330.238281 C 635.308594 328.28125 630.148438 331.144531 628.777344 327.679688 C 629.523438 325.21875 632.71875 325.398438 632.71875 322.941406 C 628.15625 322.035156 631.660156 317.9375 628.777344 315.652344 C 629.976562 310.628906 620.699219 309.386719 625.113281 305.007812 C 631.207031 301.484375 638.515625 299.191406 645.972656 301.363281 Z M 647.042969 302.390625 "/>
<path fill-rule="nonzero" fill="rgb(13.725281%, 12.156677%, 12.548828%)" fill-opacity="1" d="M 471.699219 312.019531 C 480.203125 315.929688 484.9375 326.589844 493.609375 330.238281 C 496.347656 333.324219 500.761719 333.4375 504.5625 332.683594 C 508.066406 332.535156 509.757812 326.902344 512.628906 327.214844 C 512.792969 332.984375 507.613281 336.324219 503.050781 339.695312 C 501.378906 341.0625 499.230469 341.359375 497.265625 342.273438 C 491.183594 338.023438 488.894531 330.238281 481.902344 327.214844 C 475.035156 316.839844 463.921875 316.707031 456.003906 308.921875 C 451.761719 305.914062 447.1875 310.007812 443.230469 309.707031 C 442.480469 309.109375 442.933594 308.023438 442.933594 307.097656 C 446.570312 303.914062 451.445312 302.085938 456.777344 303.457031 C 461.957031 305.914062 466.054688 310.476562 471.699219 312.019531 "/>
<path fill-rule="nonzero" fill="rgb(13.725281%, 12.156677%, 12.548828%)" fill-opacity="1" d="M 409.285156 312.019531 C 407.609375 314.75 408.671875 320.851562 403.34375 320.398438 C 400.148438 322.214844 405.011719 323.261719 403.34375 325.863281 C 402.59375 327.355469 399.691406 327.042969 400.457031 329.5 C 401.054688 330.59375 403.34375 330.238281 402.726562 332.070312 C 401.363281 333.136719 398.316406 332.535156 399.089844 335.28125 C 400.910156 336.957031 404.089844 338.789062 403.058594 341.8125 C 402.59375 342.605469 401.363281 343.066406 401.519531 344.105469 C 408.832031 347.292969 401.964844 358.09375 410.34375 361.296875 C 411.554688 366.007812 417.050781 365.273438 419.480469 369.195312 C 421.910156 369.820312 425.726562 368.46875 426.492188 372.285156 C 429.828125 372.859375 432.738281 375.148438 436.234375 375.46875 C 440.199219 380.324219 447.484375 378.03125 451.890625 380.210938 C 452.976562 381.714844 455.101562 380.484375 456.3125 381.394531 C 458.761719 382.488281 462.417969 383.214844 462.871094 386.398438 C 459.222656 387.316406 456.167969 390.976562 451.890625 389.3125 C 446.117188 391.128906 445.21875 382.167969 439.273438 385.03125 C 436.835938 385.957031 433.945312 387.640625 431.5 386.398438 C 432.40625 385.03125 431.5 383.214844 430.136719 382.761719 C 426.039062 381.714844 422.210938 379.117188 417.664062 380.664062 C 412.167969 383.519531 411.105469 375.46875 405.9375 376.539062 C 404.730469 371.039062 397.414062 376.082031 396.8125 370.46875 C 395.894531 370.742188 395.59375 369.65625 394.988281 369.195312 C 395.894531 367.097656 393.769531 365.871094 392.40625 364.960938 C 389.488281 364.960938 385.53125 365.273438 385.078125 361.636719 C 382.949219 358.902344 379.296875 359.460938 376.414062 358.261719 C 377.621094 355.53125 376.867188 352.621094 377.167969 349.890625 C 375.648438 348.679688 373.378906 348.074219 372.753906 346.253906 C 373.957031 345.476562 376.707031 344.542969 375.648438 342.605469 C 375.195312 341.8125 373.957031 341.515625 374.132812 340.449219 C 374.878906 339.421875 377.015625 339.976562 376.707031 338.152344 C 376.5625 337.425781 375.648438 336.957031 375.957031 336.050781 C 377.015625 335.59375 378.695312 335.734375 378.992188 334.230469 C 379.152344 331.769531 375.648438 331.769531 376.414062 329.046875 C 378.992188 329.046875 381.117188 327.960938 382.949219 326.125 C 383.574219 324.492188 383.121094 322.328125 384.792969 321.121094 C 387.222656 321.875 389.941406 321.121094 392.078125 320.398438 C 392.40625 318.839844 389.941406 318.664062 390.558594 317.019531 C 393.449219 315.65625 401.820312 318.839844 399.089844 312.59375 C 401.820312 310.769531 407.300781 308.359375 409.285156 312.019531 "/>
<path fill-rule="nonzero" fill="rgb(13.725281%, 12.156677%, 12.548828%)" fill-opacity="1" d="M 589.636719 330.238281 C 590.722656 333.886719 589.515625 337.425781 587.820312 340.449219 C 585.234375 343.519531 581.140625 344.105469 577.625 343.65625 C 575.664062 342.425781 572.910156 342.273438 571.851562 339.695312 C 571.535156 337.570312 570.484375 335.414062 572.164062 333.4375 C 574.132812 332.230469 576.257812 330.238281 578.6875 331.605469 C 579.148438 332.535156 580.0625 332.410156 580.980469 332.410156 C 584.488281 330.105469 580.980469 322.941406 586.765625 323.578125 C 588.882812 325.398438 588.730469 327.960938 589.636719 330.238281 "/>
<path fill-rule="nonzero" fill="rgb(13.725281%, 12.156677%, 12.548828%)" fill-opacity="1" d="M 467.28125 330.863281 C 468.644531 328.871094 471.375 327.679688 473.839844 328.746094 C 477.160156 331.316406 478.246094 336.058594 477.160156 340.445312 C 475.203125 345.035156 471.074219 348.34375 465.90625 348.519531 C 462.871094 347.765625 458.902344 346.53125 457.085938 343.0625 C 455.101562 339.242188 455.101562 334.824219 456.777344 330.863281 C 457.84375 329.652344 458.296875 327.960938 459.96875 327.21875 C 462.871094 327.355469 464.238281 331.144531 467.28125 330.863281 "/>
<path fill-rule="nonzero" fill="rgb(13.725281%, 12.156677%, 12.548828%)" fill-opacity="1" d="M 544.757812 337.875 C 549.472656 338.488281 545.96875 344.707031 550.546875 345.925781 C 556.464844 346.703125 560.585938 352.34375 565.910156 354.308594 C 568.039062 355.527344 566.207031 357.511719 566.367188 359.003906 C 565.148438 361.300781 564.242188 363.570312 563.324219 366.007812 C 561.660156 365.542969 561.039062 360.847656 558.589844 363.453125 C 556.320312 366.007812 551.910156 364.644531 548.71875 364.484375 C 546.890625 363.140625 545.96875 361.753906 543.679688 361.300781 C 542.753906 362.085938 542.753906 363.910156 541.101562 363.730469 C 538.976562 360.082031 538.351562 355.808594 534.5625 352.804688 C 533.652344 352.925781 532.730469 352.617188 532.28125 353.535156 C 533.945312 356.71875 537.300781 359.628906 537.148438 363.140625 C 536.527344 365.269531 533.945312 365.097656 532.28125 364.484375 C 531.648438 363.570312 530.90625 363.140625 529.820312 363.453125 C 528.910156 363.910156 529.070312 364.824219 529.070312 365.542969 C 526.332031 367.375 523.59375 368.917969 520.246094 369.199219 C 515.078125 367.835938 509.4375 366.1875 504.261719 366.007812 C 500.308594 359.9375 491.636719 365.542969 487.070312 361.300781 C 488.449219 360.722656 490.398438 359.628906 490.734375 357.957031 C 496.8125 358.449219 501.214844 354.308594 505.335938 350.628906 C 510.21875 352.34375 513.402344 347.894531 517.65625 347.289062 C 519.039062 345.925781 519.328125 343.519531 522.070312 344.433594 C 524.054688 343.652344 522.683594 341.238281 524.660156 340.757812 C 528.152344 342.277344 532.28125 341.058594 535.617188 339.972656 C 537.148438 339.238281 536.835938 336.328125 539.273438 337.121094 C 540.347656 339.417969 543.535156 339.691406 544.757812 337.875 "/>
<path fill-rule="nonzero" fill="rgb(13.725281%, 12.156677%, 12.548828%)" fill-opacity="1" d="M 639.722656 340.449219 C 639.582031 341.972656 637.597656 342.738281 637.132812 344.105469 C 635.308594 346.386719 635.941406 350.175781 632.722656 351.714844 C 629.695312 352.808594 625.425781 353.535156 624.058594 356.894531 C 625.425781 357.960938 627.390625 357.507812 628.480469 359.460938 C 629.0625 362.542969 626.191406 362.675781 624.058594 363.144531 C 620.5625 363.277344 617.953125 362.675781 615.214844 361.636719 C 615.542969 358.726562 619.03125 358.261719 619.953125 355.804688 C 619.652344 350.53125 619.953125 345.03125 624.058594 341.8125 C 627.695312 340.609375 631.972656 340.753906 635.761719 339.695312 C 637.304688 339.421875 638.351562 340.15625 639.722656 340.449219 "/>
<path fill-rule="nonzero" fill="rgb(13.725281%, 12.156677%, 12.548828%)" fill-opacity="1" d="M 580.40625 356.351562 C 580.40625 357.199219 580.230469 357.902344 579.539062 358.449219 C 578.832031 358.261719 577.253906 359 577.449219 357.738281 C 577.253906 356.898438 577.621094 356.171875 578.3125 355.625 C 579.171875 355.453125 579.886719 355.625 580.40625 356.351562 "/>
<path fill-rule="nonzero" fill="rgb(13.725281%, 12.156677%, 12.548828%)" fill-opacity="1" d="M 572.039062 357.539062 C 572.21875 358.605469 571.699219 359.449219 571.160156 360.355469 C 569.25 361.226562 569.757812 359.097656 569.070312 358.265625 C 568.703125 356.839844 571.699219 354.902344 572.039062 357.539062 "/>
<path fill-rule="nonzero" fill="rgb(13.725281%, 12.156677%, 12.548828%)" fill-opacity="1" d="M 611.347656 367.101562 C 609.457031 367.28125 608.117188 370.695312 606.027344 368.984375 C 605.261719 367.28125 607.351562 366.289062 608.304688 365.734375 C 609.257812 364.796875 611.726562 365.1875 611.347656 367.101562 "/>
<path fill-rule="nonzero" fill="rgb(13.725281%, 12.156677%, 12.548828%)" fill-opacity="1" d="M 550.996094 372.554688 C 553.886719 373.789062 551.457031 377.75 551.75 380.207031 C 552.503906 381.574219 554.195312 382.167969 555.40625 381.398438 C 559.839844 379.570312 555.558594 374.113281 559.046875 372.285156 C 560.285156 374.839844 559.839844 378.816406 559.375 381.710938 C 557.550781 385.347656 553.886719 387.3125 550.222656 387.945312 C 542.632812 387.765625 533.796875 387.640625 530.441406 380.207031 C 529.988281 378.203125 528.460938 376.539062 529.070312 374.113281 C 531.359375 372.75 534.5625 380.933594 535.613281 374.375 C 535.015625 372.101562 536.527344 370.566406 538.207031 369.652344 C 542.167969 370.464844 546.574219 379.570312 550.996094 372.554688 "/>
<path fill-rule="nonzero" fill="rgb(13.725281%, 12.156677%, 12.548828%)" fill-opacity="1" d="M 544.757812 397.0625 C 554.195312 398.425781 563.164062 402.234375 569.585938 409.433594 C 566.0625 411.832031 562.246094 408.34375 559.050781 406.976562 C 554.5 405.746094 550.84375 402.234375 546.269531 401.058594 C 533.652344 396.015625 521.777344 403.453125 511.121094 408.34375 C 509.882812 408.972656 509.125 407.429688 508.972656 406.515625 C 509.589844 401.960938 514.617188 400.144531 518.121094 398.425781 C 526.332031 396.484375 536.226562 393.132812 544.757812 397.0625 "/>
<path fill-rule="nonzero" fill="rgb(13.725281%, 12.156677%, 12.548828%)" fill-opacity="1" d="M 455.589844 691.511719 C 454.621094 691.714844 453.675781 693.226562 454.800781 693.804688 C 455.203125 693.804688 455.773438 694.003906 456.140625 693.40625 C 455.953125 692.839844 456.535156 691.511719 455.589844 691.511719 "/>
<path fill-rule="nonzero" fill="rgb(13.725281%, 12.156677%, 12.548828%)" fill-opacity="1" d="M 518.125 761.953125 C 520.699219 761.300781 521.621094 764.34375 523.902344 764.496094 C 524.507812 762.867188 522.984375 762.054688 522.539062 760.863281 C 518.261719 760.554688 515.980469 755.65625 511.878906 755.394531 C 509.125 759.042969 515.21875 760.382812 515.21875 764.210938 C 516.898438 764.34375 517.210938 762.960938 518.125 761.953125 "/>
<path fill-rule="nonzero" fill="rgb(13.725281%, 12.156677%, 12.548828%)" fill-opacity="1" d="M 450.398438 675.644531 C 449.523438 676.164062 450.042969 677.175781 450.761719 677.722656 C 451.488281 677.640625 453.046875 677.355469 452.5 676.015625 C 451.976562 675.277344 451.097656 675.824219 450.398438 675.644531 "/>
<path fill-rule="nonzero" fill="rgb(13.725281%, 12.156677%, 12.548828%)" fill-opacity="1" d="M 468.0625 739.015625 C 468.0625 739.015625 466.964844 741.308594 468.0625 741.441406 C 469.15625 741.554688 469.089844 740.722656 469.089844 740.722656 C 469.429688 740.046875 468.988281 739.007812 468.0625 739.015625 "/>
<path fill-rule="nonzero" fill="rgb(13.725281%, 12.156677%, 12.548828%)" fill-opacity="1" d="M 469.875 728.269531 C 469.875 728.269531 468.003906 729.496094 469.277344 730.269531 C 470.5625 731.066406 470.429688 730.269531 470.429688 730.269531 C 470.429688 729.4375 470.722656 728.515625 469.875 728.269531 "/>
<path fill-rule="nonzero" fill="rgb(13.725281%, 12.156677%, 12.548828%)" fill-opacity="1" d="M 469.097656 675.304688 C 468.339844 674.394531 467.28125 673.828125 466.214844 673.46875 C 463.625 675.644531 459.96875 672.101562 457.84375 675.304688 C 458.449219 677.597656 456.472656 679.421875 458.136719 681.257812 C 461.1875 680.785156 458.761719 677.597656 460.429688 676.085938 C 462.710938 675.757812 462.542969 678.515625 463.625 679.71875 C 464.371094 679.894531 464.84375 679.542969 465.460938 679.421875 C 467.886719 679.542969 469.703125 678.054688 469.097656 675.304688 "/>
<path fill-rule="nonzero" fill="rgb(13.725281%, 12.156677%, 12.548828%)" fill-opacity="1" d="M 487.363281 690.652344 C 487.074219 693.125 485.238281 695.558594 484.777344 698.449219 C 483.867188 698.589844 483.867188 697.199219 483.390625 696.625 C 483.867188 694.328125 485.398438 691.746094 487.363281 690.652344 M 495.433594 691.117188 L 496.199219 691.746094 C 495.285156 694.792969 492.683594 697.085938 492.097656 700.269531 C 491.183594 700.589844 490.863281 699.496094 490.273438 699.015625 C 491.183594 696.171875 492.097656 692.210938 495.433594 691.117188 M 474.570312 685.957031 C 476.109375 683.832031 477.019531 680.015625 480.078125 680.199219 C 483.273438 683.539062 477.480469 685.957031 477.167969 689.300781 C 476.714844 689.914062 476.40625 691.453125 477.480469 691.746094 C 480.203125 692.039062 480.996094 689.007812 482.652344 687.476562 C 483.390625 687.183594 483.726562 687.796875 484.179688 688.09375 C 482.804688 694.035156 474.28125 697.199219 476.867188 704.230469 C 477.621094 704.671875 478.699219 703.9375 479.304688 705.324219 C 480.203125 709.226562 476.714844 711.523438 474.28125 713.671875 C 472.917969 716.109375 476.40625 715.519531 477.480469 716.242188 C 479.304688 715.519531 478.84375 713.671875 479.304688 712.316406 C 479.757812 711.523438 480.371094 710.316406 481.574219 710.785156 C 482.652344 712.433594 483.867188 713.953125 483.390625 716.242188 C 487.074219 718.253906 487.363281 712.136719 490.738281 711.214844 C 492.683594 710.785156 493.46875 713.042969 495.140625 713.671875 C 495.285156 711.394531 494.527344 707.734375 495.738281 705.324219 C 499.386719 703.597656 498.46875 708.964844 500.925781 709.398438 C 500.472656 705.761719 503.96875 703.757812 504.269531 700.589844 C 501.964844 698.589844 499.695312 695.851562 499.09375 692.949219 C 498.015625 690.652344 499.386719 688.574219 500.140625 686.757812 C 502.746094 688.253906 501.058594 692.210938 503.050781 694.328125 C 509.4375 690.652344 500.011719 686.089844 504.269531 680.785156 L 490.738281 680.476562 C 485.847656 682.175781 493 685.367188 492.554688 688.574219 C 491.636719 689.300781 491.015625 690.394531 489.953125 690.652344 C 486.761719 690.394531 488.585938 686.5625 487.074219 684.925781 C 484.03125 682.457031 483.390625 676.6875 478.699219 677.601562 C 470.160156 677.289062 474.121094 687.183594 469.546875 691.117188 C 467.730469 692.496094 467.277344 688.574219 465.152344 689.628906 C 465.605469 693.5625 463.003906 697.085938 465.460938 700.589844 C 466.519531 699.375 466.363281 697.539062 468.042969 696.625 C 470.460938 696.039062 469.703125 699.015625 471.378906 699.496094 L 472.453125 698.449219 C 470.917969 694.222656 473.371094 689.914062 474.570312 685.957031 "/>
<path fill-rule="nonzero" fill="rgb(13.725281%, 12.156677%, 12.548828%)" fill-opacity="1" d="M 445.941406 677.722656 C 446.296875 677.902344 446.488281 678.269531 446.828125 678.085938 C 448.214844 678.269531 449.625 676.375 448.578125 675.101562 C 447.339844 675.101562 445.941406 676.53125 445.941406 677.722656 "/>
<path fill-rule="nonzero" fill="rgb(13.725281%, 12.156677%, 12.548828%)" fill-opacity="1" d="M 312.476562 534.675781 C 310.957031 534.222656 309.738281 535.433594 309.140625 536.527344 C 308.0625 541.089844 303.492188 546.542969 307.316406 550.816406 C 308.6875 550.636719 309.886719 550.183594 310.957031 549.273438 C 316.589844 547 312.324219 553.234375 314.597656 555.191406 C 316.136719 556.5625 317.335938 558.742188 319.792969 558.109375 C 322.523438 558.289062 322.671875 555.660156 324.507812 554.167969 C 328.164062 549.910156 322.671875 546.730469 320.550781 543.519531 C 315.21875 542.90625 316.75 536.984375 312.476562 534.675781 "/>
<path fill-rule="nonzero" fill="rgb(13.725281%, 12.156677%, 12.548828%)" fill-opacity="1" d="M 428.613281 456.59375 C 427.402344 457.207031 426.320312 458.265625 426.789062 459.957031 C 436.066406 469.707031 441.113281 481.265625 446.890625 492.367188 C 451.894531 498.925781 447.03125 510.496094 455.25 514.589844 C 460.582031 515.042969 465.152344 518.226562 470.160156 518.226562 L 470.160156 514.277344 C 466.363281 500.75 462.707031 487.179688 453.132812 475.90625 C 445.214844 469.707031 439.878906 456.875 428.613281 456.59375 "/>
<path fill-rule="nonzero" fill="rgb(13.725281%, 12.156677%, 12.548828%)" fill-opacity="1" d="M 330.292969 550.820312 C 328.621094 552.003906 328.316406 553.710938 327.398438 555.195312 C 327.398438 557.644531 325.578125 561.613281 328.914062 563.292969 C 333.496094 563.90625 334.988281 557.953125 337 554.742188 C 337.140625 553.550781 336.375 552.785156 335.449219 551.871094 C 333.957031 550.945312 332.265625 550.640625 330.292969 550.820312 "/>
<path fill-rule="nonzero" fill="rgb(13.725281%, 12.156677%, 12.548828%)" fill-opacity="1" d="M 472.515625 724.074219 C 472.980469 724.722656 473.375 724.621094 473.738281 724.800781 C 474.949219 724.800781 476.175781 725.140625 476.34375 723.542969 C 475.65625 722.699219 474.792969 722.332031 473.738281 722.332031 C 473.375 722.871094 471.972656 722.871094 472.515625 724.074219 "/>
<path fill-rule="nonzero" fill="rgb(13.725281%, 12.156677%, 12.548828%)" fill-opacity="1" d="M 447.515625 686.035156 C 446.796875 686.636719 447.886719 688.308594 447.886719 688.308594 C 448.71875 688.582031 449.027344 687.007812 448.851562 686.035156 C 448.851562 686.035156 448.214844 685.398438 447.515625 686.035156 "/>
<path fill-rule="nonzero" fill="rgb(13.725281%, 12.156677%, 12.548828%)" fill-opacity="1" d="M 439.273438 511.679688 C 432.410156 512.769531 424.957031 511.40625 417.660156 511.679688 C 414.621094 513.363281 410.0625 511.539062 407.003906 513.222656 C 407.15625 513.808594 406.699219 514.589844 407.472656 515.042969 L 434.867188 515.320312 C 437.902344 515.203125 442.316406 516.105469 443.238281 513.222656 C 442.019531 512.3125 440.785156 511.40625 439.273438 511.679688 "/>
<path fill-rule="nonzero" fill="rgb(13.725281%, 12.156677%, 12.548828%)" fill-opacity="1" d="M 444.738281 678.621094 C 442.742188 678.109375 443.269531 678.554688 443.269531 678.554688 C 443.269531 678.554688 442.769531 678.871094 443.269531 679.679688 C 443.753906 680.5 444.398438 679.679688 444.398438 679.679688 C 444.398438 679.679688 445.433594 678.761719 444.738281 678.621094 "/>
<path fill-rule="nonzero" fill="rgb(13.725281%, 12.156677%, 12.548828%)" fill-opacity="1" d="M 372.757812 624.179688 C 377.171875 624.472656 377.785156 620.054688 378.996094 616.859375 C 378.542969 613.183594 380.214844 606.8125 375.953125 605.300781 C 373.960938 606.207031 371.835938 606.546875 369.40625 606.363281 C 367.429688 605.625 364.839844 602.996094 362.855469 605.625 C 362.71875 611.375 366.511719 615.648438 368.335938 620.535156 C 368.949219 622.480469 370.917969 623.71875 372.757812 624.179688 "/>
<path fill-rule="nonzero" fill="rgb(13.725281%, 12.156677%, 12.548828%)" fill-opacity="1" d="M 343.828125 554.738281 C 340.039062 555.53125 339.265625 560.246094 338.8125 563.582031 C 339.726562 566.027344 342.609375 565.113281 344.601562 565.753906 C 349.007812 565.273438 349.164062 560.558594 350.382812 557.375 C 349.308594 554.738281 346.121094 555.53125 343.828125 554.738281 "/>
<path fill-rule="nonzero" fill="rgb(13.725281%, 12.156677%, 12.548828%)" fill-opacity="1" d="M 406.625 747.941406 C 405.578125 747.425781 406.96875 745.316406 405.398438 745.503906 C 404.007812 747.941406 405.925781 750.21875 406.96875 752.148438 C 408.023438 752.660156 408.371094 751.28125 409.074219 750.917969 C 409.425781 749.203125 406.96875 749.203125 406.625 747.941406 "/>
<path fill-rule="nonzero" fill="rgb(13.725281%, 12.156677%, 12.548828%)" fill-opacity="1" d="M 577.316406 639.542969 C 575.804688 639.402344 574.886719 637.585938 573.214844 637.726562 C 569.246094 640.128906 567.289062 644.570312 565.910156 648.695312 C 564.699219 652.03125 563.632812 655.507812 565.152344 658.578125 C 566.664062 658.578125 568.335938 658.710938 568.792969 657.070312 C 570.03125 656.273438 571.238281 657.070312 572.15625 657.796875 C 575.953125 657.324219 575.664062 653.078125 577.625 650.957031 C 578.691406 645.492188 581.28125 640.75 583.410156 635.886719 C 580.980469 633.765625 579.316406 638.3125 577.316406 639.542969 "/>
<path fill-rule="nonzero" fill="rgb(13.725281%, 12.156677%, 12.548828%)" fill-opacity="1" d="M 559.667969 639.542969 C 557.6875 642.140625 555.710938 645.152344 555.40625 648.695312 C 554.191406 653.867188 550.089844 658.710938 551.75 664.058594 C 559.667969 662.53125 558.75 653.429688 562.25 647.90625 C 563.164062 646.097656 561.964844 643.199219 563.324219 641.363281 C 562.410156 640.46875 561.5 638.929688 559.667969 639.542969 "/>
<path fill-rule="nonzero" fill="rgb(13.725281%, 12.156677%, 12.548828%)" fill-opacity="1" d="M 551.300781 640.320312 C 547.636719 638.929688 544.296875 640.933594 541.386719 642.871094 C 539.433594 637.589844 535.011719 641.511719 532.277344 643.207031 C 528.3125 645.628906 525.578125 640.574219 521.320312 641.046875 C 517.347656 642.417969 514.617188 641.511719 510.339844 642.140625 C 506.390625 643.050781 507.617188 647.90625 506.390625 650.203125 C 505.785156 655.683594 503.515625 660.398438 502.742188 665.878906 C 504.113281 667.515625 506.390625 668.609375 508.523438 669.222656 C 511.121094 670.25 513.710938 669.089844 515.527344 667.382812 C 516.746094 665.113281 517.8125 662.96875 517.347656 660.058594 C 517.8125 656.738281 517.652344 653.246094 520.25 650.957031 C 520.996094 650.652344 521.320312 651.242188 521.78125 651.582031 C 521.160156 656.882812 519.324219 663.296875 522.074219 667.996094 C 526.496094 669.675781 529.992188 667.078125 533.027344 664.355469 C 535.773438 661.90625 536.523438 665.878906 538.527344 666.929688 C 547.804688 667.84375 547.339844 656.738281 550.546875 651.242188 C 551.460938 647.90625 555.554688 643.207031 551.300781 640.320312 "/>
<path fill-rule="nonzero" fill="rgb(13.725281%, 12.156677%, 12.548828%)" fill-opacity="1" d="M 496.960938 643.203125 C 490.566406 645.785156 488.898438 633.59375 481.570312 638.496094 C 477.621094 641.519531 474.574219 636.199219 471.375 634.507812 C 467.585938 633.941406 464.84375 636.9375 461.507812 636.339844 C 457.390625 636.199219 456.925781 640.753906 455.253906 643.203125 C 454.183594 647.605469 449.621094 652.945312 453.429688 657.074219 C 456.007812 658.113281 459.042969 658.578125 461.507812 656.734375 C 464.089844 651.242188 463.171875 644.394531 468.039062 640.019531 C 469.097656 639.652344 470.011719 640.132812 470.628906 641.046875 C 470.464844 648.222656 465.15625 653.691406 466.523438 661.148438 C 467.878906 662.96875 470.164062 664.054688 472.453125 664.054688 C 477.476562 661.625 478.839844 656.40625 479.753906 651.582031 C 481.125 649.601562 479.753906 645.492188 483.390625 645.492188 L 483.722656 648.695312 C 482.808594 651.582031 482.492188 654.910156 481.570312 657.800781 C 480.539062 660.53125 482.949219 662.6875 484.175781 664.785156 C 486.90625 667.382812 491.1875 668.613281 494.675781 666.929688 C 495.894531 665.449219 497.105469 664.054688 497.566406 662.234375 C 499.386719 655.242188 501.675781 648.511719 502.746094 641.363281 C 500.761719 639.546875 499.230469 643.664062 496.960938 643.203125 "/>
<path fill-rule="nonzero" fill="rgb(13.725281%, 12.156677%, 12.548828%)" fill-opacity="1" d="M 731.054688 627.507812 C 723.4375 633.136719 715.246094 637.25 707.320312 642.136719 C 701.078125 643.808594 696.667969 638.496094 693.464844 634.039062 C 692.851562 627.960938 691.335938 620.835938 693.003906 615.023438 C 693.609375 614.46875 694.523438 614.914062 695.304688 614.742188 C 698.5 618.363281 694.976562 623.394531 698.167969 627.207031 C 698.785156 632.382812 703.804688 636.492188 708.355469 638.175781 C 712.324219 638.316406 713.402344 634.199219 716.445312 632.667969 C 721.925781 627.507812 728.933594 625.222656 733.632812 619.15625 C 734.71875 617.652344 733.347656 616.109375 732.121094 615.023438 C 728.292969 616.109375 725.421875 619.921875 721.925781 621.746094 C 718.277344 624.179688 714.914062 626.476562 711.730469 629.347656 C 706.089844 628.734375 705.957031 622.179688 703.667969 618.363281 C 702.59375 614.554688 699.398438 608.9375 703.355469 605.625 C 706.871094 607.269531 706.402344 611.820312 707.320312 615.023438 C 708.527344 618.238281 709.148438 622.027344 712.484375 623.574219 C 713.695312 621.273438 713.863281 616.558594 717.984375 617.3125 C 722.839844 615.023438 730.601562 616.109375 732.121094 609.546875 C 730.601562 607.71875 728.625 608.363281 727.09375 609.546875 C 722.226562 609.390625 715.980469 613.984375 713.550781 606.65625 C 709.914062 601.171875 704.578125 596.351562 704.71875 589.152344 C 704.113281 588.085938 702.75 587.792969 701.820312 588.425781 C 696.667969 592.066406 690.882812 595.703125 687.21875 601.171875 C 682.964844 600.71875 684.320312 595.984375 681.738281 593.886719 C 680.824219 594.164062 679.761719 594.792969 679.601562 595.703125 C 680.234375 605.445312 677.191406 612.730469 677.777344 622.027344 C 676.105469 621.746094 674.90625 620.058594 674.125 618.691406 C 671.695312 607.457031 668.027344 595.53125 670.023438 583.390625 C 671.082031 582.140625 671.082031 580.632812 671.550781 579.269531 C 680.6875 572.410156 679.601562 559.316406 690.882812 555.195312 C 698.785156 553.097656 707.910156 553.097656 716.445312 553.710938 L 718.277344 555.195312 C 723.605469 557.953125 729.851562 562.839844 728.933594 569.851562 C 734.09375 582.140625 742.777344 592.972656 747.796875 605.300781 C 747.796875 615.023438 737.589844 621.746094 731.054688 627.507812 M 662.714844 561.023438 C 656.621094 572.269531 645.503906 580.773438 636.855469 590.703125 C 626.792969 606.542969 610.039062 612.730469 594.828125 619.15625 C 594.523438 614.109375 600.621094 610.640625 602.445312 605.898438 C 606.082031 599.53125 611.125 593.585938 611.582031 585.816406 C 613.25 583.691406 615.992188 583.96875 618.109375 583.390625 C 615.371094 591.429688 610.039062 598.441406 606.527344 606.363281 C 607.628906 607.582031 608.992188 608.816406 610.492188 607.71875 C 618.863281 599.53125 625.269531 589.910156 628.777344 579.269531 C 629.390625 579.128906 629.976562 578.804688 630.601562 578.957031 C 629.523438 584.789062 627.238281 590.0625 625.421875 595.703125 C 625.734375 596.460938 626.480469 595.984375 626.945312 596.15625 C 643.234375 581.234375 648.714844 558.863281 642.628906 538.015625 C 642.628906 534.226562 644.132812 531.003906 644.898438 527.359375 C 645.972656 528.726562 645.503906 531.34375 646.722656 532.847656 C 647.34375 540.757812 646.878906 549.003906 647.042969 557.027344 C 646.265625 562.203125 645.058594 567.394531 645.503906 573.035156 C 646.265625 573.949219 647.042969 574.402344 648.097656 574.222656 C 653.734375 569.398438 653.734375 562.203125 655.875 556.007812 C 659.078125 545.914062 657.371094 533.300781 655.875 523.113281 C 654.042969 517.769531 652.675781 512.128906 649.632812 507.304688 L 651 501.476562 C 656.464844 512.472656 659.820312 524.484375 660.894531 537.261719 C 661.808594 542.902344 659.375 547.902344 660.121094 552.644531 C 660.433594 553.378906 661.035156 554.011719 661.953125 553.710938 C 666.535156 550.027344 664.238281 543.515625 666.367188 538.808594 C 667.734375 528.726562 665.75 519.78125 663.769531 510.3125 C 662.867188 501.023438 658.003906 493.558594 653.582031 485.828125 C 653.734375 483.683594 653.28125 481.386719 654.042969 479.5625 C 657.839844 482.902344 659.988281 487.472656 661.652344 492.058594 C 665.441406 501.476562 667.28125 510.492188 668.945312 520.820312 C 669.40625 521.273438 669.71875 521.871094 670.476562 521.601562 C 672.914062 518.691406 672.308594 513.957031 671.855469 510.3125 C 670.777344 495.554688 665.304688 482.316406 655.414062 471.53125 C 651.300781 469.824219 651.597656 464.511719 647.042969 463.878906 C 638.800781 456.59375 628.15625 452.179688 621.464844 444.121094 C 635.164062 449.582031 648.996094 455.679688 659.820312 467.242188 C 664.539062 474.851562 669.71875 482.316406 672.308594 490.828125 C 675.351562 499.957031 678.554688 510.9375 675.183594 520.820312 C 674.28125 525.0625 674.125 529.523438 672.308594 533.300781 C 670.175781 543.054688 666.535156 552.003906 662.714844 561.023438 M 595.589844 630.859375 C 588.601562 638.316406 578.859375 644.714844 579.445312 655.683594 C 578.535156 657.667969 577.628906 659.953125 575.496094 661.148438 C 572.90625 660.992188 571.234375 662.6875 569.25 663.746094 C 563.476562 662.527344 559.210938 665.113281 555.40625 668.4375 C 551 666.796875 545.96875 667.996094 542.167969 670.253906 C 537.605469 671.347656 533.023438 667.996094 529.070312 671.640625 C 520.246094 669.332031 511.125 675.175781 503.050781 669.527344 C 496.8125 670.613281 489.953125 672.738281 484.777344 667.710938 C 478.386719 667.515625 471.375 668.613281 466.519531 664.054688 C 460.585938 664.359375 455.863281 662.0625 451.308594 659.332031 C 444.15625 661.148438 440.195312 653.246094 433.023438 653.863281 C 430 650.769531 426.789062 646.214844 422.835938 643.203125 C 421.761719 638.175781 417.5 634.378906 416.136719 629.347656 C 414.285156 621.902344 419.792969 616.285156 425.277344 611.820312 L 426.492188 611.820312 C 424.820312 614.46875 422.542969 616.738281 420.542969 619.15625 C 419.9375 620.058594 418.71875 621.449219 420.25 622.339844 C 423.746094 622.027344 426.179688 619.457031 428.914062 617.3125 C 429.089844 617.925781 430 617.3125 429.675781 618.105469 C 428.613281 621.746094 424.667969 624.179688 422.835938 627.507812 C 422.082031 628.734375 421.628906 630.265625 421.628906 631.941406 C 427.402344 635.121094 430.285156 626.304688 434.101562 623.09375 C 436.066406 619.921875 437.453125 616.285156 440.328125 613.183594 C 440.328125 612.003906 439.109375 610.453125 437.738281 610.320312 C 436.6875 610.179688 435.160156 610.914062 434.414062 609.546875 C 433.644531 606.65625 439.417969 602.082031 433.777344 601.625 L 433.324219 601.960938 C 430.898438 598.167969 434.695312 595.25 434.414062 591.292969 C 435.78125 589.609375 436.839844 586.429688 439.570312 586.605469 C 440.648438 587.179688 442.152344 586.878906 442.480469 588.425781 C 442.480469 593.132812 439.277344 596.914062 441.113281 601.960938 C 447.035156 615.648438 461.503906 622.945312 474.285156 627.207031 C 483.726562 630.859375 495.734375 628.300781 504.882812 632.195312 C 527.246094 633.136719 547.636719 635.121094 569.578125 633.289062 C 572.3125 632.382812 575.496094 632.554688 577.941406 630.859375 C 583.875 630.265625 588.601562 625.824219 594.375 626.476562 C 596.195312 627.394531 596.046875 629.464844 595.589844 630.859375 M 559.667969 685.664062 C 553.886719 691.117188 547.335938 695.246094 539.5625 696.625 C 536.6875 697.988281 533.476562 702.222656 530.15625 699.492188 C 527.089844 700.414062 525.421875 698.117188 524.660156 695.859375 C 523.59375 692.5 526.785156 691.457031 528.617188 689.917969 C 531.1875 687.179688 540.183594 690.390625 537.148438 683.832031 L 515.832031 683.832031 C 513.992188 684.742188 514.917969 687.179688 515.21875 688.574219 C 516.894531 701.503906 508.066406 710.941406 507.914062 723.546875 C 507.007812 731.796875 508.378906 740.902344 515.832031 745.203125 C 529.527344 753.691406 542.753906 762.957031 558.589844 766.03125 C 561.960938 766.1875 563.324219 769.675781 564.535156 772.117188 C 563.628906 773.3125 560.738281 773.628906 561.960938 775.46875 C 562.558594 776.359375 562.105469 777.613281 562.246094 778.804688 C 558.46875 782.917969 553.273438 779.429688 548.71875 779.132812 C 547.183594 782.339844 547.335938 786.242188 547.335938 790.066406 C 547.027344 790.976562 546.714844 792.210938 545.816406 792.664062 C 541.382812 788.722656 536.074219 786.894531 530.441406 785.664062 C 528.464844 789 533.476562 791.457031 531.1875 795.273438 C 525.726562 799.640625 519.625 794.507812 513.714844 794.507812 C 512.628906 795.847656 512.792969 797.832031 512.167969 799.527344 C 511.257812 801.824219 509.882812 803.171875 507.914062 804.695312 C 498.777344 806.992188 493.144531 796.773438 484.777344 795.273438 C 479.304688 792.078125 472.917969 789.90625 468.042969 785.664062 C 467.277344 780.949219 465.292969 776.699219 464.09375 772.117188 C 461.804688 766.75 461.183594 760.683594 458.140625 755.65625 C 452.347656 758.128906 453.261719 752.1875 451.308594 749.570312 C 442.605469 744.289062 445.808594 734.09375 438.824219 727.976562 C 438.511719 725.976562 438.203125 723.546875 436.234375 722.5 C 435.007812 722.628906 433.777344 722.328125 433.023438 721.421875 C 433.191406 719.898438 432.871094 718.5 431.957031 717.339844 C 430.746094 717.601562 429.675781 717.160156 428.914062 716.25 C 430.285156 707.730469 430.453125 699.019531 424.667969 692.949219 C 423.445312 692.5 422.835938 693.742188 421.628906 693.300781 C 418.71875 690.210938 422.996094 685.664062 419.792969 683.078125 C 421.175781 675.648438 417.5 669.671875 418.71875 662.527344 C 418.113281 661.148438 416.433594 660.238281 415.070312 659.617188 C 418.113281 655.0625 410.648438 651.128906 415.84375 647.90625 L 416.886719 648.359375 C 421.464844 652.945312 424.960938 661.457031 432.277344 662.234375 C 444.15625 666.179688 456.3125 669.085938 468.335938 672.429688 C 476.566406 675.175781 484.027344 676.21875 492.855469 677.152344 C 510.671875 680.476562 529.371094 678.628906 548.089844 678.628906 C 551 677.285156 554.339844 676.992188 557.550781 676.085938 C 559.210938 676.21875 560.867188 675.761719 562.246094 676.546875 C 560.867188 679.28125 558.921875 681.839844 559.667969 685.664062 M 568.199219 801.351562 L 566.660156 802.558594 L 553.589844 796.625 C 551.125 792.796875 550.378906 787.507812 551.304688 783.066406 C 557.378906 782.78125 561.660156 788.722656 565.148438 792.976562 C 566.980469 795.394531 567.878906 798.296875 568.199219 801.351562 M 566.367188 778.804688 C 574.4375 777.300781 580.226562 786.128906 583.40625 791.882812 C 583.875 793.457031 582.816406 794.613281 581.589844 795.273438 C 576.109375 793.273438 568.796875 793.585938 565.90625 787.96875 C 566.0625 784.898438 563.921875 781.441406 566.367188 778.804688 M 549.179688 810.175781 C 544.597656 808.636719 539.71875 806.820312 536.382812 802.859375 C 534.5625 799.640625 533.339844 794.507812 535.613281 791.605469 C 539.4375 790.539062 541.101562 795.53125 543.679688 796.625 C 546.714844 799.980469 548.71875 803.769531 550.546875 807.546875 C 550.84375 808.8125 550.226562 809.855469 549.179688 810.175781 M 531.644531 814.871094 C 526.332031 814.097656 522.363281 810.78125 517.347656 809.390625 C 513.851562 807.292969 514.773438 802.859375 515.21875 799.527344 C 516.75 797.226562 519.039062 798.003906 521 798.914062 C 526.027344 802.078125 530.90625 807.292969 533.023438 812.746094 C 533.023438 813.664062 532.730469 814.757812 531.644531 814.871094 M 454.960938 771.054688 C 451.136719 771.671875 447.488281 770.765625 446.121094 767.09375 C 445.808594 764.800781 443.84375 762.675781 445.0625 760.105469 C 447.035156 756.125 452.054688 759.652344 453.714844 762.675781 C 455.097656 765.125 456.625 768.324219 454.960938 771.054688 M 443.230469 772.117188 C 440.480469 772.117188 438.050781 770.878906 435.613281 770.328125 C 433.941406 768.144531 432.117188 765.59375 433.324219 762.675781 C 433.777344 761.136719 435.613281 760.226562 436.984375 761.136719 C 440.328125 762.203125 441.867188 765.847656 444.304688 768.144531 C 445.214844 769.515625 444.4375 771.492188 443.230469 772.117188 M 429.359375 770.328125 C 424.359375 770.765625 419.792969 768.015625 414.757812 767.417969 C 410.800781 765.261719 406.238281 764.496094 402.277344 762.390625 C 397.417969 760.105469 394.527344 755.078125 394.234375 749.910156 C 391.488281 743.191406 390.863281 735.59375 389.207031 728.269531 C 384.9375 714.421875 396.359375 703.601562 394.984375 689.917969 C 396.644531 685.664062 393.316406 681.539062 394.984375 677.597656 C 398.175781 674.554688 399.855469 668.308594 405.648438 671.066406 C 406.386719 671.640625 407.765625 671.976562 408.226562 673.164062 C 408.671875 678.378906 403.191406 673.914062 401.21875 676.8125 L 403.816406 679.722656 C 403.191406 681.714844 401.21875 681.261719 400.148438 682.625 C 399.855469 685.84375 400.773438 689.484375 399.402344 692.207031 C 399.996094 693.742188 401.824219 693.121094 402.277344 694.332031 C 401.523438 696.625 399.089844 699.492188 401.523438 701.65625 C 402.144531 703.324219 400.773438 704.230469 399.6875 705.328125 C 397.722656 705.328125 396.964844 707.585938 396.050781 708.964844 C 396.359375 710.601562 395.445312 712.886719 396.8125 714.128906 C 399.402344 714.863281 398.480469 710.488281 400.90625 711.871094 C 402.722656 713.816406 400.148438 717.78125 403.058594 718.839844 C 405.792969 718.980469 407.765625 717.339844 410.34375 717.019531 C 410.96875 720.070312 404.554688 725.246094 411.101562 726.875 C 411.261719 727.214844 411.886719 727.355469 411.886719 727.976562 C 409.734375 729.171875 407.917969 727.535156 406.386719 726.445312 C 405.328125 724.925781 404.097656 722.980469 401.964844 724.339844 C 400.90625 725.710938 398.175781 724.472656 398.320312 726.875 C 399.855469 729.515625 403.964844 727.667969 404.554688 731.359375 C 405.007812 733.753906 402.890625 736.046875 404.097656 737.878906 C 405.007812 736.484375 406.851562 735.914062 408.523438 735.59375 C 410.0625 736.484375 412.632812 735.140625 413.707031 737.085938 C 414.171875 739.554688 411.261719 742.472656 414.285156 744.109375 C 416.75 744.542969 418.261719 742.472656 419.480469 740.746094 C 419.332031 738.929688 421.464844 739.230469 422.375 738.164062 C 427.097656 738.164062 430.285156 742.113281 433.324219 745.203125 C 435.613281 744.542969 434.695312 740.621094 437.453125 741.074219 C 438.824219 743.8125 443.386719 742.90625 442.152344 747.019531 L 443.519531 751.394531 C 443.066406 753.691406 442.019531 755.65625 440.328125 757.476562 C 436.984375 757.347656 432.117188 754.480469 429.675781 758.722656 C 428.460938 762.957031 432.277344 766.640625 429.359375 770.328125 M 447.640625 592.519531 C 451.136719 588.425781 456.003906 585.96875 460.425781 582.9375 L 461.804688 582.9375 C 459.96875 589.789062 452.515625 590.515625 447.941406 594.617188 C 447.339844 594.164062 447.792969 593.132812 447.640625 592.519531 M 468.042969 584.421875 C 465.746094 580.046875 468.789062 576.046875 470.628906 572.410156 C 471.699219 568.308594 469.703125 562.992188 472.453125 559.65625 C 477.472656 558.113281 484.484375 564.660156 487.820312 558.113281 C 489.359375 544.902344 482.808594 534.980469 475.035156 525.527344 C 466.828125 517.324219 454.039062 516.859375 442.933594 518.984375 C 422.664062 522.324219 400.90625 520.6875 385.53125 508.035156 C 380.828125 505.457031 376.113281 501.804688 372.757812 497.832031 C 365.304688 495.382812 363.921875 505.9375 358.132812 508.789062 C 361.484375 515.199219 368.042969 518.417969 374.582031 519.78125 C 377.339844 521.273438 375.789062 524.144531 374.882812 526.328125 C 370.632812 531.15625 367.285156 537.890625 361.039062 540.171875 C 359.980469 538.921875 361.808594 538.015625 362.097656 536.984375 C 365.140625 532.070312 370.921875 527.820312 370.167969 521.871094 C 368.949219 520.6875 366.957031 520.042969 365.453125 520.820312 C 359.804688 524.335938 359.574219 531.792969 354.164062 535.523438 C 352.800781 534.453125 354.34375 532.707031 354.804688 531.488281 C 357.074219 526.90625 359.90625 524.058594 361.808594 518.691406 C 359.214844 516.40625 356.769531 512.582031 352.988281 512.472656 C 345.96875 518.691406 345.371094 528.160156 341.238281 535.890625 C 339.113281 537.714844 339.726562 542.902344 335.773438 541.992188 C 333.953125 540.757812 335.625 539.378906 335.160156 537.714844 C 341.09375 528.273438 344.28125 517.957031 350.070312 508.480469 C 355.390625 502.703125 363.007812 500.75 367.285156 493.433594 C 368.949219 491.59375 371.226562 492.191406 373.042969 493.097656 C 387.675781 502.703125 405.601562 491.828125 422.082031 495.714844 C 422.375 496.015625 422.996094 496.46875 422.835938 497.082031 C 411.433594 499.503906 397.265625 496.753906 386.308594 500.75 C 384.9375 500.570312 383.570312 500.296875 382.199219 500.410156 C 381.421875 501.023438 380.664062 502.117188 381.421875 503.027344 C 383.707031 506.496094 388.28125 506.210938 391.308594 508.480469 L 441.699219 508.480469 C 444.605469 507.574219 443.984375 504.546875 445.0625 502.566406 C 441.566406 497.082031 435.007812 496.46875 428.914062 497.5625 L 428.308594 496.753906 C 431.652344 493.285156 437.898438 497.832031 441.113281 492.644531 C 441.867188 488.550781 439.882812 485.640625 438.511719 482.449219 C 431.824219 478.347656 422.082031 477.289062 414.285156 480.019531 C 410.0625 479.894531 406.386719 481.386719 401.964844 481.386719 C 393.902344 484.15625 383.238281 482.628906 375.328125 480.019531 C 360.265625 478.074219 351.433594 491.28125 340.179688 498.574219 C 336.371094 501.476562 334.867188 505.296875 333.335938 509.121094 C 329.984375 516.257812 327.082031 523.417969 325.246094 531.003906 L 323.757812 531.003906 C 324.679688 526.90625 324.679688 521.414062 326.628906 517.152344 C 329.984375 501.203125 345.648438 488.550781 359.214844 479.269531 C 364.546875 479.09375 370.167969 476.230469 375.328125 478.800781 C 386.617188 478.800781 397.722656 479.269531 408.523438 476.984375 C 414.925781 475.777344 422.082031 474.992188 428.613281 475.164062 C 430.453125 474.414062 430.285156 472.253906 429.675781 470.890625 C 425.726562 463.738281 418.113281 464.785156 411.433594 465.421875 C 397.722656 468.460938 384.792969 474.546875 369.40625 472.707031 C 369.554688 470.890625 371.839844 471.34375 373.042969 470.890625 C 384.9375 469.824219 395.738281 466.035156 406.699219 462.824219 C 412.019531 461.601562 415.84375 463.144531 420.542969 460.535156 C 421.464844 458.589844 418.71875 457.804688 419.792969 456.292969 C 423.746094 453.082031 429.835938 454.773438 434.414062 453.222656 C 449.019531 464.671875 466.367188 477.144531 469.875 495.714844 C 471.082031 499.203125 471.699219 503.027344 473.523438 506.210938 C 475.203125 520.960938 487.070312 531.34375 491.019531 545 C 495.289062 552.644531 491.183594 564.484375 498.777344 570.125 C 501.960938 570.90625 504.265625 567.695312 505.640625 565.402344 C 513.546875 541.992188 491.316406 526.433594 487.070312 505.9375 C 484.3125 490.375 475.347656 477.144531 465.152344 464.972656 C 464.09375 464.058594 463.175781 463.144531 463.324219 461.773438 C 468.191406 461.148438 471.082031 467.519531 475.035156 470.4375 C 481.734375 477.902344 482.808594 487.816406 487.820312 496.015625 C 489.648438 506.941406 493.773438 516.859375 500.140625 525.976562 C 508.066406 538.46875 514.167969 553.550781 510.335938 569.058594 C 509.125 573.035156 505.175781 577.4375 508.21875 581.867188 C 508.21875 583.390625 509.296875 584.421875 510.335938 585.507812 C 513.992188 586.878906 515.363281 583.058594 518.121094 582.597656 C 517.347656 591.742188 514.167969 600.898438 511.125 609.546875 C 508.972656 614.277344 506.089844 618.691406 503.511719 623.09375 C 502.746094 623.851562 501.511719 623.394531 500.59375 623.574219 C 501.960938 619.019531 504.5625 613.824219 507.152344 609.273438 C 508.664062 603.453125 513.246094 597.527344 510.335938 591.292969 C 507.914062 588.425781 506.25 584.789062 502.746094 582.597656 C 490.566406 588.699219 496.652344 604.359375 487.820312 612.910156 C 486.601562 615.835938 485.683594 619.15625 482.945312 620.988281 C 482.355469 620.65625 482.808594 620.058594 482.65625 619.457031 C 484.3125 616.738281 483.867188 613.070312 485.546875 610.320312 C 487.363281 604.839844 492.550781 600.71875 492.097656 594.339844 C 492.550781 588.996094 493.609375 583.96875 497.265625 580.046875 C 498.324219 574.222656 493.144531 570.425781 489.648438 567.230469 C 488.273438 566.183594 486.761719 566.78125 485.546875 567.570312 C 480.539062 573.035156 479.902344 581.574219 481.902344 588.425781 C 479.453125 595.984375 473.664062 602.261719 471.699219 610 C 470.007812 613.824219 470.914062 619.15625 466.972656 621.746094 C 465.746094 620.363281 466.214844 617.765625 466.519531 616.285156 C 470.914062 608.183594 472.453125 598.894531 477.933594 591.292969 C 477.472656 582.777344 480.203125 574.402344 479.75 565.75 C 478.386719 564.660156 477.472656 562.992188 475.347656 563.578125 C 471.992188 567.230469 474.285156 573.316406 471.992188 577.4375 C 472.453125 590.375 459.222656 598.441406 455.253906 610 C 454.492188 610.914062 453.433594 611.546875 452.347656 611.820312 C 451.308594 609.546875 453.433594 606.8125 454.492188 604.535156 C 458.59375 597.714844 465.460938 591.878906 468.042969 584.421875 M 465.089844 543.089844 C 463.417969 539.445312 459.140625 531.523438 460.265625 529.851562 C 462.710938 530.316406 464.609375 535.25 465.820312 537.070312 C 466.871094 539.964844 471.054688 543.933594 469.675781 547.273438 C 468.308594 547.273438 465.820312 544.453125 465.089844 543.089844 M 357.386719 556.007812 C 355.558594 561.296875 353.4375 568.488281 347.191406 570.125 C 334.992188 571.945312 324.210938 568.167969 315.382812 560.695312 C 309.289062 556.5625 303.042969 552.320312 298.179688 546.085938 L 298.179688 544.546875 C 301.816406 540.171875 309.136719 536.042969 307.769531 529.664062 C 307.144531 526.90625 303.957031 527.066406 302.902344 524.484375 C 302.589844 519.441406 303.363281 513.675781 306.226562 509.855469 C 307.917969 508.789062 311.273438 506.941406 312.472656 510.3125 C 308.683594 521.414062 314.921875 531.15625 322.972656 538.808594 C 334.707031 547.304688 350.527344 553.230469 363.921875 546.394531 L 365.453125 546.84375 C 364.394531 550.820312 358.894531 551.734375 357.386719 556.007812 M 348.558594 578.230469 C 355.558594 578.683594 362.847656 578.230469 368.335938 582.140625 C 373.957031 591.878906 386.914062 599.664062 381.875 612.910156 C 380.976562 618.238281 384.023438 625.5625 379.296875 629.03125 C 374.742188 629.347656 368.636719 630.558594 366.511719 624.910156 C 362.097656 618.363281 362.847656 607.089844 352.652344 605.625 C 351.601562 606.65625 351.15625 608.363281 351.894531 609.546875 C 355.257812 611.820312 357.996094 615.46875 357.074219 619.457031 C 355.710938 622.832031 352.074219 621.5625 349.785156 621.273438 C 349.164062 620.65625 348.246094 621.089844 347.484375 620.988281 L 346.121094 622.832031 C 347.484375 626.730469 349.785156 630.265625 351.601562 634.039062 C 353.890625 633.289062 354.929688 630.71875 355.558594 628.558594 C 357.074219 627.394531 358.601562 624.632812 360.726562 625.691406 C 363.183594 630.265625 358.753906 634.859375 356.621094 638.753906 C 354.472656 642.136719 349.785156 640.320312 346.738281 640.320312 C 345.515625 639.539062 345.371094 638.175781 344.894531 636.9375 C 343.363281 633.761719 339.875 631.289062 340.179688 627.207031 C 338.96875 625.089844 337 623.394531 334.40625 623.851562 C 333.167969 623.394531 333.789062 622.179688 333.621094 621.273438 C 336.238281 615.46875 342.160156 614.554688 347.9375 614.742188 C 350.835938 611.820312 346.738281 607.910156 348.558594 604.082031 C 348.863281 599.078125 354.34375 598.167969 356.621094 594.976562 C 349.617188 590.703125 343.363281 598.441406 336.238281 596.796875 C 334.867188 593.425781 338.96875 592.519531 340.953125 590.703125 C 345.0625 587.972656 351.742188 590.242188 354.472656 585.816406 C 354.804688 583.523438 352.074219 583.691406 350.835938 582.597656 C 343.695312 581.867188 337.453125 583.390625 332.128906 587.054688 L 331.046875 587.054688 C 331.496094 582.597656 337 582.140625 339.875 579.734375 C 342.777344 579.128906 345.96875 579.269531 348.558594 578.230469 M 362.097656 644.714844 L 360.726562 644.714844 C 361.351562 640.753906 363.769531 637.25 366.511719 634.507812 L 367.585938 635.578125 C 366.511719 638.933594 365.914062 642.75 362.097656 644.714844 M 336.53125 652.035156 C 333.621094 652.773438 330.292969 652.332031 327.859375 650.953125 C 317.199219 634.859375 312.933594 616.109375 306.558594 598.28125 C 302.902344 594.976562 304.726562 589.152344 302.589844 585.207031 C 302.589844 581.6875 302.125 577.890625 304.40625 575.320312 C 309.136719 575.015625 305.773438 580.632812 307.316406 582.9375 C 311.414062 604.359375 320.550781 623.71875 327.859375 643.957031 C 330.898438 649.605469 337.75 645.628906 342 648.359375 C 343.363281 648.511719 345.195312 647.777344 346.121094 649.136719 C 343.984375 651.859375 339.726562 651.128906 336.53125 652.035156 M 300.453125 569.058594 C 298.027344 567.570312 298.632812 564.386719 297.117188 562.085938 C 296.195312 558.863281 294.199219 555.074219 296.03125 551.554688 L 297.402344 551.867188 C 305.019531 561.746094 315.214844 569.53125 326.335938 573.035156 C 319.332031 574.402344 312.320312 576.046875 307.316406 569.398438 C 305.019531 569.398438 302.269531 565.75 300.453125 569.058594 M 295 539.832031 C 294.824219 536.34375 297.402344 533.441406 300.453125 531.792969 C 300.757812 534.679688 297.261719 537.441406 296.351562 540.625 C 295.738281 540.757812 295.277344 540.304688 295 539.832031 M 322.019531 511.132812 C 321.703125 513.730469 320.695312 518.691406 319.789062 520.820312 C 319.019531 521.140625 318.257812 520.234375 317.792969 519.78125 C 317.652344 517.152344 318.9375 511.277344 322.019531 511.132812 M 334.867188 483.402344 L 335.773438 485.359375 L 335.773438 487.644531 C 333.6875 491.648438 328.441406 500.570312 325.851562 504.09375 C 323.671875 498.519531 331.351562 487.519531 334.867188 483.402344 M 351.894531 466.488281 C 367.402344 462.417969 384.324219 464.972656 395.445312 451.40625 C 397.417969 449.308594 400.773438 449.429688 403.351562 450.039062 C 405.328125 452.042969 408.671875 451.132812 411.101562 451.859375 C 412.019531 452.949219 414.757812 451.132812 414.757812 453.222656 C 410.515625 456.425781 405.46875 454.773438 400.460938 456.292969 C 392.402344 458.863281 384.15625 460.988281 376.421875 464.199219 C 373.511719 465.875 369.40625 464.785156 366.816406 467.242188 C 362.722656 467.988281 359.511719 471.070312 355.863281 473.046875 C 351.433594 475.617188 346.886719 477.902344 342.777344 481.386719 L 340.632812 481.386719 C 342.332031 475.320312 345.0625 468.605469 351.894531 466.488281 M 427.097656 442.753906 C 429.222656 438.652344 429.835938 434.078125 430.140625 429.183594 C 430.898438 427.527344 432.277344 429.183594 433.023438 429.949219 C 432.277344 435.445312 431.503906 440.9375 430.746094 446.40625 L 425.277344 446.683594 C 424.207031 445.179688 427.097656 444.253906 427.097656 442.753906 M 439.277344 422.636719 C 439.742188 422.929688 440.648438 422.929688 441.113281 423.730469 C 442.480469 428.910156 439.570312 433.597656 442.480469 438.027344 C 442.605469 439.234375 442.773438 440.757812 444.304688 441.210938 C 445.664062 440.757812 447.792969 440.023438 447.941406 442.304688 L 447.640625 448.976562 C 444.15625 448.976562 440.789062 450.214844 437.453125 449.308594 C 435.472656 443.480469 435.3125 437.109375 436.984375 431.308594 C 437.144531 428.285156 436.234375 424.003906 439.277344 422.636719 M 453.128906 424.003906 C 453.585938 423.089844 454.492188 423.402344 455.253906 423.402344 C 456.921875 427.644531 456.003906 433.285156 457.84375 437.5625 C 458.761719 438.652344 459.355469 440.757812 461.050781 439.394531 C 461.636719 437.386719 463.003906 435.742188 462.550781 433.144531 C 462.871094 429.019531 461.636719 424.003906 465.152344 421.566406 C 465.746094 421.90625 466.519531 421.90625 466.972656 422.636719 L 466.972656 443.027344 C 465.460938 445.757812 465.914062 450.039062 461.804688 450.792969 C 457.988281 450.039062 454.492188 451.132812 452.347656 447.128906 C 450.070312 439.234375 453.585938 432.105469 453.128906 424.003906 M 475.347656 425.820312 C 479.75 431.78125 476.25 440.484375 476.859375 447.128906 C 477.472656 447.484375 478.53125 448.394531 479.304688 447.484375 C 484.777344 443.941406 482.488281 438.480469 484.484375 433.597656 C 487.667969 434.992188 485.992188 439.671875 485.992188 442.304688 C 483.867188 445.9375 486.15625 452.636719 481.125 455.054688 C 480.078125 457.207031 477.472656 457.207031 475.65625 456.59375 C 473.371094 453.5625 470.914062 449.429688 472.453125 444.847656 C 476.25 439.394531 473.523438 431.78125 475.347656 425.820312 M 424.960938 401.789062 C 423.582031 402.425781 421.761719 401.960938 420.25 402.101562 C 419.027344 400.601562 417.5 400.144531 415.84375 399.695312 C 413.707031 401.335938 411.101562 399.210938 408.523438 399.96875 C 407.464844 399.210938 408.058594 397.6875 406.699219 397.058594 C 404.554688 397.519531 403.191406 397.847656 401.21875 397.847656 C 396.359375 395.414062 394.066406 385.953125 386.617188 388.238281 C 383.414062 384.128906 378.085938 383.214844 373.832031 380.65625 C 369.554688 378.8125 361.484375 381.710938 361.039062 375.472656 C 357.847656 374.238281 353.726562 375.019531 350.835938 373.332031 C 350.683594 371.65625 352.652344 371.835938 353.4375 370.460938 C 350.527344 365.875 345.195312 366.007812 340.953125 364.183594 C 340.789062 363.570312 340.496094 363.003906 340.632812 362.363281 C 341.691406 360.273438 345.0625 362.09375 345.371094 359.453125 C 343.363281 356.265625 336.53125 357.171875 339.113281 351.445312 C 338.363281 350.53125 337.453125 349.132812 338.363281 348.066406 C 342.464844 345.15625 336.824219 342.273438 338.816406 338.972656 C 339.113281 336.054688 333.496094 334.691406 336.53125 331.605469 C 336.238281 328.875 331.949219 329.042969 331.804688 325.859375 C 333.789062 324.945312 337.453125 326.3125 338.058594 323.261719 C 337.277344 322.332031 335.914062 321.765625 337.277344 320.664062 C 341.546875 318.386719 346.273438 323.855469 349.3125 318.839844 C 350.835938 313.839844 345.648438 311.554688 346.425781 306.828125 C 340.496094 299.195312 334.242188 291.898438 334.707031 281.523438 C 330.4375 272.871094 336.371094 264.808594 339.113281 257.210938 C 350.527344 248.078125 362.5625 259.753906 374.128906 261.132812 C 377.933594 262.675781 382.035156 260.21875 385.53125 262.675781 C 392.082031 263.128906 399.402344 263.429688 405.179688 261.132812 C 410.648438 261.59375 413.84375 257.03125 419.480469 257.804688 C 424.207031 254.140625 431.039062 255.957031 436.234375 253.5625 C 446.726562 250.476562 456.625 248.832031 467.730469 248.378906 C 487.820312 247.15625 506.089844 238.636719 527.542969 242.917969 C 533.199219 244.738281 540.023438 243.945312 546.269531 244.398438 C 548.554688 245.648438 551.75 244.738281 553.886719 246.554688 C 559.667969 248.378906 565.753906 248.992188 571.847656 250.199219 C 581.902344 251.570312 589.347656 244.09375 597.710938 240.277344 C 607.628906 234.808594 616.585938 225.84375 629.0625 227.984375 L 635.308594 232.722656 C 637.308594 240.277344 638.054688 248.191406 636.070312 255.957031 C 635.9375 262.675781 633.492188 268.597656 633.945312 274.988281 C 634.855469 279.425781 638.511719 273.320312 639.417969 277.875 C 641.871094 280.03125 647.34375 277.875 647.796875 282.792969 C 651.597656 283.980469 653.429688 280.332031 657.253906 281.523438 C 657.839844 282.914062 657.371094 286.890625 660.121094 284.886719 C 661.203125 283.980469 662.398438 283.519531 663.769531 283.820312 C 664.703125 284.292969 664.539062 285.210938 664.539062 285.976562 C 663.769531 286.589844 663.324219 287.484375 663.476562 288.535156 C 664.988281 290.6875 667.582031 285.976562 668.660156 289.621094 C 669.71875 291.273438 667.898438 294.015625 670.023438 295.085938 C 672.613281 295.265625 675.351562 294.816406 677.777344 295.539062 C 679.007812 296.90625 671.082031 301.941406 678.09375 301.640625 C 679.320312 304.683594 676.730469 307.878906 679.140625 310.769531 C 679.140625 311.382812 679.320312 312.925781 680.234375 313.386719 C 682.964844 312.742188 686.472656 311.554688 689.054688 312.59375 C 689.800781 316.109375 685.847656 314.285156 684.648438 316.242188 C 682.804688 316.109375 681.277344 316.570312 679.914062 317.476562 C 680.375 319.753906 682.355469 321.765625 679.601562 323.582031 C 679.460938 324.308594 679.601562 324.945312 680.234375 325.402344 L 684.648438 325.402344 C 685.847656 327.503906 682.644531 327.359375 681.738281 328.410156 C 679.320312 329.195312 677.023438 329.949219 675.183594 332.074219 C 674.578125 334.363281 677.777344 333.597656 677.777344 335.277344 C 674.433594 336.667969 670.316406 336.328125 667.445312 338.972656 C 667.121094 340.449219 668.351562 341.816406 667.898438 343.066406 C 666.074219 345.609375 663.019531 345.15625 661.339844 348.066406 C 663.324219 350.074219 666.816406 345.476562 667.898438 349.132812 C 664.988281 351.898438 660.582031 352.621094 657.253906 355.355469 C 657.371094 356.144531 658.757812 357.058594 659.523438 356.144531 C 661.496094 354.449219 664.84375 354.902344 666.816406 354.316406 C 666.988281 358.730469 660.742188 357.636719 657.707031 359.453125 C 654.1875 362.539062 646.425781 363.136719 647.34375 368.917969 C 642.316406 373.019531 636.6875 375.628906 631.660156 380.210938 C 631.972656 382.488281 635.011719 382.761719 635.308594 385.03125 C 632.886719 387.769531 630.441406 384.128906 627.238281 385.347656 C 624.976562 391.773438 618.109375 388.238281 613.402344 389.761719 C 610.039062 390.671875 604.570312 389.035156 603.207031 392.683594 C 603.957031 393.269531 604.265625 393.863281 604.265625 394.777344 C 598.929688 397.847656 592.558594 398.324219 587.058594 401.0625 C 584.320312 402.242188 584.78125 398.902344 583.40625 397.847656 C 582.648438 392.957031 581.3125 387.875 578.203125 383.941406 C 576.527344 381.449219 574.277344 380.03125 572.445312 379.113281 C 570.941406 382.164062 576.402344 383.394531 577.316406 386.125 C 580.351562 393.136719 580.8125 401.960938 576.863281 408.792969 C 576.109375 412.167969 579.773438 414.601562 580.226562 417.914062 C 580.679688 421.273438 579.773438 424.457031 576.863281 426.273438 C 565.457031 429.183594 559.667969 415.625 549.179688 415.351562 C 545.664062 414.261719 542.472656 412.441406 538.976562 411.703125 C 537.605469 411.371094 536.382812 411.828125 535.929688 413.074219 C 540.648438 421 551.457031 417.351562 557.832031 422.179688 C 559.050781 423.269531 560.585938 423.730469 561.199219 425.234375 C 562.246094 426.734375 560.585938 428.113281 560.121094 429.488281 C 553.886719 435.445312 544.757812 433.925781 536.382812 434.378906 C 531.359375 433.011719 527.246094 429.828125 522.824219 427.367188 C 518.574219 423.402344 514.621094 417.449219 508.519531 418.988281 C 506.394531 421.273438 503.210938 419.167969 500.59375 419.292969 C 497.265625 417.449219 497.105469 413.347656 495.734375 410.917969 C 496.199219 409.527344 496.046875 408.339844 495.140625 407.246094 L 489.195312 412.753906 C 484.640625 413.800781 480.203125 413.347656 476.859375 409.886719 C 471.699219 411.53125 468.042969 406.675781 462.871094 408.339844 C 459.222656 409.710938 454.960938 410.003906 450.855469 410.917969 C 450.222656 410.464844 448.851562 410.335938 449.484375 409.074219 C 450.976562 407.878906 452.347656 406.0625 451.601562 404.386719 C 450.976562 402.699219 449.160156 402.878906 447.640625 402.878906 C 446.429688 404.386719 444.15625 404.699219 442.480469 403.917969 C 439.417969 401.0625 436.53125 405.152344 433.023438 404.386719 C 429.675781 404.246094 428.769531 399.503906 424.960938 401.789062 M 611.269531 418.234375 C 611.871094 422.476562 614.152344 426 614.921875 430.28125 C 614.152344 430.742188 613.703125 432.105469 612.640625 431.78125 C 613.25 425.699219 607.167969 422.363281 603.957031 417.914062 C 603.957031 416.542969 603.660156 415.164062 605.023438 414.601562 C 608.085938 413.527344 610.210938 416.085938 611.269531 418.234375 M 640.039062 466.789062 C 634.5625 462.378906 628.15625 458.691406 624.054688 452.636719 C 630.894531 454.316406 636.222656 459.511719 641.550781 464.671875 C 641.402344 465.582031 641.097656 466.621094 640.039062 466.789062 M 569.578125 498.574219 C 569.578125 502.839844 568.332031 505.296875 568.199219 509.578125 C 566.980469 509.855469 567.292969 508.335938 566.980469 507.761719 C 566.207031 502.703125 562.710938 498.753906 562.246094 493.433594 C 561.199219 492.058594 561.339844 490.101562 560.867188 488.398438 C 558.75 482.449219 556.464844 476.683594 552.363281 471.53125 C 552.363281 470.890625 552.503906 469.703125 553.589844 470.164062 C 560.867188 478.800781 566.515625 488.089844 569.578125 498.574219 M 585.691406 485.359375 C 584.488281 486.726562 581.730469 485.972656 580.53125 486.105469 C 577.59375 481.359375 575.164062 477.53125 573.21875 471.984375 C 578.535156 475.320312 580.984375 481.386719 585.691406 485.359375 M 603.207031 481.386719 C 602.753906 481.859375 602.894531 483.363281 601.667969 482.902344 C 599.257812 482.449219 598.796875 479.09375 596.972656 477.4375 L 584.632812 464.199219 C 584.632812 462.691406 586.765625 462.691406 587.816406 463.605469 C 594.214844 467.988281 599.378906 475.164062 603.207031 481.386719 M 621.773438 489.460938 C 616.453125 479.09375 609.453125 468.605469 600.304688 459.511719 C 602.292969 456.292969 604.710938 461.773438 607.167969 462.378906 L 610.210938 466.035156 L 622.238281 479.269531 C 620.398438 482.449219 622.523438 486.273438 621.773438 489.460938 M 594.0625 433.597656 C 597.558594 433.011719 600.921875 441.210938 602.894531 435.445312 C 603.347656 430.402344 597.710938 427.527344 598.472656 422.929688 C 602.445312 428.285156 611.125 432.558594 606.082031 440.15625 C 604.117188 444.121094 599.089844 439.566406 598.011719 444.574219 C 598.796875 448.042969 595.289062 450.214844 593.011719 452.179688 C 591.332031 452.316406 589.808594 453.5625 588.277344 452.636719 C 586.765625 448.222656 584.019531 444.253906 582.042969 440.15625 C 583.566406 439.234375 585.238281 441.390625 586 442.753906 C 586.144531 445.03125 588.148438 446.851562 590.101562 448.222656 C 592.097656 448.847656 593.464844 447.003906 594.375 445.640625 C 596.339844 440.597656 586.605469 437.109375 594.0625 433.597656 M 562.710938 440.15625 C 566.828125 442.574219 565.90625 448.976562 571.402344 450.792969 C 572.3125 451.265625 573.667969 450.339844 573.980469 449.308594 C 574.132812 446.550781 573.667969 443.480469 574.277344 440.9375 C 576.257812 443.027344 577.316406 446.097656 578.40625 448.976562 C 579.445312 452.179688 578.40625 455.378906 575.039062 456.59375 C 569.398438 458.109375 563.78125 449.582031 560.867188 458.410156 C 558.296875 461.449219 554.042969 461.773438 550.226562 460.988281 C 547.183594 459.511719 546.578125 456.425781 546.890625 453.222656 C 550.546875 455.679688 554.640625 456.871094 558.589844 454.773438 C 563.921875 451.132812 559.050781 444.574219 562.710938 440.15625 M 523.59375 617.652344 C 526.785156 610.453125 527.542969 602.417969 529.371094 594.617188 C 530.441406 589.609375 529.988281 583.96875 532.730469 579.734375 C 536.226562 574.679688 535.316406 568.621094 534.855469 562.539062 L 535.613281 561.476562 C 538.199219 566.023438 536.835938 572.582031 536.6875 577.890625 C 530.605469 586.429688 533.796875 598.753906 529.820312 608.183594 C 528.464844 611.226562 527.003906 614.195312 526.425781 617.558594 C 524.875 620.289062 524.132812 623.324219 522.457031 625.929688 C 522.136719 627.273438 521.316406 628.417969 519.945312 629.347656 L 519.179688 629.347656 C 518.40625 624.910156 523.148438 622.027344 523.59375 617.652344 M 526.1875 495.714844 C 524.96875 496.015625 523.90625 496.628906 522.535156 496.316406 C 521.316406 487.816406 516.289062 480.171875 515.53125 471.984375 C 517.503906 471.667969 518.121094 473.933594 518.875 475.164062 C 521.910156 481.726562 524.515625 488.550781 526.1875 495.714844 M 545.515625 492.644531 C 544.597656 493.285156 543.53125 494.804688 541.847656 494.191406 C 540.804688 492.824219 540.9375 491.007812 540.351562 489.460938 C 538.34375 484.15625 534.710938 478.996094 534.101562 473.347656 L 535.613281 473.347656 C 539.117188 479.71875 543.53125 485.828125 545.515625 492.644531 M 533.796875 465.421875 C 528.617188 465.421875 529.070312 460.421875 527.542969 456.871094 C 528.316406 452.179688 526.027344 447.128906 525.726562 442.753906 C 530.605469 443.34375 528.464844 449.429688 530.441406 452.636719 C 532.277344 454.316406 535.015625 454.773438 535.929688 457.660156 C 536.527344 460.230469 536.972656 463.738281 533.796875 465.421875 M 513.714844 455.507812 C 515.671875 456.746094 515.832031 459.78125 515.21875 462.046875 C 513.546875 462.824219 511.582031 463.605469 509.757812 462.824219 C 501.378906 454.773438 510.671875 441.664062 504.5625 432.558594 C 505.929688 431.921875 508.066406 432.105469 508.519531 433.925781 C 511.882812 440.484375 505.929688 450.792969 513.714844 455.507812 M 514.460938 515.039062 C 515.363281 516.859375 515.671875 518.984375 516.589844 520.820312 C 520.863281 536.042969 529.371094 549.589844 527.542969 567.230469 C 527.542969 568.488281 526.332031 569.214844 525.726562 570.125 L 524.96875 569.398438 C 529.371094 548.550781 515.363281 532.386719 510.335938 513.957031 C 507.152344 508.789062 506.546875 502.566406 503.796875 497.082031 C 498.324219 486.726562 493.003906 476.363281 486.601562 466.488281 L 487.363281 465.421875 C 502.292969 478.527344 505.789062 498.292969 514.460938 515.039062 M 495.140625 459.511719 C 494.367188 460.695312 492.050781 460.28125 491.132812 459.824219 C 488.40625 449.175781 488.894531 439.394531 489.953125 428.113281 C 491.484375 427.644531 491.863281 428.832031 492.097656 430.101562 L 492.335938 453.070312 C 493.550781 455.226562 495.734375 456.425781 495.140625 459.511719 M 553.589844 597.527344 C 549.179688 606.363281 546.4375 616.109375 540.351562 623.851562 L 540.023438 623.851562 C 542.015625 615.023438 546.125 606.363281 549.179688 597.527344 C 550.09375 595.429688 552.363281 597.070312 553.589844 597.527344 M 564.535156 610.78125 C 562.710938 613.523438 560.867188 617.011719 557.832031 618.691406 C 559.503906 611.820312 563.921875 605.300781 567.425781 598.613281 C 569.398438 596.460938 567.574219 590.976562 572.445312 592.066406 C 571.703125 598.613281 566.828125 604.359375 564.535156 610.78125 M 567.425781 624.910156 C 579.90625 615.023438 584.019531 601.625 592.238281 589.910156 C 593.308594 589.609375 594.214844 590.0625 594.828125 590.976562 C 588.734375 604.839844 579.152344 617.199219 568.492188 629.03125 C 567.878906 629.652344 566.828125 629.210938 565.90625 629.347656 C 564.695312 628.121094 566.515625 626.304688 567.425781 624.910156 M 594.375 546.085938 C 588.429688 547 589.515625 554.164062 587.816406 558.40625 C 587.511719 561.929688 585.691406 564.660156 585.238281 568.035156 C 583.875 570.90625 583.269531 574.101562 582.042969 577.136719 C 579.773438 581.234375 578.242188 587.519531 572.160156 587.054688 C 565.90625 587.792969 559.503906 588.085938 554.195312 590.976562 C 551.457031 591.15625 552.050781 587.324219 551 585.507812 C 550.226562 581.574219 547.949219 578.230469 547.335938 574.222656 C 545.210938 564.386719 537.148438 556.925781 534.5625 547.183594 C 531.972656 540.625 529.527344 533.898438 526.5 527.359375 C 525.574219 518.984375 518.714844 512.582031 519.179688 504.09375 C 526.1875 500.410156 535.46875 502.246094 542.925781 499.652344 C 548.394531 497.5625 547.335938 505 549.179688 507.761719 C 552.214844 520.507812 554.339844 533.441406 560.421875 545 C 561.785156 546.085938 562.878906 547.902344 564.84375 547.183594 C 569.695312 542.449219 568.65625 535.273438 570.328125 529.199219 C 571.988281 517.503906 574.277344 505.9375 576.570312 494.191406 C 583.101562 490.375 592.390625 491.007812 600.304688 489.460938 C 601.667969 489.191406 602.753906 488.398438 604.265625 488.738281 C 610.359375 498.480469 611.871094 509.855469 615.679688 520.507812 C 616.585938 522.964844 617.957031 525.976562 620.699219 527.066406 C 623.144531 527.699219 623.75 524.78125 624.363281 523.417969 C 625.421875 509.394531 628.609375 496.316406 627.238281 481.386719 C 632.71875 477.144531 638.800781 473.933594 644.445312 470.164062 C 648.542969 468.800781 647.175781 473.5 648.542969 475.164062 C 649.167969 480.925781 647.511719 486.453125 647.042969 491.28125 C 645.21875 507.761719 639.132812 522.644531 636.855469 538.355469 C 633.027344 550.941406 632.574219 563.453125 626.195312 574.855469 C 615.824219 577.3125 606.25 581.867188 595.589844 583.691406 C 597.425781 572.582031 597.558594 562.203125 598.472656 550.820312 C 598.171875 548.824219 596.339844 546.84375 594.375 546.085938 M 633.1875 469.363281 C 633.1875 471.53125 630.753906 472.433594 629.0625 473.046875 C 624.976562 465.695312 617.042969 460.695312 611.269531 454.023438 L 611.582031 452.179688 C 620.566406 455.226562 625.566406 462.964844 633.1875 469.363281 M 685.09375 541.671875 C 695.125 536.34375 707.910156 537.542969 717.984375 541.992188 C 720.5625 544.269531 724.070312 545.8125 725.269531 549.003906 C 721.925781 547.457031 718.550781 546.085938 715.367188 544.546875 C 707.457031 541.8125 696.214844 541.671875 689.054688 546.085938 L 677.777344 556.5625 L 675.945312 556.5625 C 673.675781 550.367188 680.511719 545.460938 685.09375 541.671875 M 683.261719 519.78125 L 684.320312 519.78125 C 689.65625 524.335938 695.304688 527.972656 700.761719 532.246094 C 698.945312 533.613281 696.214844 532.386719 694.203125 533.300781 C 691.019531 533.160156 687.21875 535.429688 684.648438 532.519531 C 680.824219 528.726562 682.644531 524.484375 683.261719 519.78125 M 753.75 606.65625 C 753.882812 594.039062 743.375 585.355469 736.835938 575.601562 C 732.894531 566.941406 734.09375 557.5 730.757812 548.683594 C 726.941406 539.71875 718.277344 535.273438 709.148438 534.679688 L 683.871094 512.769531 L 683.871094 506.210938 C 682.644531 495.382812 678.554688 485.828125 673.367188 476.683594 C 665.304688 454.476562 641.402344 443.808594 622.523438 434.378906 C 617.828125 430.554688 620.234375 423.089844 614.921875 419.292969 C 608.375 413.660156 616.738281 406.976562 613.402344 400.269531 C 613.089844 398.75 610.359375 398.324219 611.269531 396.320312 C 611.722656 394.957031 613.25 395.867188 614.152344 395.566406 C 623.601562 391.773438 634.25 391.433594 644.445312 389.761719 C 649.78125 386.578125 642.460938 384.308594 641.871094 381.398438 C 642.628906 378.199219 646.125 376.996094 648.097656 374.699219 C 660.742188 367.101562 673.367188 354.628906 680.6875 341.816406 C 682.964844 337.234375 689.65625 340.449219 692.699219 336.328125 C 694.835938 333.4375 689.800781 330.402344 692.699219 327.683594 C 691.019531 323.714844 693.925781 320.664062 695.589844 317.75 C 696.792969 313.964844 695.304688 310.476562 692.699219 307.878906 C 694.203125 303.917969 692.085938 299.640625 689.34375 296.632812 C 689.65625 290.832031 682.355469 286.890625 678.09375 283.820312 C 676.105469 278.058594 669.851562 275.914062 665.304688 273.152344 C 663.171875 268.019531 656.007812 270.894531 651 270.589844 C 647.960938 268.316406 646.265625 264.675781 643.386719 261.9375 C 638.351562 250.351562 645.8125 237.273438 640.039062 226.4375 C 638.351562 223.429688 635.308594 222.335938 632.433594 221.25 C 614.3125 219.878906 601.839844 234.675781 586.453125 240.734375 C 581.589844 245.78125 573.527344 244.285156 566.980469 243.945312 C 559.210938 242.917969 551.125 240.277344 542.925781 239.25 C 529.988281 235.90625 515.363281 236.359375 501.960938 237.40625 C 493.914062 238.324219 486.15625 239.703125 478.699219 242.105469 C 470.460938 242.105469 462.871094 243.371094 454.960938 243.945312 C 452.972656 244.855469 450.070312 243.644531 448.398438 245.011719 C 432.871094 245.921875 419.9375 253.113281 405.179688 255.664062 C 395.445312 258.847656 381.734375 257.664062 372.011719 255.390625 C 362.5625 252.773438 355.390625 244.558594 344.28125 246.234375 C 337 248.191406 332.871094 255.957031 329.679688 261.9375 C 324.046875 275.328125 329.53125 289.773438 337.605469 300.269531 C 340.953125 309.863281 329.679688 312.023438 325.246094 318.089844 C 323.585938 321.425781 322.527344 324.945312 321.15625 328.410156 C 325.710938 332.074219 318.121094 338.605469 324.792969 341.234375 C 325.878906 343.199219 324.679688 345.609375 322.972656 346.703125 C 321.007812 349.433594 325.246094 348.519531 326.03125 350.351562 C 329.375 353.714844 327.253906 358.089844 326.335938 361.914062 L 334.707031 372.289062 C 337.75 380.484375 346.886719 377.292969 352.652344 380.65625 C 356.621094 386.871094 364.222656 385.953125 367.585938 392.34375 C 371.226562 394.324219 375.195312 395.6875 379.296875 396.601562 C 382.488281 397.058594 379.910156 400.601562 382.199219 401.789062 C 390.558594 401.960938 397.554688 405.609375 405.933594 405.742188 C 407.765625 406.976562 410.34375 406.515625 412.167969 407.585938 C 413.386719 412.621094 419.9375 408.792969 422.375 410.917969 C 422.996094 415.054688 426.492188 417.449219 429.359375 420.085938 C 424.207031 428.113281 427.402344 439.671875 418.71875 446.40625 C 411.886719 451.71875 404.554688 442.414062 396.8125 445.640625 C 391.308594 451.265625 384.609375 454.023438 377.480469 455.839844 C 365.757812 457.046875 353.726562 457.207031 343.832031 462.824219 C 328.621094 467.242188 323.585938 483.683594 317.972656 496.015625 C 317.972656 503.167969 310.355469 497.5625 307.003906 500.75 C 303.1875 502.703125 300.898438 506.664062 300.453125 510.625 C 300.453125 519.441406 295.117188 525.976562 291.621094 533.300781 C 289.5 537.089844 291.015625 541.539062 293.445312 544.546875 C 289.953125 548.683594 290.871094 555.527344 291.320312 560.242188 C 293.300781 564.953125 295.5625 569.53125 296.816406 574.5625 C 296.9375 590.84375 303.648438 604.359375 307.316406 619.15625 C 312.933594 632.195312 313.105469 647.605469 324.503906 658.242188 C 329.679688 662.527344 335.453125 660.398438 341.691406 659.617188 C 352.074219 659.804688 361.175781 654.769531 368.636719 647.3125 C 373.664062 643.808594 371.679688 635.121094 378.996094 634.859375 C 385.390625 631.941406 385.703125 624.320312 386.308594 618.105469 C 384.324219 613.824219 386.753906 609.726562 386.914062 605.625 C 386.753906 597.988281 379.601562 593.246094 377.171875 586.605469 C 370.3125 574.679688 356.296875 576.046875 345.371094 575.601562 C 344.601562 574.5625 342 576.40625 342.464844 574.222656 C 348.105469 572.722656 353.890625 571.351562 358.894531 568.308594 C 359.980469 561.609375 363.476562 554.289062 370.46875 551.554688 C 376.867188 547.628906 371.839844 540.898438 373.511719 535.890625 C 378.996094 530.109375 380.664062 517.769531 391.308594 518.222656 C 396.191406 522.1875 401.824219 523.871094 407.464844 525.527344 C 408.976562 526.90625 410.800781 524.484375 412.167969 526.328125 C 420.988281 527.972656 430.746094 527.820312 440.328125 527.820312 C 446.121094 532.246094 449.625 538.160156 454.960938 543.175781 C 458.457031 547 463.628906 550.820312 465.152344 556.007812 C 467.132812 563.761719 462.710938 569.671875 457.390625 574.855469 C 450.976562 583.691406 440.648438 576.046875 433.023438 581.867188 C 429.835938 588.085938 427.242188 594.617188 424.207031 600.898438 C 416.136719 609.546875 408.058594 619.265625 411.433594 631.941406 C 409.28125 634.378906 406.238281 636.492188 404.875 639.226562 C 403.351562 642.75 405.648438 645.789062 408.523438 647.605469 C 407.917969 651.242188 406.101562 654.335938 405.179688 657.800781 C 404.726562 659.027344 403.511719 659.953125 402.277344 660.058594 C 400.320312 660.53125 398.175781 660.398438 396.5 661.457031 C 394.066406 662.816406 390.558594 664.539062 391.308594 667.996094 C 385.988281 677.597656 387.820312 691.003906 386.914062 702.710938 C 382.339844 710.316406 378.84375 720.984375 382.945312 729.515625 C 387.222656 740.902344 387.222656 754.480469 394.234375 764.496094 C 402.597656 768.484375 411.886719 771.492188 420.542969 773.3125 C 429.675781 775.90625 440.023438 775.320312 448.398438 779.429688 C 450.675781 780.34375 451.136719 778.207031 452.347656 776.960938 C 454.492188 776.960938 457.222656 773.628906 458.902344 776.960938 C 460.425781 781.441406 459.96875 786.714844 463.324219 790.367188 C 476.109375 802.40625 491.769531 807.292969 507.152344 813.074219 C 517.957031 813.664062 527.089844 816.707031 536.6875 819.304688 C 538.976562 818.101562 538.652344 814.578125 538.976562 812.019531 C 540.484375 808.359375 543.984375 812.148438 546.578125 812.019531 C 549.179688 813.1875 552.214844 814.757812 554.953125 814.578125 C 555.867188 812.148438 556.316406 810.929688 556.011719 808.019531 C 556.316406 806.199219 554.042969 804.382812 555.710938 802.859375 C 561.785156 804.082031 567.425781 806.378906 573.667969 807.292969 C 574.730469 805.148438 574.730469 802.558594 574.730469 799.980469 C 574.4375 798.914062 573.367188 797.832031 575.039062 797.097656 C 580.058594 797.53125 583.101562 799.070312 588.277344 799.167969 C 589.808594 788.535156 581.429688 781.074219 575.039062 773.3125 C 574.730469 768.324219 570.484375 764.027344 566.367188 761.589844 C 554.953125 757.949219 543.679688 754.480469 533.023438 749.097656 C 526.785156 744.289062 518.261719 743.019531 513.398438 736.347656 C 511.582031 732.089844 513.546875 727.667969 514.460938 723.546875 C 520.078125 718.839844 521.617188 712.3125 525.421875 706.804688 C 537.746094 703.015625 550.09375 699.492188 560.867188 691.742188 C 567.878906 685.191406 569.398438 676.21875 572.160156 667.710938 C 576.570312 667.996094 580.226562 666.019531 582.816406 662.527344 C 585.691406 655.511719 588.601562 648.511719 591.464844 641.367188 C 594.523438 637.109375 598.34375 636.9375 601.382812 632.667969 C 605.023438 629.652344 600.460938 626.011719 602.445312 622.339844 C 603.660156 620.363281 605.628906 619.019531 607.921875 619.15625 C 633.796875 608.636719 655.714844 583.96875 671.550781 560.695312 C 672.761719 563.453125 671.082031 566.78125 669.71875 569.398438 C 661.953125 576.972656 661.496094 588.558594 663.171875 599.078125 C 666.210938 613.070312 667.582031 628.121094 678.847656 638.496094 C 681.738281 640.019531 685.234375 640.933594 688.75 640.019531 C 692.851562 647.132812 700.003906 651.582031 708.355469 650.953125 C 724.984375 646.101562 738.820312 634.378906 750.382812 619.921875 C 751.914062 615.648438 754.039062 611.679688 753.75 606.65625 "/>
<path fill-rule="nonzero" fill="rgb(13.725281%, 12.156677%, 12.548828%)" fill-opacity="1" d="M 725.574219 586.265625 C 726.480469 585.207031 726.9375 583.972656 726.644531 582.601562 C 724.980469 576.863281 722.53125 571.488281 721.925781 565.402344 L 719.800781 561.746094 C 713.859375 557.652344 705.789062 554.160156 698.496094 557.835938 C 694.675781 560.699219 688.421875 561.925781 687.214844 567.574219 C 688.753906 569.398438 690.425781 567.234375 691.9375 567.234375 C 694.0625 566.179688 698.035156 566.027344 698.949219 569.058594 C 695.894531 574.851562 689.652344 579.734375 690.570312 586.605469 C 693.300781 586.152344 695.300781 583.523438 697.417969 581.570312 C 708.359375 570.429688 714.605469 589.609375 725.574219 586.265625 "/>
<path fill-rule="nonzero" fill="rgb(13.725281%, 12.156677%, 12.548828%)" fill-opacity="1" d="M 437.742188 644.714844 C 437.148438 647.605469 436.0625 651.578125 439.574219 653.425781 C 445.058594 655.683594 445.210938 648.355469 447.9375 645.785156 C 448.398438 643.054688 449.933594 640.570312 450.859375 638.175781 C 450.671875 634.039062 455.410156 631.46875 455.253906 627.828125 C 444.441406 625.089844 440.332031 637.117188 437.742188 644.714844 "/>
<path fill-rule="nonzero" fill="rgb(13.725281%, 12.156677%, 12.548828%)" fill-opacity="1" d="M 710.191406 593.585938 C 712.488281 597.714844 716.152344 601.351562 717.984375 605.625 C 724.800781 607.910156 732.273438 604.992188 738.046875 601.171875 C 738.046875 597.070312 733.34375 596.464844 730.753906 594.617188 C 723.601562 593.699219 717.648438 590.242188 710.964844 588.425781 C 709.144531 589.144531 709.910156 592.070312 710.191406 593.585938 "/>
<path fill-rule="nonzero" fill="rgb(13.725281%, 12.156677%, 12.548828%)" fill-opacity="1" d="M 506.753906 758.429688 C 506.753906 758.429688 505.335938 760.015625 506.179688 760.414062 C 507.027344 760.8125 507.324219 760.414062 507.324219 760.414062 C 507.324219 759.589844 507.617188 758.714844 506.753906 758.429688 "/>
<path fill-rule="nonzero" fill="rgb(13.725281%, 12.156677%, 12.548828%)" fill-opacity="1" d="M 443.984375 620.53125 C 442.773438 619.605469 441.234375 619.265625 439.574219 619.453125 C 434.101562 626.007812 430.453125 633.457031 426.488281 640.578125 C 425.417969 642.316406 426.488281 643.804688 427.542969 645.050781 C 429.21875 645.492188 430.285156 644.398438 431.503906 643.667969 C 434.414062 638.171875 437.449219 632.84375 439.882812 627.207031 C 440.648438 624.632812 444.4375 623.570312 443.984375 620.53125 "/>
<path fill-rule="nonzero" fill="rgb(13.725281%, 12.156677%, 12.548828%)" fill-opacity="1" d="M 496.507812 756.875 C 495.894531 757.652344 496.960938 759.039062 497.566406 759.320312 C 498.636719 759.773438 499.691406 761.597656 500.929688 760.558594 C 500.929688 760.558594 501.613281 758.601562 500.929688 757.214844 C 500.210938 755.789062 496.507812 756.875 496.507812 756.875 "/>
<path fill-rule="nonzero" fill="rgb(13.725281%, 12.156677%, 12.548828%)" fill-opacity="1" d="M 483.96875 742.332031 C 483.96875 742.332031 483.9375 742.839844 482.652344 742.292969 C 481.359375 741.761719 482.652344 738.644531 482.652344 738.644531 C 483.5625 738.324219 484.316406 738.929688 484.484375 739.695312 C 484.777344 740.746094 484.4375 741.554688 483.96875 742.332031 M 499.84375 742.566406 L 499.84375 741.074219 C 495.429688 737.878906 497.5625 733.304688 496.507812 728.703125 C 494.679688 729.359375 493.917969 732.269531 491.769531 733.191406 C 491.015625 730.425781 488.898438 728.269531 489.191406 725.058594 C 490.109375 722.980469 491.316406 725.238281 492.554688 724 C 492.394531 722.195312 492.859375 720.070312 492.101562 718.5 C 491.769531 717.945312 490.734375 716.4375 489.949219 717.339844 C 491.015625 720.984375 486.152344 721.238281 486.605469 724.625 C 485.6875 725.371094 485.089844 726.878906 483.722656 726.878906 C 482.484375 726.15625 481.738281 724.625 481.574219 723.242188 C 479.449219 724.148438 481.121094 727.355469 480.074219 729.0625 C 473.980469 732.269531 475.957031 739.382812 472.449219 744.105469 C 471.828125 747.28125 471.550781 751.394531 473.839844 753.828125 C 477.617188 752.789062 476.25 748.179688 479.753906 746.25 C 485.089844 748.066406 481.738281 754.746094 482.652344 759.039062 C 483.117188 759.46875 483.117188 760.558594 484.175781 760.105469 C 484.636719 758.261719 484.636719 755.65625 484.175781 753.828125 C 483.117188 749.75 487.527344 746.839844 489.191406 743.386719 C 490.734375 742.566406 492.101562 744.410156 493.300781 745.449219 C 494.972656 744.289062 497.269531 741.535156 499.84375 742.566406 "/>
<path fill-rule="nonzero" fill="rgb(13.725281%, 12.156677%, 12.548828%)" fill-opacity="1" d="M 503.664062 754.367188 C 504.207031 754.878906 504.382812 756.125 505.433594 755.578125 C 506.121094 755.21875 505.605469 754.53125 505.78125 753.828125 C 506.660156 751.023438 502.96875 752.585938 503.664062 754.367188 "/>
</svg>
