<?xml version="1.0" encoding="UTF-8"?>
<svg id="Layer_1" xmlns="http://www.w3.org/2000/svg" version="1.1" viewBox="0 0 201.01 200.41">
  <!-- Generator: Adobe Illustrator 30.6.0, SVG Export Plug-In . SVG Version: 2.1.4 Build 109)  -->
  <defs>
    <style>
      .st0 {
        fill: #a00000;
      }

      .st1 {
        fill: #fff;
      }
    </style>
  </defs>
  <path class="st1" d="M8.01,49.95L0,124.2l9.63-5.63c1.9-1.17,4.96-1.17,6.13,2.04l27.91,79.8s14.35-35.47,49.3-42.68c34.25-7.07,62.66,4.06,62.66,4.06l28.78-90.39c.68-2.15,2.68-3.6,4.93-3.6h4.38L201.01,1.6C110.42-6.33,42.78,16.06,8.01,49.95ZM185.23,56.99s-2.73-.21-4.84,1.25c-2.96,2.05-4.1,7.88-4.1,7.88l-25.01,79.92s-1.02-.36-2.92-.88l-1.55,4.98-.81-.22c-.11-.03-11.18-2.99-22.61-3.39-1.66-.06-3.31-.09-4.91-.09-9.89,0-15.15,1.15-15.21,1.16l-.84.19-6.37-26.73-4.7,23.58c-1.41.3-2.81.63-4.2.97l-.96,4.49-.5.15c-18.88,5.62-30.31,13.9-39.45,28.6l-.97,1.56-23.79-69.41c-.81-2.54-1.44-3.53-3.33-4.12-.4-.13-.86-.19-1.35-.19-2.54,0-5.26,1.64-5.29,1.66l-1.51.92,5.27-48.11.22-.21s2.22-2.12,5.8-5.07l.43-3.96s8.41-7.4,20.23-14.26c11.26-6.53,24.62-11.47,28.76-12.93l-5.06,49.05c-.83.58-1.91,1.66-2.85,3.66-1,2.15-1.04,6.52-.42,9.23l4.53,20.55,6.36-26.14c.72-2.96,1.11-4.59-.09-6.25-1.14-1.57-2.38-1.48-2.5-1.47l-1.13.17.11-1.11,5.1-44.15.51-.18s2.05-.72,5.25-1.72l.51-4.42s9.72-2.8,21.12-5.14c10.55-2.16,20.43-3.29,23.59-3.62l-4.85,47.09c-.81.3-1.99,1.02-2.81,2.79-1.11,2.39-1.17,6.42-.53,8.97l4.53,20.98,6.65-25.01c.95-3,1-5.1.18-6.62-.75-1.37-2.75-1.41-2.98-1.41h-.96l.06-.94,4.4-41.79.68-.09s1.92-.24,4.99-.57l.48-4.24s13.14-1.44,27.33-1.61c17.76-.21,27.01.73,27.01.73l-4.73,45.53Z"/>
  <path d="M106.09,141.74l-7.35-34.02-2.66,13.34,6.37,26.73.84-.19c.06-.01,5.31-1.16,15.21-1.16,1.59,0,3.25.03,4.91.09,11.43.41,22.5,3.36,22.61,3.39l.81.22,1.55-4.98c-4.28-1.17-13.05-3.18-24.99-3.79-10.57-.54-17.29.36-17.29.36Z"/>
  <path d="M46.7,170.34l-20.79-63.15c-.82-2.59-1.57-4.77-4.41-5.65-2.87-.89-5.15.52-5.15.52l4.98-46.19c-3.59,2.95-5.76,5.03-5.8,5.07l-.22.21-5.27,48.11,1.51-.92s2.75-1.66,5.29-1.66c.49,0,.94.06,1.35.19,1.89.59,2.52,1.59,3.33,4.12l23.79,69.41.97-1.56c9.14-14.7,20.56-22.98,39.45-28.6l.5-.15.96-4.49c-16.29,3.99-30.9,10.86-40.48,24.73Z"/>
  <path d="M79.03,79.97c.84-3.53,1.45-4.85,0-7.57-1.26-2.39-3.47-2.44-3.47-2.44l5.01-43.61c-3.2,1.01-5.21,1.71-5.25,1.72l-.51.18-5.1,44.15-.11,1.11,1.13-.17c.12-.02,1.36-.11,2.5,1.47,1.2,1.66.81,3.29.09,6.25l-6.36,26.14,2.46,11.14,9.61-38.38Z"/>
  <path d="M134.92,64.5c.9-2.82.67-4.38-.37-6.33-1.05-1.97-3.94-2.02-3.94-2.02l4.53-39.57c-3.07.32-4.94.56-4.99.57l-.68.09-4.4,41.79-.06.94h.96c.23,0,2.23.04,2.98,1.41.83,1.52.77,3.62-.18,6.62l-6.65,25.01,2.4,11.13,10.39-39.64Z"/>
  <path class="st0" d="M162.95,10.73c-14.18.17-27.33,1.61-27.33,1.61l-5.01,43.81s2.89.05,3.94,2.02c1.04,1.95,1.27,3.51.37,6.33l-10.39,39.64-6.94-32.1c-.64-2.55-.58-6.58.53-8.97.82-1.77,2-2.5,2.81-2.79l4.85-47.09c-3.16.33-13.04,1.47-23.59,3.62-11.4,2.34-21.12,5.14-21.12,5.14l-.51,4.42-5.01,43.61s2.21.05,3.47,2.44c1.45,2.72.84,4.04,0,7.57l-9.61,38.38-6.99-31.69c-.62-2.71-.58-7.08.42-9.23.93-2,2.02-3.08,2.85-3.66l5.06-49.05c-4.14,1.46-17.51,6.4-28.76,12.93-11.82,6.86-20.23,14.26-20.23,14.26l-5.41,50.15s2.28-1.41,5.15-.52c2.84.88,3.59,3.07,4.41,5.65l20.79,63.15c9.58-13.88,24.19-20.74,40.48-24.73,1.39-.34,2.79-.67,4.2-.97l7.36-36.93,7.35,34.02s6.72-.9,17.29-.36c11.93.61,20.71,2.61,24.99,3.79,1.9.52,2.92.88,2.92.88l25.01-79.92s1.14-5.84,4.1-7.88c2.1-1.46,4.84-1.25,4.84-1.25l4.73-45.53s-9.25-.94-27.01-.73Z"/>
  <path class="st0" d="M151.85,157.68c-1.82,0-3.31-1.48-3.31-3.31s1.48-3.31,3.31-3.31,3.31,1.47,3.31,3.31-1.46,3.31-3.31,3.31M151.85,151.57c-1.56,0-2.81,1.23-2.81,2.8s1.25,2.81,2.81,2.81,2.81-1.26,2.81-2.81-1.25-2.8-2.81-2.8M152.75,156.28l-.98-1.5h-.65v1.5h-.53v-3.79h1.54c.64,0,1.23.45,1.23,1.15,0,.84-.75,1.12-.97,1.12l1.01,1.52h-.65ZM152.13,152.96h-1.01v1.34h1.01c.33,0,.68-.26.68-.65,0-.42-.36-.68-.68-.68"/>
</svg>