<?xml version="1.0" encoding="UTF-8"?>
<svg id="Layer_2" xmlns="http://www.w3.org/2000/svg" xmlns:xlink="http://www.w3.org/1999/xlink" version="1.1" viewBox="0 0 348.9 341.69">
  <!-- Generator: Adobe Illustrator 30.6.0, SVG Export Plug-In . SVG Version: 2.1.4 Build 109)  -->
  <defs>
    <style>
      .st0, .st1 {
        fill: none;
      }

      .st2 {
        fill: url(#linear-gradient1);
      }

      .st3 {
        fill: url(#linear-gradient);
      }

      .st1 {
        stroke: #db1e32;
        stroke-linecap: round;
        stroke-linejoin: round;
        stroke-width: 4.26px;
      }

      .st4 {
        clip-path: url(#clippath-1);
      }

      .st5 {
        clip-path: url(#clippath-2);
      }

      .st6 {
        clip-path: url(#clippath);
      }

      .st7 {
        fill: #db1e32;
      }
    </style>
    <clipPath id="clippath">
      <rect class="st0" y="62.73" width="348.9" height="223.41"/>
    </clipPath>
    <clipPath id="clippath-1">
      <path class="st0" d="M238.55,88.47c-14.45.17-27.84,1.66-27.84,1.66l-.49,4.37-4.92,43.7s2.95.05,4.01,2.09c1.06,2.01,1.29,3.62.38,6.53l-10.28,38.06-2.45-11.49-4.62-21.65c-.65-2.64-.59-6.8.54-9.26.83-1.82,2.04-2.58,2.86-2.88l4.95-48.61c-3.22.34-13.28,1.51-24.04,3.74-11.61,2.41-21.52,5.3-21.52,5.3l-.52,4.56-5.11,45.01s2.25.05,3.53,2.52c1.47,2.81.85,4.18,0,7.82l-9.8,39.62-2.5-11.5-4.62-21.21c-.63-2.8-.59-7.31.43-9.53.95-2.06,2.06-3.18,2.9-3.77l5.15-50.64c-4.21,1.51-17.83,6.61-29.3,13.35-12.05,7.08-20.61,14.72-20.61,14.72l-.44,4.09-5.08,47.68s2.32-1.46,5.24-.54c2.9.91,3.66,3.16,4.5,5.84l21.19,65.18c9.76-14.32,24.64-21.41,41.24-25.53,1.42-.35,2.84-.69,4.28-1l4.79-24.34,2.71-13.77,7.49,35.12s6.85-.93,17.61-.38c12.16.63,21.1,2.7,25.46,3.91,1.94.54,2.97.91,2.97.91l25.48-82.5s1.16-6.03,4.17-8.14c2.14-1.5,4.93-1.29,4.93-1.29l4.82-47s-7.64-.78-22.38-.78c-1.63,0-3.34.01-5.14.03"/>
    </clipPath>
    <linearGradient id="linear-gradient" x1="1872.36" y1="1597.91" x2="1873.46" y2="1597.91" gradientTransform="translate(-410336.9981 350410.4878) scale(219.1858 -219.1858)" gradientUnits="userSpaceOnUse">
      <stop offset="0" stop-color="#9da6ab"/>
      <stop offset=".02" stop-color="#a8b0b5"/>
      <stop offset=".1" stop-color="#d7dbdd"/>
      <stop offset=".16" stop-color="#f4f5f5"/>
      <stop offset=".19" stop-color="#fff"/>
      <stop offset=".24" stop-color="#f8f9f9"/>
      <stop offset=".3" stop-color="#e6e8ea"/>
      <stop offset=".38" stop-color="#c9ced2"/>
      <stop offset=".44" stop-color="#bdc3c7"/>
      <stop offset=".56" stop-color="#9ea7ac"/>
      <stop offset=".57" stop-color="#9da6ab"/>
      <stop offset=".59" stop-color="#a8b0b5"/>
      <stop offset=".67" stop-color="#d7dbdd"/>
      <stop offset=".73" stop-color="#f4f5f5"/>
      <stop offset=".77" stop-color="#fff"/>
      <stop offset=".84" stop-color="#f0f2f3"/>
      <stop offset=".97" stop-color="#cbd0d4"/>
      <stop offset="1" stop-color="#c0c6cb"/>
    </linearGradient>
    <clipPath id="clippath-2">
      <path class="st0" d="M144.61,102.91h.02-.02ZM200.7,91h.02-.02ZM202.69,185.78l10.24-37.93c1.13-3.59.96-6.15-.61-9.12-.82-1.56-2.09-2.49-3.32-3.05l4.59-40.79.19-1.65c4.59-.43,14.48-1.25,24.82-1.37,1.79-.02,3.49-.03,5.1-.03,8.83,0,15.11.29,18.65.51l-4.18,40.78c-1.2.26-2.54.75-3.79,1.62-3.76,2.64-5.19,8.49-5.52,10.07l-24.44,79.12c-4.47-1.23-13.66-3.34-26.02-3.98-2.34-.12-4.68-.18-6.96-.18-3.44,0-6.21.14-8.15.28l-6.86-32.17c-.33-1.56-1.71-2.68-3.31-2.68h-.03c-1.61.01-2.98,1.16-3.29,2.73l-2.71,13.78-4.36,22.18c-.73.17-1.47.35-2.2.53-17.61,4.37-30.24,11.33-39.19,21.66l-19.19-59.04c-.87-2.78-2.07-6.6-6.71-8.05-.79-.25-1.59-.4-2.41-.45l4.59-43.11.29-2.76c2.53-2.14,9.79-8.02,19.1-13.49,8.22-4.83,17.65-8.83,23.66-11.18l-4.46,43.86c-1.07,1.06-1.99,2.42-2.75,4.06-1.38,3.02-1.42,8.31-.66,11.66l4.62,21.21,2.5,11.5c.33,1.54,1.69,2.64,3.26,2.67h.05c1.56,0,2.91-1.06,3.29-2.57l9.81-39.66.28-1.15c.74-3.01,1.32-5.39-.57-9.01-.81-1.55-1.86-2.54-2.88-3.18l4.81-42.4.26-2.3c3.51-.97,10.91-2.93,19.1-4.63,7.63-1.58,14.94-2.62,19.55-3.2l-4.35,42.7c-1.14.88-2.09,2.08-2.75,3.53-1.53,3.34-1.53,8.31-.77,11.38l4.62,21.65,2.45,11.49c.33,1.53,1.66,2.64,3.22,2.68.03,0,.06,0,.09,0,1.53,0,2.87-1.02,3.27-2.5M238.55,88.48c-14.45.17-27.84,1.66-27.84,1.66l-.49,4.37-4.92,43.7s2.95.05,4.01,2.09c1.06,2.01,1.29,3.62.38,6.53l-10.28,38.06-2.45-11.49-4.62-21.65c-.65-2.63-.59-6.8.54-9.26.83-1.83,2.04-2.58,2.86-2.88l4.95-48.61c-3.22.34-13.28,1.51-24.04,3.74-11.61,2.41-21.52,5.3-21.52,5.3l-.52,4.56-5.11,45.01s2.25.05,3.53,2.52c1.47,2.81.85,4.18,0,7.82l-9.8,39.62-2.5-11.5-4.62-21.21c-.63-2.8-.59-7.31.43-9.53.95-2.06,2.06-3.17,2.9-3.77l5.15-50.64c-4.21,1.51-17.83,6.61-29.3,13.35-12.05,7.08-20.61,14.72-20.61,14.72l-.44,4.09-5.08,47.68s1.34-.84,3.27-.84c.61,0,1.28.08,1.98.3,2.9.91,3.66,3.17,4.5,5.84l21.19,65.18c9.76-14.32,24.64-21.41,41.24-25.53,1.42-.35,2.84-.69,4.28-1l4.79-24.34,2.71-13.78,7.49,35.12s4.05-.55,10.83-.55c2.03,0,4.3.05,6.79.18,12.16.63,21.1,2.7,25.46,3.91,1.94.54,2.97.91,2.97.91l25.48-82.51s1.16-6.02,4.17-8.14c1.66-1.17,3.71-1.3,4.55-1.3.24,0,.38.01.38.01l4.82-47s-7.64-.78-22.38-.78c-1.63,0-3.34.01-5.14.03"/>
    </clipPath>
    <linearGradient id="linear-gradient1" x1="1872.46" y1="1597.94" x2="1873.46" y2="1597.94" gradientTransform="translate(-331127.8544 282828.8018) scale(176.8891 -176.8891)" gradientUnits="userSpaceOnUse">
      <stop offset="0" stop-color="#c0c6cb"/>
      <stop offset=".03" stop-color="#cbd0d4"/>
      <stop offset=".16" stop-color="#f0f2f3"/>
      <stop offset=".23" stop-color="#fff"/>
      <stop offset=".27" stop-color="#f1f2f3"/>
      <stop offset=".34" stop-color="#cdd2d4"/>
      <stop offset=".43" stop-color="#9da6ab"/>
      <stop offset=".44" stop-color="#9ea7ac"/>
      <stop offset=".56" stop-color="#bdc3c7"/>
      <stop offset=".62" stop-color="#c9ced2"/>
      <stop offset=".7" stop-color="#e6e8ea"/>
      <stop offset=".76" stop-color="#f8f9f9"/>
      <stop offset=".81" stop-color="#fff"/>
      <stop offset=".85" stop-color="#f1f2f3"/>
      <stop offset=".92" stop-color="#cdd2d4"/>
      <stop offset="1" stop-color="#9da6ab"/>
    </linearGradient>
  </defs>
  <g id="Layer_21" data-name="Layer_2">
    <g id="Layer_1">
      <g>
        <g class="st6">
          <path class="st7" d="M264.52,85.95c-.39-.04-9.7-.97-27.46-.76-14.21.17-27.16,1.59-27.7,1.65l-3.69.41.02-.22-6.1.65c-2.88.31-13.26,1.17-24.14,3.42-11.41,2.37-23.13,5.51-31.83,8.49-1.96.67-17.85,6.61-29.48,13.44-12.06,7.09-20.58,14.65-20.94,14.97l-7.39,6.24-.47,4.47-6.53,60.46,10.14-6.27c.62-.37,2.46-.43,2.58-.06l27.12,80.18,6.52-10.62c8.5-13.86,32.31-32.3,67.67-30.32,1.57.09,3.15.03,4.71.09,10.54.38,20.73,3.08,21.33,3.24l8.5,2.49,1.34-4.77,26.44-85.61.13-.51c.39-1.94,1.41-4.34,2.05-4.84.36-.25,1.15-.39,1.61-.37l4.79.54,5.73-55.89-4.95-.51Z"/>
          <path class="st1" d="M264.52,85.95c-.39-.04-9.7-.97-27.46-.76-14.21.17-27.16,1.59-27.7,1.65l-3.69.41.02-.22-6.1.65c-2.88.31-13.26,1.17-24.14,3.42-11.41,2.37-23.13,5.51-31.83,8.49-1.96.67-17.85,6.61-29.48,13.44-12.06,7.09-20.58,14.65-20.94,14.97l-7.39,6.24-.47,4.47-6.53,60.46,10.14-6.27c.62-.37,2.46-.43,2.58-.06l27.12,80.18,6.52-10.62c8.5-13.86,32.31-32.3,67.67-30.32,1.57.09,3.15.03,4.71.09,10.54.38,20.73,3.08,21.33,3.24l8.5,2.49,1.34-4.77,26.44-85.61.13-.51c.39-1.94,1.41-4.34,2.05-4.84.36-.25,1.15-.39,1.61-.37l4.79.54,5.73-55.89-4.95-.51Z"/>
          <path d="M180.62,223.71l-7.49-35.12-2.71,13.77,6.49,27.59.86-.19c.06-.01,5.42-1.19,15.49-1.19,1.62,0,3.31.03,5,.1,11.64.42,22.92,3.47,23.03,3.5l.83.22,1.58-5.15c-4.36-1.21-13.3-3.28-25.46-3.91-10.76-.56-17.61.37-17.61.37"/>
          <path d="M153.05,159.95c.85-3.64,1.47-5,0-7.82-1.29-2.46-3.53-2.52-3.53-2.52l5.11-45.01c-3.26,1.04-5.3,1.76-5.35,1.78l-.52.18-5.2,45.57-.11,1.15,1.15-.17c.13-.02,1.39-.11,2.55,1.51,1.23,1.72.82,3.4.09,6.45l-6.48,26.99,2.5,11.5,9.8-39.62Z"/>
          <path d="M209.69,146.83c.91-2.91.69-4.52-.38-6.53-1.07-2.04-4.01-2.09-4.01-2.09l4.92-43.7c-3.13.33-5.03.58-5.08.59l-.69.09-4.78,45.99-.06.97h.98c.23,0,2.27.04,3.03,1.46.84,1.57.79,3.74-.18,6.84l-6.47,22.96,2.45,11.49,10.28-38.06Z"/>
          <path d="M120.11,253.24l-21.19-65.19c-.83-2.67-1.6-4.93-4.5-5.84-2.92-.92-5.25.54-5.25.54l5.08-47.68c-3.65,3.05-5.87,5.19-5.91,5.24l-.23.22-5.36,49.66,1.54-.95s2.8-1.71,5.39-1.71c.5,0,.96.06,1.37.2,1.93.61,2.57,1.64,3.39,4.26l24.24,71.65.99-1.61c9.31-15.17,20.95-23.72,40.19-29.52l.51-.15.98-4.64c-16.6,4.12-31.48,11.2-41.24,25.53"/>
        </g>
        <g class="st4">
          <rect class="st3" x="56.82" y="50.04" width="241.61" height="241.61" transform="translate(-68.78 175.64) rotate(-45)"/>
        </g>
        <g class="st5">
          <rect class="st2" x="89.18" y="88.44" width="176.89" height="164.8"/>
        </g>
      </g>
    </g>
  </g>
</svg>