<?xml version="1.0" encoding="UTF-8"?>
<svg id="Layer_2" data-name="Layer 2" xmlns="http://www.w3.org/2000/svg" viewBox="0 0 90 81.49">
  <defs>
    <style>
      .cls-1 {
        fill: #a00000;
      }

      .cls-2 {
        fill: #231f20;
      }

      .cls-3 {
        fill: #231f20;
      }

      .cls-4 {
        fill: #fff;
      }

      .cls-5 {
        fill: #939598;
      }
    </style>
  </defs>
  <g id="White_Helmet" data-name="White Helmet">
    <g>
      <path class="cls-4" d="M35.38,50.03c-2.32,0-4.17,1.9-4.17,4.22s1.84,4.17,4.17,4.17,4.17-1.9,4.17-4.17-1.85-4.22-4.17-4.22M35.27,57.37c-1.74,0-3.22-1.43-3.22-3.17s1.48-3.22,3.22-3.22,3.22,1.42,3.22,3.22-1.48,3.17-3.22,3.17"/>
      <path class="cls-2" d="M87.75,63.23l-28.66-1.38c.04-1.31.08-2.4.12-3.45.04-1.18.08-2.41.13-3.49.57-9.02,6.31-14.11,15.64-14.32.7-6.93-.69-15.04-3.65-21.35-2.79-5.96-7.85-10.71-13.54-13.91-3.06-1.72-6.39-3.05-9.91-3.96-3.51-.9-7.14-1.36-10.77-1.36-6.47,0-12.78,1.48-18.25,4.27-6.03,3.08-10.91,7.6-14.5,13.46h0s0,.02,0,.02C1.02,24.4-.34,31.08.07,38.78c.38,7.12,2.26,14.52,4.08,21.68.07.29.32.35,1.56.35.44,0,.88,0,1.11-.02.07,0,.12,0,.15,0,.5,0,1-.02,1.49-.04.59-.02,1.19-.03,1.79-.04h.24c3.05,0,5.3.3,7.3.96,1.85.62,3.19,1.31,4.11,2.12.56.5,1.11,1.04,1.64,1.57.41.41.84.84,1.28,1.25,2.59,2.39,4.83,4.12,7.06,5.44,1.57.93,2.91,1.54,4.21,1.91,2.3.66,4.73,1.01,7.02,1.01,4.59,0,8.88-1.51,12.06-4.13,2.87,1.4,6.47,2.72,9.78,4.01,5.53,2.15,11.26,4.37,16.64,6.49h0s0,0,0,0c.27.09.56.14.84.14,1.25,0,2.42-.91,2.78-2.17.38-1.33-.31-2.55-1.73-3.44-.88-.53-2.24-1.01-3.34-1.34l2.6-6.2c.7,0,1.16.02,1.61.04.45.02.87.03,1.31.03.53,0,1.02-.02,1.54-.07h0c2.05-.25,2.7-1.61,2.76-2.71.08-1.37-.72-2.23-2.24-2.4M76.8,73.22l-14.86-5.91,16.93.7-2.08,5.22Z"/>
      <path class="cls-4" d="M70.69,20.84c-1.51-3.39-3.58-6.49-6.28-9.02-2.14-2.01-4.67-3.95-7.23-5.39-2.96-1.67-6.19-2.96-9.61-3.84-3.41-.88-6.93-1.32-10.46-1.32-6.27,0-12.38,1.43-17.68,4.13-5.8,2.96-10.51,7.32-13.98,12.96C2.25,24.79.94,31.26,1.34,38.72c.36,6.67,2.17,14.03,3.89,20.82,0,0,3.55-.08,5.26-.09,3.2-.02,5.57.32,7.7,1.03,2.01.67,3.49,1.45,4.54,2.37.6.53,1.16,1.09,1.7,1.63.41.41.82.83,1.24,1.21,2.52,2.33,4.69,4.01,6.84,5.28,1.48.88,2.72,1.44,3.91,1.78,2.19.63,4.49.96,6.67.96,4.29,0,7.97-1.22,10.95-3.62-.44-.23-.88-.46-1.31-.7h-2.65l-13.64-3.68,2.57-7.16,18.78,3.15c.05-1.05.09-2.22.13-3.36.04-1.19.08-2.42.13-3.51h0c.59-9.37,6.31-14.97,15.74-15.49.38-6.12-.56-12.74-3.12-18.52"/>
      <path class="cls-2" d="M40.6,54.25c0-2.88-2.33-5.27-5.21-5.27s-5.27,2.38-5.27,5.27,2.38,5.21,5.27,5.21,5.21-2.33,5.21-5.21"/>
      <path class="cls-2" d="M42.45,61.35c-.97,0-1.81.84-1.81,1.81,0,1.03.84,1.87,1.81,1.87,1.03,0,1.81-.84,1.81-1.87,0-.97-.78-1.81-1.81-1.81M42.45,64.13c-.58,0-1.1-.52-1.1-1.1s.51-1.04,1.1-1.04,1.1.45,1.1,1.04-.52,1.1-1.1,1.1M43.88,63.81c-.13.07-.26.07-.2-.07.45-.9-.13-2.07-1.16-2.07-.84,0-1.62.71-1.42,1.55-.07.13-.13.13-.2,0-.19-.9.71-1.74,1.55-1.74,1.22,0,1.94,1.29,1.42,2.33"/>
      <path class="cls-2" d="M42.45,62.19c-.45,0-.84.39-.84.84,0,.51.39.9.84.9s.84-.39.84-.9c0-.45-.39-.84-.84-.84M43.03,63.35c-.13.19-.32.32-.58.32s-.52-.19-.58-.39c0-.65,1.42-.78,1.16.06"/>
      <path class="cls-4" d="M35.38,58.42c-2.32,0-4.17-1.9-4.17-4.17s1.85-4.22,4.17-4.22,4.17,1.9,4.17,4.22-1.85,4.17-4.17,4.17"/>
      <path class="cls-5" d="M88.81,65.25c-.22-.9-1.13-1.06-1.78-1.09l-29.12-1.47-18.26-3.06-1.95,5.44,9.65,2.59c-.4-.4-.8-1.42-.54-2.18.18-.74.86-1.26,1.6-1.26.36,0,.72.11,1,.33.27.21.5.5.59.84.11.45.08,1-.06,1.54,1.05-.47,2.11-.9,3.22-1.37q-.11-.47-.68-1.11c.1-.11.16-.16.21-.26,1.11.95,1.9,1.32,4.01,1.69,7.91.37,15.88.74,23.85,1.16-1.42,3.48-1.48,3.43-3.22,7.6-.06-.02-.13-.05-.2-.08-.03-.01-.06-.02-.09-.04-.04-.01-.07-.03-.11-.04-.05-.02-.1-.04-.16-.07-.01,0-.02,0-.03-.01-3.32-1.35-11.57-5.04-17.93-6.65-3.61-.91-6.61-1.15-7.76.08-.16.21-.3.42-.3.63h1.25c0-.21.05-.37.16-.47,8.44,4.91,19.84,8.33,29.76,12.13.05.02.11.03.16.04.01,0,.03,0,.05,0,.04,0,.08.01.12.02.01,0,.03,0,.04,0,.05,0,.1,0,.15,0,.02,0,.04,0,.06,0,.03,0,.07,0,.1,0,.02,0,.04,0,.06,0,.03,0,.06,0,.09-.01.02,0,.04,0,.06-.01.03,0,.05-.01.08-.02.02,0,.04-.01.06-.02.03,0,.05-.02.08-.03.02,0,.04-.02.06-.02.02-.01.05-.02.07-.03.02-.01.04-.02.06-.03.02-.01.05-.03.07-.04.02-.01.04-.02.05-.04.02-.01.04-.03.06-.05.02-.01.03-.02.05-.04.02-.02.04-.04.06-.05.01-.01.03-.03.04-.04.03-.03.05-.05.08-.08.01-.02.03-.03.04-.05.02-.03.04-.05.06-.08.01-.02.02-.03.03-.05.01-.02.03-.04.04-.07.01-.02.02-.04.03-.06.01-.02.02-.04.04-.07,0-.02.02-.04.03-.06.01-.02.02-.04.03-.07,0-.02.02-.04.02-.06,0-.02.01-.05.02-.07,0-.02.01-.04.02-.07,0-.02.01-.05.02-.07,0-.02,0-.04.01-.07,0-.03,0-.05,0-.08,0-.02,0-.04,0-.07,0-.03,0-.05,0-.08,0-.02,0-.05,0-.07,0-.03,0-.06,0-.09,0-.02,0-.04,0-.06,0-.04-.01-.08-.02-.12,0-.01,0-.03,0-.04,0-.04-.02-.08-.03-.12,0-.02-.01-.04-.02-.05,0-.03-.02-.06-.03-.09,0-.02-.02-.04-.03-.06-.01-.03-.02-.06-.04-.09-.01-.02-.02-.04-.04-.06-.01-.03-.03-.06-.05-.08-.01-.02-.03-.04-.04-.06-.02-.03-.04-.05-.06-.08-.01-.02-.03-.04-.05-.06-.02-.03-.05-.05-.07-.08-.02-.02-.04-.04-.05-.06-.03-.03-.05-.05-.08-.08-.02-.02-.04-.04-.06-.06-.03-.03-.06-.05-.1-.08-.02-.01-.04-.03-.06-.05-.04-.03-.08-.05-.12-.08-.02-.01-.04-.03-.06-.04-.06-.04-.13-.08-.2-.12-1.21-.74-3.43-1.32-4.16-1.69,0,0,3.48-8.02,3.48-8.02.57,0,1.85.1,3.14.11h.02c.89,0,1.92.18,2.74-.27.55-.3.91-1.04.78-1.66M42.45,65.04c-.97,0-1.81-.84-1.81-1.88,0-.97.84-1.81,1.81-1.81,1.03,0,1.81.84,1.81,1.81,0,1.03-.78,1.88-1.81,1.88"/>
      <path class="cls-5" d="M49.52,65.86c0-.62-.48-1.1-1.11-1.1-.58,0-1.1.48-1.1,1.1,0,.58.53,1.11,1.1,1.11.63,0,1.11-.53,1.11-1.11"/>
      <path class="cls-5" d="M43.55,63.03c0-.58-.51-1.04-1.1-1.04s-1.1.45-1.1,1.04.51,1.1,1.1,1.1,1.1-.52,1.1-1.1M41.61,63.03c0-.45.39-.84.84-.84s.84.39.84.84c0,.52-.39.9-.84.9s-.84-.39-.84-.9"/>
      <path class="cls-5" d="M42.52,61.67c1.03,0,1.61,1.16,1.16,2.07-.07.13.07.13.2.07.52-1.03-.2-2.33-1.42-2.33-.84,0-1.74.84-1.55,1.74.06.13.13.13.2,0-.2-.84.58-1.55,1.42-1.55"/>
      <path class="cls-5" d="M43.03,63.35c.26-.84-1.16-.71-1.16-.06.06.19.32.39.58.39s.45-.13.58-.32"/>
      <path class="cls-3" d="M2.83,56.35c-.12-.87-.34-1.37-.36-1.56-.04-.31.19-.59.49-.63l3.52-.45,5.62,5.06.16,1.18c.04.28-.15.55-.43.62-.45.11-2.01.47-3.37.64-5.05.64-5.65-.83-5.71-1.29-.04-.28.32-1.78.08-3.56"/>
      <path class="cls-4" d="M8.06,60.14c1.06-.14,2.28-.41,2.89-.53l-.1-.69-4.53-4.08-2.73.35s.21.59.3,1.3c.19,1.41-.07,2.97-.07,2.97,0,0,.16,1.2,4.23.68"/>
      <path class="cls-1" d="M18.53,26.92c0,6.97,7.61,12.61,16.99,12.61s16.99-5.65,16.99-12.61-7.61-12.62-16.99-12.62-16.99,5.65-16.99,12.62"/>
      <path class="cls-4" d="M47.96,21.78v-2.16c-1.8-1.4-3.88-2.44-6.1-3.12v3.06c.4.09.81.18,1.2.29-.76,2.28-1.55,4.79-2.35,7.45-1.12-3.7-2.26-7.67-3.41-11.65-1.22-.1-2.45-.1-3.67,0-1.15,3.98-2.29,7.95-3.4,11.65-.8-2.65-1.58-5.17-2.35-7.44.39-.1.79-.2,1.2-.29v-3.06c-2.22.67-4.31,1.71-6.1,3.12v2.16c.24-.13.48-.26.73-.39,1.55,3.79,3.29,9.62,5.13,16.18.93.29,1.89.52,2.86.69,1.25-3.95,2.51-8.24,3.78-12.52,1.26,4.28,2.52,8.57,3.76,12.52.98-.17,1.94-.4,2.88-.69,1.83-6.57,3.56-12.39,5.11-16.18.25.12.49.25.73.38"/>
      <polygon class="cls-1" points="45.93 37.46 46.21 37.46 46.21 38.33 46.32 38.33 46.32 37.46 46.62 37.46 46.62 37.36 45.93 37.36 45.93 37.46"/>
      <polygon class="cls-1" points="47.42 37.36 47.17 38.15 46.92 37.36 46.76 37.36 46.76 38.33 46.86 38.33 46.86 37.51 47.12 38.33 47.22 38.33 47.48 37.51 47.48 38.33 47.58 38.33 47.58 37.36 47.42 37.36"/>
    </g>
  </g>
</svg>